<svg width="182" height="132" viewBox="0 0 182 132" fill="none" xmlns="http://www.w3.org/2000/svg">
<rect width="182" height="130" rx="6" fill="#5A92FF"/>
<mask id="mask0_6044_46512" style="mask-type:alpha" maskUnits="userSpaceOnUse" x="0" y="-25" width="182" height="157">
<rect y="-25" width="182" height="157" rx="6" fill="#FF5A7A" fill-opacity="0.3"/>
</mask>
<g mask="url(#mask0_6044_46512)">
<path d="M21.9655 83L-14.1207 119L8.36778 174L190.368 180L185.138 67.5L177.293 60L162.126 67.5L149.052 53.5L120.287 74.5L115.057 60L93.6149 87L77.9252 67.5L47.5919 96L21.9655 83Z" fill="url(#paint0_linear_6044_46512)" stroke="black" stroke-opacity="0.3"/>
</g>
<path d="M10.518 21.114C10.518 20.162 10.7373 19.308 11.176 18.552C11.624 17.796 12.226 17.208 12.982 16.788C13.7473 16.3587 14.5827 16.144 15.488 16.144C16.524 16.144 17.4433 16.4007 18.246 16.914C19.058 17.418 19.646 18.1367 20.01 19.07H18.092C17.84 18.5567 17.49 18.174 17.042 17.922C16.594 17.67 16.076 17.544 15.488 17.544C14.844 17.544 14.27 17.6887 13.766 17.978C13.262 18.2673 12.8653 18.6827 12.576 19.224C12.296 19.7653 12.156 20.3953 12.156 21.114C12.156 21.8327 12.296 22.4627 12.576 23.004C12.8653 23.5453 13.262 23.9653 13.766 24.264C14.27 24.5533 14.844 24.698 15.488 24.698C16.076 24.698 16.594 24.572 17.042 24.32C17.49 24.068 17.84 23.6853 18.092 23.172H20.01C19.646 24.1053 19.058 24.824 18.246 25.328C17.4433 25.832 16.524 26.084 15.488 26.084C14.5733 26.084 13.738 25.874 12.982 25.454C12.226 25.0247 11.624 24.432 11.176 23.676C10.7373 22.92 10.518 22.066 10.518 21.114ZM28.8641 18.286V26H27.2681V25.09C27.0161 25.4073 26.6848 25.6593 26.2741 25.846C25.8728 26.0233 25.4435 26.112 24.9861 26.112C24.3795 26.112 23.8335 25.986 23.3481 25.734C22.8721 25.482 22.4941 25.1087 22.2141 24.614C21.9435 24.1193 21.8081 23.522 21.8081 22.822V18.286H23.3901V22.584C23.3901 23.2747 23.5628 23.8067 23.9081 24.18C24.2535 24.544 24.7248 24.726 25.3221 24.726C25.9195 24.726 26.3908 24.544 26.7361 24.18C27.0908 23.8067 27.2681 23.2747 27.2681 22.584V18.286H28.8641ZM33.7699 26.126C33.1633 26.126 32.6173 26.0187 32.1319 25.804C31.6559 25.58 31.2779 25.2813 30.9979 24.908C30.7179 24.5253 30.5686 24.1007 30.5499 23.634H32.2019C32.2299 23.9607 32.3839 24.236 32.6639 24.46C32.9533 24.6747 33.3126 24.782 33.7419 24.782C34.1899 24.782 34.5353 24.698 34.7779 24.53C35.0299 24.3527 35.1559 24.1287 35.1559 23.858C35.1559 23.5687 35.0159 23.354 34.7359 23.214C34.4653 23.074 34.0313 22.92 33.4339 22.752C32.8553 22.5933 32.3839 22.4393 32.0199 22.29C31.6559 22.1407 31.3386 21.912 31.0679 21.604C30.8066 21.296 30.6759 20.89 30.6759 20.386C30.6759 19.9753 30.7973 19.602 31.0399 19.266C31.2826 18.9207 31.6279 18.65 32.0759 18.454C32.5333 18.258 33.0559 18.16 33.6439 18.16C34.5213 18.16 35.2259 18.384 35.7579 18.832C36.2993 19.2707 36.5886 19.8727 36.6259 20.638H35.0299C35.0019 20.2927 34.8619 20.0173 34.6099 19.812C34.3579 19.6067 34.0173 19.504 33.5879 19.504C33.1679 19.504 32.8459 19.5833 32.6219 19.742C32.3979 19.9007 32.2859 20.1107 32.2859 20.372C32.2859 20.5773 32.3606 20.75 32.5099 20.89C32.6593 21.03 32.8413 21.142 33.0559 21.226C33.2706 21.3007 33.5879 21.3987 34.0079 21.52C34.5679 21.6693 35.0253 21.8233 35.3799 21.982C35.7439 22.1313 36.0566 22.3553 36.3179 22.654C36.5793 22.9527 36.7146 23.3493 36.7239 23.844C36.7239 24.2827 36.6026 24.6747 36.3599 25.02C36.1173 25.3653 35.7719 25.636 35.3239 25.832C34.8853 26.028 34.3673 26.126 33.7699 26.126ZM40.3104 19.588V23.858C40.3104 24.1473 40.3758 24.3573 40.5064 24.488C40.6464 24.6093 40.8798 24.67 41.2064 24.67H42.1864V26H40.9264C40.2078 26 39.6571 25.832 39.2744 25.496C38.8918 25.16 38.7004 24.614 38.7004 23.858V19.588H37.7904V18.286H38.7004V16.368H40.3104V18.286H42.1864V19.588H40.3104ZM47.0034 26.126C46.2754 26.126 45.6174 25.9627 45.0294 25.636C44.4414 25.3 43.9794 24.8333 43.6434 24.236C43.3074 23.6293 43.1394 22.9293 43.1394 22.136C43.1394 21.352 43.3121 20.6567 43.6574 20.05C44.0028 19.4433 44.4741 18.9767 45.0714 18.65C45.6688 18.3233 46.3361 18.16 47.0734 18.16C47.8108 18.16 48.4781 18.3233 49.0754 18.65C49.6728 18.9767 50.1441 19.4433 50.4894 20.05C50.8348 20.6567 51.0074 21.352 51.0074 22.136C51.0074 22.92 50.8301 23.6153 50.4754 24.222C50.1208 24.8287 49.6354 25.3 49.0194 25.636C48.4128 25.9627 47.7408 26.126 47.0034 26.126ZM47.0034 24.74C47.4141 24.74 47.7968 24.642 48.1514 24.446C48.5154 24.25 48.8094 23.956 49.0334 23.564C49.2574 23.172 49.3694 22.696 49.3694 22.136C49.3694 21.576 49.2621 21.1047 49.0474 20.722C48.8328 20.33 48.5481 20.036 48.1934 19.84C47.8388 19.644 47.4561 19.546 47.0454 19.546C46.6348 19.546 46.2521 19.644 45.8974 19.84C45.5521 20.036 45.2768 20.33 45.0714 20.722C44.8661 21.1047 44.7634 21.576 44.7634 22.136C44.7634 22.9667 44.9734 23.6107 45.3934 24.068C45.8228 24.516 46.3594 24.74 47.0034 24.74ZM61.9232 18.16C62.5298 18.16 63.0712 18.286 63.5472 18.538C64.0325 18.79 64.4105 19.1633 64.6812 19.658C64.9612 20.1527 65.1012 20.75 65.1012 21.45V26H63.5192V21.688C63.5192 20.9973 63.3465 20.47 63.0012 20.106C62.6558 19.7327 62.1845 19.546 61.5872 19.546C60.9898 19.546 60.5138 19.7327 60.1592 20.106C59.8138 20.47 59.6412 20.9973 59.6412 21.688V26H58.0592V21.688C58.0592 20.9973 57.8865 20.47 57.5412 20.106C57.1958 19.7327 56.7245 19.546 56.1272 19.546C55.5298 19.546 55.0538 19.7327 54.6992 20.106C54.3538 20.47 54.1812 20.9973 54.1812 21.688V26H52.5852V18.286H54.1812V19.168C54.4425 18.8507 54.7738 18.6033 55.1752 18.426C55.5765 18.2487 56.0058 18.16 56.4632 18.16C57.0792 18.16 57.6298 18.2907 58.1152 18.552C58.6005 18.8133 58.9738 19.1913 59.2352 19.686C59.4685 19.2193 59.8325 18.8507 60.3272 18.58C60.8218 18.3 61.3538 18.16 61.9232 18.16ZM74.202 21.954C74.202 22.2433 74.1834 22.5047 74.146 22.738H68.252C68.2987 23.354 68.5274 23.8487 68.938 24.222C69.3487 24.5953 69.8527 24.782 70.45 24.782C71.3087 24.782 71.9154 24.4227 72.27 23.704H73.992C73.7587 24.4133 73.334 24.9967 72.718 25.454C72.1114 25.902 71.3554 26.126 70.45 26.126C69.7127 26.126 69.05 25.9627 68.462 25.636C67.8834 25.3 67.426 24.8333 67.09 24.236C66.7634 23.6293 66.6 22.9293 66.6 22.136C66.6 21.3427 66.7587 20.6473 67.076 20.05C67.4027 19.4433 67.8554 18.9767 68.434 18.65C69.022 18.3233 69.694 18.16 70.45 18.16C71.178 18.16 71.8267 18.3187 72.396 18.636C72.9654 18.9533 73.4087 19.4013 73.726 19.98C74.0434 20.5493 74.202 21.2073 74.202 21.954ZM72.536 21.45C72.5267 20.862 72.3167 20.3907 71.906 20.036C71.4954 19.6813 70.9867 19.504 70.38 19.504C69.8294 19.504 69.358 19.6813 68.966 20.036C68.574 20.3813 68.3407 20.8527 68.266 21.45H72.536ZM77.3687 19.406C77.602 19.014 77.91 18.7107 78.2927 18.496C78.6847 18.272 79.1467 18.16 79.6787 18.16V19.812H79.2727C78.6473 19.812 78.1713 19.9707 77.8447 20.288C77.5273 20.6053 77.3687 21.156 77.3687 21.94V26H75.7727V18.286H77.3687V19.406ZM83.9457 26.126C83.339 26.126 82.793 26.0187 82.3077 25.804C81.8317 25.58 81.4537 25.2813 81.1737 24.908C80.8937 24.5253 80.7444 24.1007 80.7257 23.634H82.3777C82.4057 23.9607 82.5597 24.236 82.8397 24.46C83.129 24.6747 83.4884 24.782 83.9177 24.782C84.3657 24.782 84.711 24.698 84.9537 24.53C85.2057 24.3527 85.3317 24.1287 85.3317 23.858C85.3317 23.5687 85.1917 23.354 84.9117 23.214C84.641 23.074 84.207 22.92 83.6097 22.752C83.031 22.5933 82.5597 22.4393 82.1957 22.29C81.8317 22.1407 81.5144 21.912 81.2437 21.604C80.9824 21.296 80.8517 20.89 80.8517 20.386C80.8517 19.9753 80.973 19.602 81.2157 19.266C81.4584 18.9207 81.8037 18.65 82.2517 18.454C82.709 18.258 83.2317 18.16 83.8197 18.16C84.697 18.16 85.4017 18.384 85.9337 18.832C86.475 19.2707 86.7644 19.8727 86.8017 20.638H85.2057C85.1777 20.2927 85.0377 20.0173 84.7857 19.812C84.5337 19.6067 84.193 19.504 83.7637 19.504C83.3437 19.504 83.0217 19.5833 82.7977 19.742C82.5737 19.9007 82.4617 20.1107 82.4617 20.372C82.4617 20.5773 82.5364 20.75 82.6857 20.89C82.835 21.03 83.017 21.142 83.2317 21.226C83.4464 21.3007 83.7637 21.3987 84.1837 21.52C84.7437 21.6693 85.201 21.8233 85.5557 21.982C85.9197 22.1313 86.2324 22.3553 86.4937 22.654C86.755 22.9527 86.8904 23.3493 86.8997 23.844C86.8997 24.2827 86.7784 24.6747 86.5357 25.02C86.293 25.3653 85.9477 25.636 85.4997 25.832C85.061 26.028 84.543 26.126 83.9457 26.126ZM102.621 18.286L100.227 26H98.5469L96.9929 20.302L95.4389 26H93.7589L91.3509 18.286H92.9749L94.5849 24.488L96.2229 18.286H97.8889L99.4569 24.46L101.053 18.286H102.621ZM104.626 17.264C104.336 17.264 104.094 17.166 103.898 16.97C103.702 16.774 103.604 16.5313 103.604 16.242C103.604 15.9527 103.702 15.71 103.898 15.514C104.094 15.318 104.336 15.22 104.626 15.22C104.906 15.22 105.144 15.318 105.34 15.514C105.536 15.71 105.634 15.9527 105.634 16.242C105.634 16.5313 105.536 16.774 105.34 16.97C105.144 17.166 104.906 17.264 104.626 17.264ZM105.41 18.286V26H103.814V18.286H105.41ZM109.367 19.588V23.858C109.367 24.1473 109.432 24.3573 109.563 24.488C109.703 24.6093 109.936 24.67 110.263 24.67H111.243V26H109.983C109.264 26 108.714 25.832 108.331 25.496C107.948 25.16 107.757 24.614 107.757 23.858V19.588H106.847V18.286H107.757V16.368H109.367V18.286H111.243V19.588H109.367ZM116.704 18.16C117.292 18.16 117.815 18.286 118.272 18.538C118.739 18.79 119.103 19.1633 119.364 19.658C119.635 20.1527 119.77 20.75 119.77 21.45V26H118.188V21.688C118.188 20.9973 118.015 20.47 117.67 20.106C117.325 19.7327 116.853 19.546 116.256 19.546C115.659 19.546 115.183 19.7327 114.828 20.106C114.483 20.47 114.31 20.9973 114.31 21.688V26H112.714V15.64H114.31V19.182C114.581 18.8553 114.921 18.6033 115.332 18.426C115.752 18.2487 116.209 18.16 116.704 18.16ZM131.309 24.012H127.235L126.535 26H124.869L128.355 16.256H130.203L133.689 26H132.009L131.309 24.012ZM130.861 22.71L129.279 18.188L127.683 22.71H130.861ZM134.672 22.136C134.672 21.3427 134.831 20.6473 135.148 20.05C135.475 19.4433 135.923 18.9767 136.492 18.65C137.062 18.3233 137.715 18.16 138.452 18.16C139.386 18.16 140.156 18.384 140.762 18.832C141.378 19.2707 141.794 19.9007 142.008 20.722H140.286C140.146 20.3393 139.922 20.0407 139.614 19.826C139.306 19.6113 138.919 19.504 138.452 19.504C137.799 19.504 137.276 19.7373 136.884 20.204C136.502 20.6613 136.31 21.3053 136.31 22.136C136.31 22.9667 136.502 23.6153 136.884 24.082C137.276 24.5487 137.799 24.782 138.452 24.782C139.376 24.782 139.988 24.376 140.286 23.564H142.008C141.784 24.348 141.364 24.9733 140.748 25.44C140.132 25.8973 139.367 26.126 138.452 26.126C137.715 26.126 137.062 25.9627 136.492 25.636C135.923 25.3 135.475 24.8333 135.148 24.236C134.831 23.6293 134.672 22.9293 134.672 22.136ZM145.461 19.588V23.858C145.461 24.1473 145.526 24.3573 145.657 24.488C145.797 24.6093 146.03 24.67 146.357 24.67H147.337V26H146.077C145.358 26 144.807 25.832 144.425 25.496C144.042 25.16 143.851 24.614 143.851 23.858V19.588H142.941V18.286H143.851V16.368H145.461V18.286H147.337V19.588H145.461ZM149.62 17.264C149.33 17.264 149.088 17.166 148.892 16.97C148.696 16.774 148.598 16.5313 148.598 16.242C148.598 15.9527 148.696 15.71 148.892 15.514C149.088 15.318 149.33 15.22 149.62 15.22C149.9 15.22 150.138 15.318 150.334 15.514C150.53 15.71 150.628 15.9527 150.628 16.242C150.628 16.5313 150.53 16.774 150.334 16.97C150.138 17.166 149.9 17.264 149.62 17.264ZM150.404 18.286V26H148.808V18.286H150.404ZM155.481 24.572L157.665 18.286H159.359L156.419 26H154.515L151.589 18.286H153.297L155.481 24.572ZM167.636 21.954C167.636 22.2433 167.617 22.5047 167.58 22.738H161.686C161.732 23.354 161.961 23.8487 162.372 24.222C162.782 24.5953 163.286 24.782 163.884 24.782C164.742 24.782 165.349 24.4227 165.704 23.704H167.426C167.192 24.4133 166.768 24.9967 166.152 25.454C165.545 25.902 164.789 26.126 163.884 26.126C163.146 26.126 162.484 25.9627 161.896 25.636C161.317 25.3 160.86 24.8333 160.524 24.236C160.197 23.6293 160.034 22.9293 160.034 22.136C160.034 21.3427 160.192 20.6473 160.51 20.05C160.836 19.4433 161.289 18.9767 161.868 18.65C162.456 18.3233 163.128 18.16 163.884 18.16C164.612 18.16 165.26 18.3187 165.83 18.636C166.399 18.9533 166.842 19.4013 167.16 19.98C167.477 20.5493 167.636 21.2073 167.636 21.954ZM165.97 21.45C165.96 20.862 165.75 20.3907 165.34 20.036C164.929 19.6813 164.42 19.504 163.814 19.504C163.263 19.504 162.792 19.6813 162.4 20.036C162.008 20.3813 161.774 20.8527 161.7 21.45H165.97ZM14.256 47.098C13.6027 47.098 13.0147 46.986 12.492 46.762C11.9693 46.5287 11.5587 46.202 11.26 45.782C10.9613 45.362 10.812 44.872 10.812 44.312H12.52C12.5573 44.732 12.7207 45.0773 13.01 45.348C13.3087 45.6187 13.724 45.754 14.256 45.754C14.8067 45.754 15.236 45.6233 15.544 45.362C15.852 45.0913 16.006 44.746 16.006 44.326C16.006 43.9993 15.908 43.7333 15.712 43.528C15.5253 43.3227 15.2873 43.164 14.998 43.052C14.718 42.94 14.326 42.8187 13.822 42.688C13.1873 42.52 12.6693 42.352 12.268 42.184C11.876 42.0067 11.54 41.736 11.26 41.372C10.98 41.008 10.84 40.5227 10.84 39.916C10.84 39.356 10.98 38.866 11.26 38.446C11.54 38.026 11.932 37.704 12.436 37.48C12.94 37.256 13.5233 37.144 14.186 37.144C15.1287 37.144 15.8987 37.382 16.496 37.858C17.1027 38.3247 17.4387 38.9687 17.504 39.79H15.74C15.712 39.4353 15.544 39.132 15.236 38.88C14.928 38.628 14.522 38.502 14.018 38.502C13.5607 38.502 13.1873 38.6187 12.898 38.852C12.6087 39.0853 12.464 39.4213 12.464 39.86C12.464 40.1587 12.5527 40.406 12.73 40.602C12.9167 40.7887 13.15 40.938 13.43 41.05C13.71 41.162 14.0927 41.2833 14.578 41.414C15.222 41.5913 15.7447 41.7687 16.146 41.946C16.5567 42.1233 16.902 42.3987 17.182 42.772C17.4713 43.136 17.616 43.626 17.616 44.242C17.616 44.7367 17.4807 45.2033 17.21 45.642C16.9487 46.0807 16.5613 46.4353 16.048 46.706C15.544 46.9673 14.9467 47.098 14.256 47.098ZM18.9672 43.136C18.9672 42.3427 19.1259 41.6473 19.4432 41.05C19.7699 40.4433 20.2179 39.9767 20.7872 39.65C21.3566 39.3233 22.0099 39.16 22.7472 39.16C23.6806 39.16 24.4506 39.384 25.0572 39.832C25.6732 40.2707 26.0886 40.9007 26.3032 41.722H24.5812C24.4412 41.3393 24.2172 41.0407 23.9092 40.826C23.6012 40.6113 23.2139 40.504 22.7472 40.504C22.0939 40.504 21.5712 40.7373 21.1792 41.204C20.7966 41.6613 20.6052 42.3053 20.6052 43.136C20.6052 43.9667 20.7966 44.6153 21.1792 45.082C21.5712 45.5487 22.0939 45.782 22.7472 45.782C23.6712 45.782 24.2826 45.376 24.5812 44.564H26.3032C26.0792 45.348 25.6592 45.9733 25.0432 46.44C24.4272 46.8973 23.6619 47.126 22.7472 47.126C22.0099 47.126 21.3566 46.9627 20.7872 46.636C20.2179 46.3 19.7699 45.8333 19.4432 45.236C19.1259 44.6293 18.9672 43.9293 18.9672 43.136ZM31.8838 39.16C32.4718 39.16 32.9944 39.286 33.4518 39.538C33.9184 39.79 34.2824 40.1633 34.5438 40.658C34.8144 41.1527 34.9498 41.75 34.9498 42.45V47H33.3678V42.688C33.3678 41.9973 33.1951 41.47 32.8498 41.106C32.5044 40.7327 32.0331 40.546 31.4358 40.546C30.8384 40.546 30.3624 40.7327 30.0078 41.106C29.6624 41.47 29.4898 41.9973 29.4898 42.688V47H27.8938V36.64H29.4898V40.182C29.7604 39.8553 30.1011 39.6033 30.5118 39.426C30.9318 39.2487 31.3891 39.16 31.8838 39.16ZM44.0555 42.954C44.0555 43.2433 44.0369 43.5047 43.9995 43.738H38.1055C38.1522 44.354 38.3809 44.8487 38.7915 45.222C39.2022 45.5953 39.7062 45.782 40.3035 45.782C41.1622 45.782 41.7689 45.4227 42.1235 44.704H43.8455C43.6122 45.4133 43.1875 45.9967 42.5715 46.454C41.9649 46.902 41.2089 47.126 40.3035 47.126C39.5662 47.126 38.9035 46.9627 38.3155 46.636C37.7369 46.3 37.2795 45.8333 36.9435 45.236C36.6169 44.6293 36.4535 43.9293 36.4535 43.136C36.4535 42.3427 36.6122 41.6473 36.9295 41.05C37.2562 40.4433 37.7089 39.9767 38.2875 39.65C38.8755 39.3233 39.5475 39.16 40.3035 39.16C41.0315 39.16 41.6802 39.3187 42.2495 39.636C42.8189 39.9533 43.2622 40.4013 43.5795 40.98C43.8969 41.5493 44.0555 42.2073 44.0555 42.954ZM42.3895 42.45C42.3802 41.862 42.1702 41.3907 41.7595 41.036C41.3489 40.6813 40.8402 40.504 40.2335 40.504C39.6829 40.504 39.2115 40.6813 38.8195 41.036C38.4275 41.3813 38.1942 41.8527 38.1195 42.45H42.3895ZM54.9642 39.16C55.5708 39.16 56.1122 39.286 56.5882 39.538C57.0735 39.79 57.4515 40.1633 57.7222 40.658C58.0022 41.1527 58.1422 41.75 58.1422 42.45V47H56.5602V42.688C56.5602 41.9973 56.3875 41.47 56.0422 41.106C55.6968 40.7327 55.2255 40.546 54.6282 40.546C54.0308 40.546 53.5548 40.7327 53.2002 41.106C52.8548 41.47 52.6822 41.9973 52.6822 42.688V47H51.1002V42.688C51.1002 41.9973 50.9275 41.47 50.5822 41.106C50.2368 40.7327 49.7655 40.546 49.1682 40.546C48.5708 40.546 48.0948 40.7327 47.7402 41.106C47.3948 41.47 47.2222 41.9973 47.2222 42.688V47H45.6262V39.286H47.2222V40.168C47.4835 39.8507 47.8148 39.6033 48.2162 39.426C48.6175 39.2487 49.0468 39.16 49.5042 39.16C50.1202 39.16 50.6708 39.2907 51.1562 39.552C51.6415 39.8133 52.0148 40.1913 52.2762 40.686C52.5095 40.2193 52.8735 39.8507 53.3682 39.58C53.8628 39.3 54.3948 39.16 54.9642 39.16ZM67.243 42.954C67.243 43.2433 67.2244 43.5047 67.187 43.738H61.293C61.3397 44.354 61.5684 44.8487 61.979 45.222C62.3897 45.5953 62.8937 45.782 63.491 45.782C64.3497 45.782 64.9564 45.4227 65.311 44.704H67.033C66.7997 45.4133 66.375 45.9967 65.759 46.454C65.1524 46.902 64.3964 47.126 63.491 47.126C62.7537 47.126 62.091 46.9627 61.503 46.636C60.9244 46.3 60.467 45.8333 60.131 45.236C59.8044 44.6293 59.641 43.9293 59.641 43.136C59.641 42.3427 59.7997 41.6473 60.117 41.05C60.4437 40.4433 60.8964 39.9767 61.475 39.65C62.063 39.3233 62.735 39.16 63.491 39.16C64.219 39.16 64.8677 39.3187 65.437 39.636C66.0064 39.9533 66.4497 40.4013 66.767 40.98C67.0844 41.5493 67.243 42.2073 67.243 42.954ZM65.577 42.45C65.5677 41.862 65.3577 41.3907 64.947 41.036C64.5364 40.6813 64.0277 40.504 63.421 40.504C62.8704 40.504 62.399 40.6813 62.007 41.036C61.615 41.3813 61.3817 41.8527 61.307 42.45H65.577Z" fill="white"/>
<path d="M103.095 106.25V104.794H106.007V115H104.397V106.25H103.095ZM109.081 112.83C109.977 112.055 110.682 111.421 111.195 110.926C111.718 110.422 112.152 109.899 112.497 109.358C112.843 108.817 113.015 108.275 113.015 107.734C113.015 107.174 112.88 106.735 112.609 106.418C112.348 106.101 111.933 105.942 111.363 105.942C110.813 105.942 110.383 106.119 110.075 106.474C109.777 106.819 109.618 107.286 109.599 107.874H108.059C108.087 106.81 108.405 105.998 109.011 105.438C109.627 104.869 110.407 104.584 111.349 104.584C112.367 104.584 113.16 104.864 113.729 105.424C114.308 105.984 114.597 106.731 114.597 107.664C114.597 108.336 114.425 108.985 114.079 109.61C113.743 110.226 113.337 110.781 112.861 111.276C112.395 111.761 111.797 112.326 111.069 112.97L110.439 113.53H114.877V114.86H108.073V113.698L109.081 112.83ZM116.279 109.764C116.279 108.149 116.55 106.889 117.091 105.984C117.642 105.069 118.585 104.612 119.919 104.612C121.254 104.612 122.192 105.069 122.733 105.984C123.284 106.889 123.559 108.149 123.559 109.764C123.559 111.397 123.284 112.676 122.733 113.6C122.192 114.515 121.254 114.972 119.919 114.972C118.585 114.972 117.642 114.515 117.091 113.6C116.55 112.676 116.279 111.397 116.279 109.764ZM121.991 109.764C121.991 109.008 121.94 108.369 121.837 107.846C121.744 107.323 121.548 106.899 121.249 106.572C120.951 106.236 120.507 106.068 119.919 106.068C119.331 106.068 118.888 106.236 118.589 106.572C118.291 106.899 118.09 107.323 117.987 107.846C117.894 108.369 117.847 109.008 117.847 109.764C117.847 110.548 117.894 111.206 117.987 111.738C118.081 112.27 118.277 112.699 118.575 113.026C118.883 113.353 119.331 113.516 119.919 113.516C120.507 113.516 120.951 113.353 121.249 113.026C121.557 112.699 121.758 112.27 121.851 111.738C121.945 111.206 121.991 110.548 121.991 109.764ZM135.381 105.27V106.572H132.791V115H131.195V106.572H128.591V105.27H135.381ZM140.343 115.126C139.615 115.126 138.957 114.963 138.369 114.636C137.781 114.3 137.319 113.833 136.983 113.236C136.647 112.629 136.479 111.929 136.479 111.136C136.479 110.352 136.652 109.657 136.997 109.05C137.343 108.443 137.814 107.977 138.411 107.65C139.009 107.323 139.676 107.16 140.413 107.16C141.151 107.16 141.818 107.323 142.415 107.65C143.013 107.977 143.484 108.443 143.829 109.05C144.175 109.657 144.347 110.352 144.347 111.136C144.347 111.92 144.17 112.615 143.815 113.222C143.461 113.829 142.975 114.3 142.359 114.636C141.753 114.963 141.081 115.126 140.343 115.126ZM140.343 113.74C140.754 113.74 141.137 113.642 141.491 113.446C141.855 113.25 142.149 112.956 142.373 112.564C142.597 112.172 142.709 111.696 142.709 111.136C142.709 110.576 142.602 110.105 142.387 109.722C142.173 109.33 141.888 109.036 141.533 108.84C141.179 108.644 140.796 108.546 140.385 108.546C139.975 108.546 139.592 108.644 139.237 108.84C138.892 109.036 138.617 109.33 138.411 109.722C138.206 110.105 138.103 110.576 138.103 111.136C138.103 111.967 138.313 112.611 138.733 113.068C139.163 113.516 139.699 113.74 140.343 113.74ZM145.393 111.108C145.393 110.333 145.552 109.647 145.869 109.05C146.196 108.453 146.634 107.991 147.185 107.664C147.745 107.328 148.366 107.16 149.047 107.16C149.551 107.16 150.046 107.272 150.531 107.496C151.026 107.711 151.418 108 151.707 108.364V104.64H153.317V115H151.707V113.838C151.446 114.211 151.082 114.519 150.615 114.762C150.158 115.005 149.63 115.126 149.033 115.126C148.361 115.126 147.745 114.958 147.185 114.622C146.634 114.277 146.196 113.801 145.869 113.194C145.552 112.578 145.393 111.883 145.393 111.108ZM151.707 111.136C151.707 110.604 151.595 110.142 151.371 109.75C151.156 109.358 150.872 109.059 150.517 108.854C150.162 108.649 149.78 108.546 149.369 108.546C148.958 108.546 148.576 108.649 148.221 108.854C147.866 109.05 147.577 109.344 147.353 109.736C147.138 110.119 147.031 110.576 147.031 111.108C147.031 111.64 147.138 112.107 147.353 112.508C147.577 112.909 147.866 113.217 148.221 113.432C148.585 113.637 148.968 113.74 149.369 113.74C149.78 113.74 150.162 113.637 150.517 113.432C150.872 113.227 151.156 112.928 151.371 112.536C151.595 112.135 151.707 111.668 151.707 111.136ZM154.881 111.108C154.881 110.333 155.04 109.647 155.357 109.05C155.684 108.453 156.123 107.991 156.673 107.664C157.233 107.328 157.849 107.16 158.521 107.16C159.128 107.16 159.655 107.281 160.103 107.524C160.561 107.757 160.925 108.051 161.195 108.406V107.286H162.805V115H161.195V113.852C160.925 114.216 160.556 114.519 160.089 114.762C159.623 115.005 159.091 115.126 158.493 115.126C157.831 115.126 157.224 114.958 156.673 114.622C156.123 114.277 155.684 113.801 155.357 113.194C155.04 112.578 154.881 111.883 154.881 111.108ZM161.195 111.136C161.195 110.604 161.083 110.142 160.859 109.75C160.645 109.358 160.36 109.059 160.005 108.854C159.651 108.649 159.268 108.546 158.857 108.546C158.447 108.546 158.064 108.649 157.709 108.854C157.355 109.05 157.065 109.344 156.841 109.736C156.627 110.119 156.519 110.576 156.519 111.108C156.519 111.64 156.627 112.107 156.841 112.508C157.065 112.909 157.355 113.217 157.709 113.432C158.073 113.637 158.456 113.74 158.857 113.74C159.268 113.74 159.651 113.637 160.005 113.432C160.36 113.227 160.645 112.928 160.859 112.536C161.083 112.135 161.195 111.668 161.195 111.136ZM171.846 107.286L167.114 118.626H165.462L167.03 114.874L163.992 107.286H165.77L167.94 113.166L170.194 107.286H171.846Z" fill="white"/>
<path d="M22.2997 64.7716L22.4083 87.5838L18.2677 87.6036L18.1821 69.6194L12.7064 71.458L12.6905 68.1143L21.831 64.7738L22.2997 64.7716ZM34.1083 77.0593L30.8077 76.2781L32.0186 64.7878L44.5341 64.7282L44.5504 68.1501L35.4568 68.1934L34.8883 73.5086C35.2103 73.3092 35.6781 73.109 36.2917 72.9082C36.9157 72.6969 37.6183 72.5894 38.3996 72.5857C39.4829 72.5805 40.4525 72.753 41.3083 73.1031C42.1641 73.4428 42.8905 73.9393 43.4873 74.5927C44.0946 75.2461 44.5515 76.046 44.8581 76.9925C45.1751 77.9285 45.3364 78.9902 45.3421 80.1777C45.347 81.2194 45.1954 82.1993 44.8873 83.1174C44.5895 84.0251 44.1298 84.8346 43.5082 85.5459C42.8866 86.2468 42.1027 86.8026 41.1568 87.2133C40.2107 87.6137 39.0971 87.8169 37.8159 87.823C36.8471 87.8276 35.9142 87.6914 35.017 87.4144C34.1302 87.127 33.3314 86.7089 32.6204 86.1602C31.9094 85.6011 31.3384 84.9163 30.9075 84.1058C30.4869 83.2953 30.2533 82.3641 30.2067 81.3123L34.2847 81.2929C34.361 81.9904 34.5513 82.5833 34.8557 83.0714C35.1601 83.5595 35.5577 83.9327 36.0486 84.1907C36.5498 84.4488 37.1285 84.5762 37.7848 84.5731C38.3785 84.5703 38.8884 84.4585 39.3144 84.2377C39.7509 84.0064 40.1087 83.687 40.388 83.2794C40.6673 82.8719 40.8734 82.3917 41.0062 81.839C41.139 81.2863 41.2038 80.6818 41.2007 80.0255C41.1976 79.3901 41.1168 78.8124 40.958 78.2923C40.7993 77.7618 40.5575 77.3046 40.2327 76.9207C39.908 76.5369 39.5003 76.2419 39.0098 76.0359C38.5296 75.8299 37.9666 75.7284 37.3208 75.7315C36.4562 75.7356 35.7902 75.869 35.3227 76.1316C34.8656 76.3942 34.4608 76.7034 34.1083 77.0593ZM63.7361 84.1371L63.7516 87.387L48.3455 87.4604L48.3323 84.6791L55.6848 76.6597C56.4515 75.781 57.0572 75.0177 57.502 74.3697C57.9469 73.7218 58.2618 73.1369 58.4468 72.6152C58.6422 72.083 58.7388 71.5774 58.7365 71.0982C58.7332 70.4003 58.6053 69.7915 58.3528 69.2719C58.1003 68.7418 57.7337 68.3321 57.2532 68.0427C56.783 67.7533 56.2042 67.6102 55.5167 67.6135C54.7563 67.6171 54.1061 67.7973 53.5662 68.154C53.0366 68.5003 52.6326 68.9814 52.3543 69.5973C52.0864 70.2132 51.9543 70.917 51.9581 71.7086L47.8175 71.7283C47.8111 70.3846 48.1178 69.1592 48.7375 68.052C49.3572 66.9345 50.2488 66.0396 51.4122 65.3674C52.5757 64.6952 53.9595 64.3552 55.5637 64.3476C57.1262 64.3402 58.4503 64.5943 59.5361 65.11C60.6219 65.6152 61.4482 66.3404 62.0152 67.2857C62.5823 68.2309 62.8689 69.3598 62.8751 70.6722C62.8786 71.4014 62.7622 72.1207 62.526 72.8302C62.2898 73.5396 61.9546 74.2444 61.5205 74.9444C61.0966 75.6339 60.5896 76.3342 59.9992 77.0454C59.4088 77.7565 58.7508 78.4836 58.0252 79.2267L53.6112 84.1853L63.7361 84.1371ZM78.0016 64.3814L78.5641 64.3787L78.5799 67.7068L78.3143 67.7081C77.0539 67.7141 75.9455 67.9121 74.989 68.302C74.0429 68.692 73.2538 69.2374 72.6217 69.9383C72 70.6288 71.53 71.4488 71.2116 72.3982C70.8931 73.3372 70.7365 74.364 70.7419 75.4786L70.7594 79.1661C70.7635 80.0306 70.8557 80.7906 71.0359 81.446C71.2265 82.091 71.4843 82.6366 71.8093 83.083C72.1447 83.5189 72.5317 83.8452 72.9702 84.0618C73.4192 84.2785 73.9093 84.3855 74.4405 84.383C74.9718 84.3804 75.4504 84.2688 75.8765 84.048C76.3025 83.8272 76.6656 83.5182 76.9658 83.1209C77.2764 82.7132 77.5085 82.2381 77.6622 81.6957C77.8262 81.1533 77.9067 80.5591 77.9037 79.9133C77.9006 79.2779 77.8197 78.6897 77.6609 78.1488C77.5021 77.6079 77.2706 77.135 76.9666 76.7302C76.6626 76.315 76.2861 75.9991 75.8371 75.7825C75.3985 75.5554 74.898 75.4432 74.3355 75.4459C73.6063 75.4493 72.9561 75.6243 72.3848 75.9708C71.8135 76.3068 71.3625 76.7465 71.0317 77.2897C70.701 77.833 70.5214 78.4068 70.493 79.0111L69.0992 78.3302C69.147 77.4445 69.3307 76.6312 69.65 75.8901C69.9799 75.1489 70.4195 74.501 70.9689 73.9463C71.5288 73.3915 72.1882 72.9613 72.9472 72.6556C73.7166 72.3498 74.57 72.1947 75.5075 72.1902C76.5908 72.1851 77.5397 72.3889 78.3542 72.8017C79.1686 73.2041 79.8431 73.7582 80.3778 74.464C80.9228 75.1697 81.3329 75.9855 81.6082 76.9113C81.8834 77.8266 82.0234 78.7947 82.0283 79.8155C82.0335 80.9093 81.8612 81.9309 81.5116 82.8805C81.1724 83.8301 80.6763 84.6606 80.0234 85.372C79.3706 86.0835 78.5815 86.6393 77.6563 87.0396C76.7312 87.4398 75.6904 87.6427 74.5342 87.6482C73.3155 87.654 72.2206 87.43 71.2497 86.9763C70.2892 86.5225 69.4633 85.8911 68.7719 85.0818C68.0806 84.2726 67.55 83.3272 67.1803 82.2456C66.8105 81.164 66.6227 79.9931 66.6167 78.7327L66.6088 77.0764C66.6003 75.2952 66.8372 73.6378 67.3195 72.1042C67.8018 70.5707 68.5194 69.2287 69.4722 68.0783C70.4355 66.9175 71.6291 66.0159 73.0531 65.3737C74.4771 64.7211 76.1266 64.3903 78.0016 64.3814Z" fill="white"/>
<defs>
<linearGradient id="paint0_linear_6044_46512" x1="88.1235" y1="53.5" x2="87.8845" y2="134" gradientUnits="userSpaceOnUse">
<stop stop-color="#AF5353"/>
<stop offset="1" stop-color="#B15454" stop-opacity="0"/>
</linearGradient>
</defs>
</svg>
