<svg width="182" height="132" viewBox="0 0 182 132" fill="none" xmlns="http://www.w3.org/2000/svg">
<rect width="182" height="130" rx="6" fill="#FF4545"/>
<mask id="mask0_6044_46504" style="mask-type:alpha" maskUnits="userSpaceOnUse" x="0" y="-25" width="182" height="157">
<rect y="-25" width="182" height="157" rx="6" fill="#FF5A7A" fill-opacity="0.3"/>
</mask>
<g mask="url(#mask0_6044_46504)">
<path d="M21.9655 83L-14.1207 119L8.36778 174L190.368 180L185.138 67.5L177.293 60L162.126 67.5L149.052 53.5L120.287 74.5L115.057 60L93.6149 87L77.9252 67.5L47.5919 96L21.9655 83Z" fill="url(#paint0_linear_6044_46504)" stroke="white" stroke-opacity="0.3"/>
</g>
<path d="M10.518 21.114C10.518 20.162 10.7373 19.308 11.176 18.552C11.624 17.796 12.226 17.208 12.982 16.788C13.7473 16.3587 14.5827 16.144 15.488 16.144C16.524 16.144 17.4433 16.4007 18.246 16.914C19.058 17.418 19.646 18.1367 20.01 19.07H18.092C17.84 18.5567 17.49 18.174 17.042 17.922C16.594 17.67 16.076 17.544 15.488 17.544C14.844 17.544 14.27 17.6887 13.766 17.978C13.262 18.2673 12.8653 18.6827 12.576 19.224C12.296 19.7653 12.156 20.3953 12.156 21.114C12.156 21.8327 12.296 22.4627 12.576 23.004C12.8653 23.5453 13.262 23.9653 13.766 24.264C14.27 24.5533 14.844 24.698 15.488 24.698C16.076 24.698 16.594 24.572 17.042 24.32C17.49 24.068 17.84 23.6853 18.092 23.172H20.01C19.646 24.1053 19.058 24.824 18.246 25.328C17.4433 25.832 16.524 26.084 15.488 26.084C14.5733 26.084 13.738 25.874 12.982 25.454C12.226 25.0247 11.624 24.432 11.176 23.676C10.7373 22.92 10.518 22.066 10.518 21.114ZM28.8641 18.286V26H27.2681V25.09C27.0161 25.4073 26.6848 25.6593 26.2741 25.846C25.8728 26.0233 25.4435 26.112 24.9861 26.112C24.3795 26.112 23.8335 25.986 23.3481 25.734C22.8721 25.482 22.4941 25.1087 22.2141 24.614C21.9435 24.1193 21.8081 23.522 21.8081 22.822V18.286H23.3901V22.584C23.3901 23.2747 23.5628 23.8067 23.9081 24.18C24.2535 24.544 24.7248 24.726 25.3221 24.726C25.9195 24.726 26.3908 24.544 26.7361 24.18C27.0908 23.8067 27.2681 23.2747 27.2681 22.584V18.286H28.8641ZM33.7699 26.126C33.1633 26.126 32.6173 26.0187 32.1319 25.804C31.6559 25.58 31.2779 25.2813 30.9979 24.908C30.7179 24.5253 30.5686 24.1007 30.5499 23.634H32.2019C32.2299 23.9607 32.3839 24.236 32.6639 24.46C32.9533 24.6747 33.3126 24.782 33.7419 24.782C34.1899 24.782 34.5353 24.698 34.7779 24.53C35.0299 24.3527 35.1559 24.1287 35.1559 23.858C35.1559 23.5687 35.0159 23.354 34.7359 23.214C34.4653 23.074 34.0313 22.92 33.4339 22.752C32.8553 22.5933 32.3839 22.4393 32.0199 22.29C31.6559 22.1407 31.3386 21.912 31.0679 21.604C30.8066 21.296 30.6759 20.89 30.6759 20.386C30.6759 19.9753 30.7973 19.602 31.0399 19.266C31.2826 18.9207 31.6279 18.65 32.0759 18.454C32.5333 18.258 33.0559 18.16 33.6439 18.16C34.5213 18.16 35.2259 18.384 35.7579 18.832C36.2993 19.2707 36.5886 19.8727 36.6259 20.638H35.0299C35.0019 20.2927 34.8619 20.0173 34.6099 19.812C34.3579 19.6067 34.0173 19.504 33.5879 19.504C33.1679 19.504 32.8459 19.5833 32.6219 19.742C32.3979 19.9007 32.2859 20.1107 32.2859 20.372C32.2859 20.5773 32.3606 20.75 32.5099 20.89C32.6593 21.03 32.8413 21.142 33.0559 21.226C33.2706 21.3007 33.5879 21.3987 34.0079 21.52C34.5679 21.6693 35.0253 21.8233 35.3799 21.982C35.7439 22.1313 36.0566 22.3553 36.3179 22.654C36.5793 22.9527 36.7146 23.3493 36.7239 23.844C36.7239 24.2827 36.6026 24.6747 36.3599 25.02C36.1173 25.3653 35.7719 25.636 35.3239 25.832C34.8853 26.028 34.3673 26.126 33.7699 26.126ZM40.3104 19.588V23.858C40.3104 24.1473 40.3758 24.3573 40.5064 24.488C40.6464 24.6093 40.8798 24.67 41.2064 24.67H42.1864V26H40.9264C40.2078 26 39.6571 25.832 39.2744 25.496C38.8918 25.16 38.7004 24.614 38.7004 23.858V19.588H37.7904V18.286H38.7004V16.368H40.3104V18.286H42.1864V19.588H40.3104ZM47.0034 26.126C46.2754 26.126 45.6174 25.9627 45.0294 25.636C44.4414 25.3 43.9794 24.8333 43.6434 24.236C43.3074 23.6293 43.1394 22.9293 43.1394 22.136C43.1394 21.352 43.3121 20.6567 43.6574 20.05C44.0028 19.4433 44.4741 18.9767 45.0714 18.65C45.6688 18.3233 46.3361 18.16 47.0734 18.16C47.8108 18.16 48.4781 18.3233 49.0754 18.65C49.6728 18.9767 50.1441 19.4433 50.4894 20.05C50.8348 20.6567 51.0074 21.352 51.0074 22.136C51.0074 22.92 50.8301 23.6153 50.4754 24.222C50.1208 24.8287 49.6354 25.3 49.0194 25.636C48.4128 25.9627 47.7408 26.126 47.0034 26.126ZM47.0034 24.74C47.4141 24.74 47.7968 24.642 48.1514 24.446C48.5154 24.25 48.8094 23.956 49.0334 23.564C49.2574 23.172 49.3694 22.696 49.3694 22.136C49.3694 21.576 49.2621 21.1047 49.0474 20.722C48.8328 20.33 48.5481 20.036 48.1934 19.84C47.8388 19.644 47.4561 19.546 47.0454 19.546C46.6348 19.546 46.2521 19.644 45.8974 19.84C45.5521 20.036 45.2768 20.33 45.0714 20.722C44.8661 21.1047 44.7634 21.576 44.7634 22.136C44.7634 22.9667 44.9734 23.6107 45.3934 24.068C45.8228 24.516 46.3594 24.74 47.0034 24.74ZM61.9232 18.16C62.5298 18.16 63.0712 18.286 63.5472 18.538C64.0325 18.79 64.4105 19.1633 64.6812 19.658C64.9612 20.1527 65.1012 20.75 65.1012 21.45V26H63.5192V21.688C63.5192 20.9973 63.3465 20.47 63.0012 20.106C62.6558 19.7327 62.1845 19.546 61.5872 19.546C60.9898 19.546 60.5138 19.7327 60.1592 20.106C59.8138 20.47 59.6412 20.9973 59.6412 21.688V26H58.0592V21.688C58.0592 20.9973 57.8865 20.47 57.5412 20.106C57.1958 19.7327 56.7245 19.546 56.1272 19.546C55.5298 19.546 55.0538 19.7327 54.6992 20.106C54.3538 20.47 54.1812 20.9973 54.1812 21.688V26H52.5852V18.286H54.1812V19.168C54.4425 18.8507 54.7738 18.6033 55.1752 18.426C55.5765 18.2487 56.0058 18.16 56.4632 18.16C57.0792 18.16 57.6298 18.2907 58.1152 18.552C58.6005 18.8133 58.9738 19.1913 59.2352 19.686C59.4685 19.2193 59.8325 18.8507 60.3272 18.58C60.8218 18.3 61.3538 18.16 61.9232 18.16ZM74.202 21.954C74.202 22.2433 74.1834 22.5047 74.146 22.738H68.252C68.2987 23.354 68.5274 23.8487 68.938 24.222C69.3487 24.5953 69.8527 24.782 70.45 24.782C71.3087 24.782 71.9154 24.4227 72.27 23.704H73.992C73.7587 24.4133 73.334 24.9967 72.718 25.454C72.1114 25.902 71.3554 26.126 70.45 26.126C69.7127 26.126 69.05 25.9627 68.462 25.636C67.8834 25.3 67.426 24.8333 67.09 24.236C66.7634 23.6293 66.6 22.9293 66.6 22.136C66.6 21.3427 66.7587 20.6473 67.076 20.05C67.4027 19.4433 67.8554 18.9767 68.434 18.65C69.022 18.3233 69.694 18.16 70.45 18.16C71.178 18.16 71.8267 18.3187 72.396 18.636C72.9654 18.9533 73.4087 19.4013 73.726 19.98C74.0434 20.5493 74.202 21.2073 74.202 21.954ZM72.536 21.45C72.5267 20.862 72.3167 20.3907 71.906 20.036C71.4954 19.6813 70.9867 19.504 70.38 19.504C69.8294 19.504 69.358 19.6813 68.966 20.036C68.574 20.3813 68.3407 20.8527 68.266 21.45H72.536ZM77.3687 19.406C77.602 19.014 77.91 18.7107 78.2927 18.496C78.6847 18.272 79.1467 18.16 79.6787 18.16V19.812H79.2727C78.6473 19.812 78.1713 19.9707 77.8447 20.288C77.5273 20.6053 77.3687 21.156 77.3687 21.94V26H75.7727V18.286H77.3687V19.406ZM95.1424 18.286L92.7484 26H91.0684L89.5144 20.302L87.9604 26H86.2804L83.8724 18.286H85.4964L87.1064 24.488L88.7444 18.286H90.4104L91.9784 24.46L93.5744 18.286H95.1424ZM97.1472 17.264C96.8578 17.264 96.6152 17.166 96.4192 16.97C96.2232 16.774 96.1252 16.5313 96.1252 16.242C96.1252 15.9527 96.2232 15.71 96.4192 15.514C96.6152 15.318 96.8578 15.22 97.1472 15.22C97.4272 15.22 97.6652 15.318 97.8612 15.514C98.0572 15.71 98.1552 15.9527 98.1552 16.242C98.1552 16.5313 98.0572 16.774 97.8612 16.97C97.6652 17.166 97.4272 17.264 97.1472 17.264ZM97.9312 18.286V26H96.3352V18.286H97.9312ZM101.889 19.588V23.858C101.889 24.1473 101.954 24.3573 102.085 24.488C102.225 24.6093 102.458 24.67 102.785 24.67H103.765V26H102.505C101.786 26 101.235 25.832 100.853 25.496C100.47 25.16 100.279 24.614 100.279 23.858V19.588H99.3686V18.286H100.279V16.368H101.889V18.286H103.765V19.588H101.889ZM109.226 18.16C109.814 18.16 110.336 18.286 110.794 18.538C111.26 18.79 111.624 19.1633 111.886 19.658C112.156 20.1527 112.292 20.75 112.292 21.45V26H110.71V21.688C110.71 20.9973 110.537 20.47 110.192 20.106C109.846 19.7327 109.375 19.546 108.778 19.546C108.18 19.546 107.704 19.7327 107.35 20.106C107.004 20.47 106.832 20.9973 106.832 21.688V26H105.236V15.64H106.832V19.182C107.102 18.8553 107.443 18.6033 107.854 18.426C108.274 18.2487 108.731 18.16 109.226 18.16ZM117.673 26.126C116.945 26.126 116.287 25.9627 115.699 25.636C115.111 25.3 114.649 24.8333 114.313 24.236C113.977 23.6293 113.809 22.9293 113.809 22.136C113.809 21.352 113.982 20.6567 114.327 20.05C114.673 19.4433 115.144 18.9767 115.741 18.65C116.339 18.3233 117.006 18.16 117.743 18.16C118.481 18.16 119.148 18.3233 119.745 18.65C120.343 18.9767 120.814 19.4433 121.159 20.05C121.505 20.6567 121.677 21.352 121.677 22.136C121.677 22.92 121.5 23.6153 121.145 24.222C120.791 24.8287 120.305 25.3 119.689 25.636C119.083 25.9627 118.411 26.126 117.673 26.126ZM117.673 24.74C118.084 24.74 118.467 24.642 118.821 24.446C119.185 24.25 119.479 23.956 119.703 23.564C119.927 23.172 120.039 22.696 120.039 22.136C120.039 21.576 119.932 21.1047 119.717 20.722C119.503 20.33 119.218 20.036 118.863 19.84C118.509 19.644 118.126 19.546 117.715 19.546C117.305 19.546 116.922 19.644 116.567 19.84C116.222 20.036 115.947 20.33 115.741 20.722C115.536 21.1047 115.433 21.576 115.433 22.136C115.433 22.9667 115.643 23.6107 116.063 24.068C116.493 24.516 117.029 24.74 117.673 24.74ZM130.241 18.286V26H128.645V25.09C128.393 25.4073 128.062 25.6593 127.651 25.846C127.25 26.0233 126.82 26.112 126.363 26.112C125.756 26.112 125.21 25.986 124.725 25.734C124.249 25.482 123.871 25.1087 123.591 24.614C123.32 24.1193 123.185 23.522 123.185 22.822V18.286H124.767V22.584C124.767 23.2747 124.94 23.8067 125.285 24.18C125.63 24.544 126.102 24.726 126.699 24.726C127.296 24.726 127.768 24.544 128.113 24.18C128.468 23.8067 128.645 23.2747 128.645 22.584V18.286H130.241ZM134.209 19.588V23.858C134.209 24.1473 134.274 24.3573 134.405 24.488C134.545 24.6093 134.778 24.67 135.105 24.67H136.085V26H134.825C134.106 26 133.556 25.832 133.173 25.496C132.79 25.16 132.599 24.614 132.599 23.858V19.588H131.689V18.286H132.599V16.368H134.209V18.286H136.085V19.588H134.209ZM16.916 45.012H12.842L12.142 47H10.476L13.962 37.256H15.81L19.296 47H17.616L16.916 45.012ZM16.468 43.71L14.886 39.188L13.29 43.71H16.468ZM20.2797 43.136C20.2797 42.3427 20.4384 41.6473 20.7557 41.05C21.0824 40.4433 21.5304 39.9767 22.0997 39.65C22.6691 39.3233 23.3224 39.16 24.0597 39.16C24.9931 39.16 25.7631 39.384 26.3697 39.832C26.9857 40.2707 27.4011 40.9007 27.6157 41.722H25.8937C25.7537 41.3393 25.5297 41.0407 25.2217 40.826C24.9137 40.6113 24.5264 40.504 24.0597 40.504C23.4064 40.504 22.8837 40.7373 22.4917 41.204C22.1091 41.6613 21.9177 42.3053 21.9177 43.136C21.9177 43.9667 22.1091 44.6153 22.4917 45.082C22.8837 45.5487 23.4064 45.782 24.0597 45.782C24.9837 45.782 25.5951 45.376 25.8937 44.564H27.6157C27.3917 45.348 26.9717 45.9733 26.3557 46.44C25.7397 46.8973 24.9744 47.126 24.0597 47.126C23.3224 47.126 22.6691 46.9627 22.0997 46.636C21.5304 46.3 21.0824 45.8333 20.7557 45.236C20.4384 44.6293 20.2797 43.9293 20.2797 43.136ZM31.0683 40.588V44.858C31.0683 45.1473 31.1336 45.3573 31.2643 45.488C31.4043 45.6093 31.6376 45.67 31.9643 45.67H32.9443V47H31.6843C30.9656 47 30.4149 46.832 30.0323 46.496C29.6496 46.16 29.4583 45.614 29.4583 44.858V40.588H28.5483V39.286H29.4583V37.368H31.0683V39.286H32.9443V40.588H31.0683ZM35.2272 38.264C34.9379 38.264 34.6952 38.166 34.4992 37.97C34.3032 37.774 34.2052 37.5313 34.2052 37.242C34.2052 36.9527 34.3032 36.71 34.4992 36.514C34.6952 36.318 34.9379 36.22 35.2272 36.22C35.5072 36.22 35.7452 36.318 35.9412 36.514C36.1372 36.71 36.2352 36.9527 36.2352 37.242C36.2352 37.5313 36.1372 37.774 35.9412 37.97C35.7452 38.166 35.5072 38.264 35.2272 38.264ZM36.0112 39.286V47H34.4152V39.286H36.0112ZM41.0886 45.572L43.2726 39.286H44.9666L42.0266 47H40.1226L37.1966 39.286H38.9046L41.0886 45.572ZM53.243 42.954C53.243 43.2433 53.2244 43.5047 53.187 43.738H47.293C47.3397 44.354 47.5684 44.8487 47.979 45.222C48.3897 45.5953 48.8937 45.782 49.491 45.782C50.3497 45.782 50.9564 45.4227 51.311 44.704H53.033C52.7997 45.4133 52.375 45.9967 51.759 46.454C51.1524 46.902 50.3964 47.126 49.491 47.126C48.7537 47.126 48.091 46.9627 47.503 46.636C46.9244 46.3 46.467 45.8333 46.131 45.236C45.8044 44.6293 45.641 43.9293 45.641 43.136C45.641 42.3427 45.7997 41.6473 46.117 41.05C46.4437 40.4433 46.8964 39.9767 47.475 39.65C48.063 39.3233 48.735 39.16 49.491 39.16C50.219 39.16 50.8677 39.3187 51.437 39.636C52.0064 39.9533 52.4497 40.4013 52.767 40.98C53.0844 41.5493 53.243 42.2073 53.243 42.954ZM51.577 42.45C51.5677 41.862 51.3577 41.3907 50.947 41.036C50.5364 40.6813 50.0277 40.504 49.421 40.504C48.8704 40.504 48.399 40.6813 48.007 41.036C47.615 41.3813 47.3817 41.8527 47.307 42.45H51.577ZM61.6564 47.098C61.0031 47.098 60.4151 46.986 59.8924 46.762C59.3697 46.5287 58.9591 46.202 58.6604 45.782C58.3617 45.362 58.2124 44.872 58.2124 44.312H59.9204C59.9577 44.732 60.1211 45.0773 60.4104 45.348C60.7091 45.6187 61.1244 45.754 61.6564 45.754C62.2071 45.754 62.6364 45.6233 62.9444 45.362C63.2524 45.0913 63.4064 44.746 63.4064 44.326C63.4064 43.9993 63.3084 43.7333 63.1124 43.528C62.9257 43.3227 62.6877 43.164 62.3984 43.052C62.1184 42.94 61.7264 42.8187 61.2224 42.688C60.5877 42.52 60.0697 42.352 59.6684 42.184C59.2764 42.0067 58.9404 41.736 58.6604 41.372C58.3804 41.008 58.2404 40.5227 58.2404 39.916C58.2404 39.356 58.3804 38.866 58.6604 38.446C58.9404 38.026 59.3324 37.704 59.8364 37.48C60.3404 37.256 60.9237 37.144 61.5864 37.144C62.5291 37.144 63.2991 37.382 63.8964 37.858C64.5031 38.3247 64.8391 38.9687 64.9044 39.79H63.1404C63.1124 39.4353 62.9444 39.132 62.6364 38.88C62.3284 38.628 61.9224 38.502 61.4184 38.502C60.9611 38.502 60.5877 38.6187 60.2984 38.852C60.0091 39.0853 59.8644 39.4213 59.8644 39.86C59.8644 40.1587 59.9531 40.406 60.1304 40.602C60.3171 40.7887 60.5504 40.938 60.8304 41.05C61.1104 41.162 61.4931 41.2833 61.9784 41.414C62.6224 41.5913 63.1451 41.7687 63.5464 41.946C63.9571 42.1233 64.3024 42.3987 64.5824 42.772C64.8717 43.136 65.0164 43.626 65.0164 44.242C65.0164 44.7367 64.8811 45.2033 64.6104 45.642C64.3491 46.0807 63.9617 46.4353 63.4484 46.706C62.9444 46.9673 62.3471 47.098 61.6564 47.098ZM66.3676 43.136C66.3676 42.3427 66.5263 41.6473 66.8436 41.05C67.1703 40.4433 67.6183 39.9767 68.1876 39.65C68.7569 39.3233 69.4103 39.16 70.1476 39.16C71.0809 39.16 71.8509 39.384 72.4576 39.832C73.0736 40.2707 73.4889 40.9007 73.7036 41.722H71.9816C71.8416 41.3393 71.6176 41.0407 71.3096 40.826C71.0016 40.6113 70.6143 40.504 70.1476 40.504C69.4943 40.504 68.9716 40.7373 68.5796 41.204C68.1969 41.6613 68.0056 42.3053 68.0056 43.136C68.0056 43.9667 68.1969 44.6153 68.5796 45.082C68.9716 45.5487 69.4943 45.782 70.1476 45.782C71.0716 45.782 71.6829 45.376 71.9816 44.564H73.7036C73.4796 45.348 73.0596 45.9733 72.4436 46.44C71.8276 46.8973 71.0623 47.126 70.1476 47.126C69.4103 47.126 68.7569 46.9627 68.1876 46.636C67.6183 46.3 67.1703 45.8333 66.8436 45.236C66.5263 44.6293 66.3676 43.9293 66.3676 43.136ZM79.2841 39.16C79.8721 39.16 80.3948 39.286 80.8521 39.538C81.3188 39.79 81.6828 40.1633 81.9441 40.658C82.2148 41.1527 82.3501 41.75 82.3501 42.45V47H80.7681V42.688C80.7681 41.9973 80.5955 41.47 80.2501 41.106C79.9048 40.7327 79.4335 40.546 78.8361 40.546C78.2388 40.546 77.7628 40.7327 77.4081 41.106C77.0628 41.47 76.8901 41.9973 76.8901 42.688V47H75.2941V36.64H76.8901V40.182C77.1608 39.8553 77.5015 39.6033 77.9121 39.426C78.3321 39.2487 78.7895 39.16 79.2841 39.16ZM91.4559 42.954C91.4559 43.2433 91.4373 43.5047 91.3999 43.738H85.5059C85.5526 44.354 85.7813 44.8487 86.1919 45.222C86.6026 45.5953 87.1066 45.782 87.7039 45.782C88.5626 45.782 89.1693 45.4227 89.5239 44.704H91.2459C91.0126 45.4133 90.5879 45.9967 89.9719 46.454C89.3653 46.902 88.6093 47.126 87.7039 47.126C86.9666 47.126 86.3039 46.9627 85.7159 46.636C85.1373 46.3 84.6799 45.8333 84.3439 45.236C84.0173 44.6293 83.8539 43.9293 83.8539 43.136C83.8539 42.3427 84.0126 41.6473 84.3299 41.05C84.6566 40.4433 85.1093 39.9767 85.6879 39.65C86.2759 39.3233 86.9479 39.16 87.7039 39.16C88.4319 39.16 89.0806 39.3187 89.6499 39.636C90.2193 39.9533 90.6626 40.4013 90.9799 40.98C91.2973 41.5493 91.4559 42.2073 91.4559 42.954ZM89.7899 42.45C89.7806 41.862 89.5706 41.3907 89.1599 41.036C88.7493 40.6813 88.2406 40.504 87.6339 40.504C87.0833 40.504 86.6119 40.6813 86.2199 41.036C85.8279 41.3813 85.5946 41.8527 85.5199 42.45H89.7899ZM102.365 39.16C102.971 39.16 103.513 39.286 103.989 39.538C104.474 39.79 104.852 40.1633 105.123 40.658C105.403 41.1527 105.543 41.75 105.543 42.45V47H103.961V42.688C103.961 41.9973 103.788 41.47 103.443 41.106C103.097 40.7327 102.626 40.546 102.029 40.546C101.431 40.546 100.955 40.7327 100.601 41.106C100.255 41.47 100.083 41.9973 100.083 42.688V47H98.5006V42.688C98.5006 41.9973 98.3279 41.47 97.9826 41.106C97.6372 40.7327 97.1659 40.546 96.5686 40.546C95.9712 40.546 95.4952 40.7327 95.1406 41.106C94.7952 41.47 94.6226 41.9973 94.6226 42.688V47H93.0266V39.286H94.6226V40.168C94.8839 39.8507 95.2152 39.6033 95.6166 39.426C96.0179 39.2487 96.4472 39.16 96.9046 39.16C97.5206 39.16 98.0712 39.2907 98.5566 39.552C99.0419 39.8133 99.4152 40.1913 99.6766 40.686C99.9099 40.2193 100.274 39.8507 100.769 39.58C101.263 39.3 101.795 39.16 102.365 39.16ZM114.643 42.954C114.643 43.2433 114.625 43.5047 114.587 43.738H108.693C108.74 44.354 108.969 44.8487 109.379 45.222C109.79 45.5953 110.294 45.782 110.891 45.782C111.75 45.782 112.357 45.4227 112.711 44.704H114.433C114.2 45.4133 113.775 45.9967 113.159 46.454C112.553 46.902 111.797 47.126 110.891 47.126C110.154 47.126 109.491 46.9627 108.903 46.636C108.325 46.3 107.867 45.8333 107.531 45.236C107.205 44.6293 107.041 43.9293 107.041 43.136C107.041 42.3427 107.2 41.6473 107.517 41.05C107.844 40.4433 108.297 39.9767 108.875 39.65C109.463 39.3233 110.135 39.16 110.891 39.16C111.619 39.16 112.268 39.3187 112.837 39.636C113.407 39.9533 113.85 40.4013 114.167 40.98C114.485 41.5493 114.643 42.2073 114.643 42.954ZM112.977 42.45C112.968 41.862 112.758 41.3907 112.347 41.036C111.937 40.6813 111.428 40.504 110.821 40.504C110.271 40.504 109.799 40.6813 109.407 41.036C109.015 41.3813 108.782 41.8527 108.707 42.45H112.977Z" fill="white"/>
<path d="M102.193 106.25V104.794H105.105V115H103.495V106.25H102.193ZM112.785 107.16C112.682 106.731 112.496 106.409 112.225 106.194C111.954 105.979 111.576 105.872 111.091 105.872C110.354 105.872 109.803 106.157 109.439 106.726C109.075 107.286 108.884 108.219 108.865 109.526C109.108 109.115 109.462 108.798 109.929 108.574C110.396 108.35 110.9 108.238 111.441 108.238C112.057 108.238 112.598 108.373 113.065 108.644C113.541 108.905 113.91 109.288 114.171 109.792C114.442 110.296 114.577 110.898 114.577 111.598C114.577 112.251 114.446 112.835 114.185 113.348C113.933 113.861 113.555 114.267 113.051 114.566C112.547 114.855 111.94 115 111.231 115C110.27 115 109.514 114.79 108.963 114.37C108.422 113.941 108.039 113.339 107.815 112.564C107.6 111.789 107.493 110.823 107.493 109.666C107.493 106.25 108.697 104.542 111.105 104.542C112.038 104.542 112.771 104.794 113.303 105.298C113.844 105.802 114.162 106.423 114.255 107.16H112.785ZM111.091 109.582C110.522 109.582 110.036 109.755 109.635 110.1C109.243 110.436 109.047 110.926 109.047 111.57C109.047 112.214 109.229 112.727 109.593 113.11C109.966 113.483 110.484 113.67 111.147 113.67C111.735 113.67 112.197 113.488 112.533 113.124C112.878 112.76 113.051 112.275 113.051 111.668C113.051 111.033 112.883 110.529 112.547 110.156C112.22 109.773 111.735 109.582 111.091 109.582ZM116.279 109.764C116.279 108.149 116.55 106.889 117.091 105.984C117.642 105.069 118.585 104.612 119.919 104.612C121.254 104.612 122.192 105.069 122.733 105.984C123.284 106.889 123.559 108.149 123.559 109.764C123.559 111.397 123.284 112.676 122.733 113.6C122.192 114.515 121.254 114.972 119.919 114.972C118.585 114.972 117.642 114.515 117.091 113.6C116.55 112.676 116.279 111.397 116.279 109.764ZM121.991 109.764C121.991 109.008 121.94 108.369 121.837 107.846C121.744 107.323 121.548 106.899 121.249 106.572C120.951 106.236 120.507 106.068 119.919 106.068C119.331 106.068 118.888 106.236 118.589 106.572C118.291 106.899 118.09 107.323 117.987 107.846C117.894 108.369 117.847 109.008 117.847 109.764C117.847 110.548 117.894 111.206 117.987 111.738C118.081 112.27 118.277 112.699 118.575 113.026C118.883 113.353 119.331 113.516 119.919 113.516C120.507 113.516 120.951 113.353 121.249 113.026C121.557 112.699 121.758 112.27 121.851 111.738C121.945 111.206 121.991 110.548 121.991 109.764ZM135.381 105.27V106.572H132.791V115H131.195V106.572H128.591V105.27H135.381ZM140.343 115.126C139.615 115.126 138.957 114.963 138.369 114.636C137.781 114.3 137.319 113.833 136.983 113.236C136.647 112.629 136.479 111.929 136.479 111.136C136.479 110.352 136.652 109.657 136.997 109.05C137.343 108.443 137.814 107.977 138.411 107.65C139.009 107.323 139.676 107.16 140.413 107.16C141.151 107.16 141.818 107.323 142.415 107.65C143.013 107.977 143.484 108.443 143.829 109.05C144.175 109.657 144.347 110.352 144.347 111.136C144.347 111.92 144.17 112.615 143.815 113.222C143.461 113.829 142.975 114.3 142.359 114.636C141.753 114.963 141.081 115.126 140.343 115.126ZM140.343 113.74C140.754 113.74 141.137 113.642 141.491 113.446C141.855 113.25 142.149 112.956 142.373 112.564C142.597 112.172 142.709 111.696 142.709 111.136C142.709 110.576 142.602 110.105 142.387 109.722C142.173 109.33 141.888 109.036 141.533 108.84C141.179 108.644 140.796 108.546 140.385 108.546C139.975 108.546 139.592 108.644 139.237 108.84C138.892 109.036 138.617 109.33 138.411 109.722C138.206 110.105 138.103 110.576 138.103 111.136C138.103 111.967 138.313 112.611 138.733 113.068C139.163 113.516 139.699 113.74 140.343 113.74ZM145.393 111.108C145.393 110.333 145.552 109.647 145.869 109.05C146.196 108.453 146.634 107.991 147.185 107.664C147.745 107.328 148.366 107.16 149.047 107.16C149.551 107.16 150.046 107.272 150.531 107.496C151.026 107.711 151.418 108 151.707 108.364V104.64H153.317V115H151.707V113.838C151.446 114.211 151.082 114.519 150.615 114.762C150.158 115.005 149.63 115.126 149.033 115.126C148.361 115.126 147.745 114.958 147.185 114.622C146.634 114.277 146.196 113.801 145.869 113.194C145.552 112.578 145.393 111.883 145.393 111.108ZM151.707 111.136C151.707 110.604 151.595 110.142 151.371 109.75C151.156 109.358 150.872 109.059 150.517 108.854C150.162 108.649 149.78 108.546 149.369 108.546C148.958 108.546 148.576 108.649 148.221 108.854C147.866 109.05 147.577 109.344 147.353 109.736C147.138 110.119 147.031 110.576 147.031 111.108C147.031 111.64 147.138 112.107 147.353 112.508C147.577 112.909 147.866 113.217 148.221 113.432C148.585 113.637 148.968 113.74 149.369 113.74C149.78 113.74 150.162 113.637 150.517 113.432C150.872 113.227 151.156 112.928 151.371 112.536C151.595 112.135 151.707 111.668 151.707 111.136ZM154.881 111.108C154.881 110.333 155.04 109.647 155.357 109.05C155.684 108.453 156.123 107.991 156.673 107.664C157.233 107.328 157.849 107.16 158.521 107.16C159.128 107.16 159.655 107.281 160.103 107.524C160.561 107.757 160.925 108.051 161.195 108.406V107.286H162.805V115H161.195V113.852C160.925 114.216 160.556 114.519 160.089 114.762C159.623 115.005 159.091 115.126 158.493 115.126C157.831 115.126 157.224 114.958 156.673 114.622C156.123 114.277 155.684 113.801 155.357 113.194C155.04 112.578 154.881 111.883 154.881 111.108ZM161.195 111.136C161.195 110.604 161.083 110.142 160.859 109.75C160.645 109.358 160.36 109.059 160.005 108.854C159.651 108.649 159.268 108.546 158.857 108.546C158.447 108.546 158.064 108.649 157.709 108.854C157.355 109.05 157.065 109.344 156.841 109.736C156.627 110.119 156.519 110.576 156.519 111.108C156.519 111.64 156.627 112.107 156.841 112.508C157.065 112.909 157.355 113.217 157.709 113.432C158.073 113.637 158.456 113.74 158.857 113.74C159.268 113.74 159.651 113.637 160.005 113.432C160.36 113.227 160.645 112.928 160.859 112.536C161.083 112.135 161.195 111.668 161.195 111.136ZM171.846 107.286L167.114 118.626H165.462L167.03 114.874L163.992 107.286H165.77L167.94 113.166L170.194 107.286H171.846Z" fill="white"/>
<path d="M27.174 84.3111L27.1895 87.5611L11.7834 87.6344L11.7702 84.8532L19.1227 76.8337C19.8894 75.9551 20.4951 75.1918 20.94 74.5438C21.3848 73.8959 21.6997 73.311 21.8847 72.7893C22.0801 72.2571 22.1767 71.7514 22.1744 71.2723C22.1711 70.5744 22.0432 69.9656 21.7907 69.446C21.5382 68.9159 21.1716 68.5062 20.6911 68.2168C20.221 67.9274 19.6421 67.7843 18.9546 67.7876C18.1942 67.7912 17.5441 67.9714 17.0041 68.3281C16.4745 68.6744 16.0705 69.1555 15.7922 69.7714C15.5243 70.3873 15.3922 71.091 15.396 71.8827L11.2554 71.9024C11.249 70.5587 11.5557 69.3332 12.1754 68.2261C12.7951 67.1085 13.6867 66.2137 14.8502 65.5415C16.0136 64.8692 17.3975 64.5293 19.0016 64.5217C20.5641 64.5142 21.8882 64.7684 22.974 65.284C24.0598 65.7893 24.8862 66.5145 25.4532 67.4597C26.0202 68.405 26.3068 69.5338 26.313 70.8463C26.3165 71.5755 26.2001 72.2948 25.9639 73.0043C25.7277 73.7137 25.3925 74.4184 24.9584 75.1184C24.5346 75.808 24.0275 76.5083 23.4371 77.2195C22.8467 77.9306 22.1887 78.6577 21.4631 79.4008L17.0491 84.3593L27.174 84.3111ZM34.1083 77.0593L30.8077 76.2781L32.0186 64.7878L44.5341 64.7282L44.5504 68.1501L35.4568 68.1934L34.8883 73.5086C35.2103 73.3092 35.6781 73.109 36.2917 72.9082C36.9157 72.6969 37.6183 72.5894 38.3996 72.5857C39.4829 72.5805 40.4525 72.753 41.3083 73.1031C42.1641 73.4428 42.8905 73.9393 43.4873 74.5927C44.0946 75.2461 44.5515 76.046 44.8581 76.9925C45.1751 77.9285 45.3364 78.9902 45.3421 80.1777C45.347 81.2194 45.1954 82.1993 44.8873 83.1174C44.5895 84.0251 44.1298 84.8346 43.5082 85.5459C42.8866 86.2468 42.1027 86.8026 41.1568 87.2133C40.2107 87.6137 39.0971 87.8169 37.8159 87.823C36.8471 87.8276 35.9142 87.6914 35.017 87.4144C34.1302 87.127 33.3314 86.7089 32.6204 86.1602C31.9094 85.6011 31.3384 84.9163 30.9075 84.1058C30.4869 83.2953 30.2533 82.3641 30.2067 81.3123L34.2847 81.2929C34.361 81.9904 34.5513 82.5833 34.8557 83.0714C35.1601 83.5595 35.5577 83.9327 36.0486 84.1907C36.5498 84.4488 37.1285 84.5762 37.7848 84.5731C38.3785 84.5703 38.8884 84.4585 39.3144 84.2377C39.7509 84.0064 40.1087 83.687 40.388 83.2794C40.6673 82.8719 40.8734 82.3917 41.0062 81.839C41.139 81.2863 41.2038 80.6818 41.2007 80.0255C41.1976 79.3901 41.1168 78.8124 40.958 78.2923C40.7993 77.7618 40.5575 77.3046 40.2327 76.9207C39.908 76.5369 39.5003 76.2419 39.0098 76.0359C38.5296 75.8299 37.9666 75.7284 37.3208 75.7315C36.4562 75.7356 35.7902 75.869 35.3227 76.1316C34.8656 76.3942 34.4608 76.7034 34.1083 77.0593ZM63.4095 81.1698C63.4162 82.5865 63.0886 83.786 62.4266 84.7683C61.775 85.7402 60.8774 86.4788 59.734 86.9843C58.6009 87.4792 57.3104 87.7302 55.8625 87.7371C54.4251 87.7439 53.127 87.5053 51.9685 87.0212C50.8203 86.5267 49.9053 85.7967 49.2236 84.8311C48.5523 83.8552 48.2133 82.6589 48.2065 81.2422C48.202 80.2943 48.3854 79.434 48.7568 78.6614C49.1385 77.8888 49.6666 77.2248 50.341 76.6695C51.0154 76.1038 51.8155 75.6729 52.7412 75.3768C53.6668 75.0703 54.6765 74.9145 55.7702 74.9092C57.2285 74.9023 58.5319 75.1617 59.6802 75.6875C60.8389 76.2028 61.7487 76.9329 62.4094 77.8777C63.0701 78.812 63.4035 79.9094 63.4095 81.1698ZM59.2521 80.9396C59.2486 80.2105 59.0998 79.5809 58.8056 79.0511C58.5218 78.5108 58.1188 78.096 57.5965 77.8068C57.0743 77.5176 56.4695 77.3747 55.782 77.378C55.0841 77.3813 54.4754 77.53 53.956 77.8242C53.4469 78.1183 53.0479 78.5368 52.7588 79.0799C52.4801 79.6125 52.3425 80.2433 52.3459 80.9725C52.3494 81.7121 52.4931 82.3468 52.7769 82.8767C53.071 83.3962 53.4792 83.7953 54.0013 84.074C54.5235 84.3528 55.1387 84.4905 55.8471 84.4871C56.5554 84.4837 57.1641 84.3402 57.6732 84.0565C58.1822 83.7729 58.571 83.37 58.8393 82.8478C59.118 82.3153 59.2556 81.6792 59.2521 80.9396ZM62.8594 70.6411C62.8648 71.7869 62.5676 72.8092 61.9677 73.7079C61.3678 74.5961 60.5325 75.2928 59.462 75.7979C58.4019 76.303 57.1843 76.5588 55.8094 76.5653C54.4344 76.5719 53.204 76.3277 52.1183 75.8329C51.043 75.338 50.196 74.6493 49.5772 73.7668C48.9688 72.8739 48.6618 71.8545 48.6564 70.7087C48.6499 69.3545 48.9518 68.2073 49.5619 67.2668C50.172 66.316 51.0071 65.5933 52.0672 65.0986C53.1378 64.604 54.3554 64.3534 55.7199 64.3469C57.1053 64.3403 58.3357 64.5792 59.4109 65.0637C60.4861 65.5481 61.3281 66.2629 61.9368 67.2079C62.5454 68.1425 62.8529 69.2869 62.8594 70.6411ZM58.7352 70.8326C58.7321 70.1868 58.6097 69.6248 58.3678 69.1468C58.1259 68.6584 57.7804 68.2798 57.3311 68.0111C56.8924 67.7424 56.3605 67.6095 55.7355 67.6125C55.1313 67.6153 54.6111 67.748 54.1749 68.0105C53.7386 68.273 53.4019 68.6496 53.1646 69.1403C52.9273 69.6206 52.8102 70.1941 52.8134 70.8608C52.8165 71.517 52.9391 72.0894 53.181 72.5778C53.4229 73.0662 53.7633 73.45 54.2021 73.7292C54.6513 73.9979 55.1832 74.1308 55.7978 74.1279C56.4123 74.1249 56.9377 73.987 57.3739 73.7141C57.8101 73.4308 58.1468 73.0437 58.384 72.553C58.6213 72.0623 58.7383 71.4888 58.7352 70.8326Z" fill="white"/>
<defs>
<linearGradient id="paint0_linear_6044_46504" x1="88.1235" y1="53.5" x2="87.8845" y2="134" gradientUnits="userSpaceOnUse">
<stop stop-color="#AF5353"/>
<stop offset="0.0001" stop-color="white"/>
<stop offset="1" stop-color="#B15454" stop-opacity="0"/>
</linearGradient>
</defs>
</svg>
