<svg width="182" height="132" viewBox="0 0 182 132" fill="none" xmlns="http://www.w3.org/2000/svg">
<rect width="182" height="130" rx="6" fill="#B200C1"/>
<mask id="mask0_6044_46520" style="mask-type:alpha" maskUnits="userSpaceOnUse" x="0" y="-25" width="182" height="157">
<rect y="-25" width="182" height="157" rx="6" fill="#FF5A7A" fill-opacity="0.3"/>
</mask>
<g mask="url(#mask0_6044_46520)">
<path d="M21.9655 83L-14.1207 119L8.36784 174L190.368 180L185.138 67.5L177.293 60L162.126 67.5L149.052 53.5L120.287 74.5L115.057 60L93.615 87L77.9253 67.5L47.592 96L21.9655 83Z" fill="url(#paint0_linear_6044_46520)" stroke="white" stroke-opacity="0.3"/>
</g>
<path d="M14.228 16.27C15.264 16.27 16.1693 16.4707 16.944 16.872C17.728 17.264 18.33 17.8333 18.75 18.58C19.1793 19.3173 19.394 20.1807 19.394 21.17C19.394 22.1593 19.1793 23.018 18.75 23.746C18.33 24.474 17.728 25.034 16.944 25.426C16.1693 25.8087 15.264 26 14.228 26H11.05V16.27H14.228ZM14.228 24.698C15.3667 24.698 16.2393 24.39 16.846 23.774C17.4527 23.158 17.756 22.29 17.756 21.17C17.756 20.0407 17.4527 19.1587 16.846 18.524C16.2393 17.8893 15.3667 17.572 14.228 17.572H12.646V24.698H14.228ZM20.7378 18.314C20.7938 17.446 21.1251 16.7693 21.7318 16.284C22.3478 15.7987 23.1318 15.556 24.0838 15.556C24.7371 15.556 25.3018 15.6727 25.7778 15.906C26.2538 16.1393 26.6131 16.4567 26.8558 16.858C27.0984 17.2593 27.2198 17.712 27.2198 18.216C27.2198 18.7947 27.0658 19.2893 26.7578 19.7C26.4498 20.1107 26.0811 20.386 25.6518 20.526V20.582C26.2024 20.75 26.6318 21.058 26.9398 21.506C27.2478 21.9447 27.4018 22.5093 27.4018 23.2C27.4018 23.7507 27.2758 24.2407 27.0238 24.67C26.7718 25.0993 26.3984 25.44 25.9038 25.692C25.4091 25.9347 24.8164 26.056 24.1258 26.056C23.1178 26.056 22.2871 25.7993 21.6338 25.286C20.9898 24.7633 20.6444 24.0167 20.5978 23.046H22.1378C22.1751 23.5407 22.3664 23.9467 22.7118 24.264C23.0571 24.572 23.5238 24.726 24.1118 24.726C24.6811 24.726 25.1198 24.572 25.4278 24.264C25.7358 23.9467 25.8898 23.5407 25.8898 23.046C25.8898 22.3927 25.6798 21.9307 25.2598 21.66C24.8491 21.38 24.2144 21.24 23.3558 21.24H22.9918V19.924H23.3698C24.1258 19.9147 24.6998 19.7887 25.0918 19.546C25.4931 19.3033 25.6938 18.9207 25.6938 18.398C25.6938 17.95 25.5491 17.5953 25.2598 17.334C24.9704 17.0633 24.5598 16.928 24.0278 16.928C23.5051 16.928 23.0991 17.0633 22.8098 17.334C22.5204 17.5953 22.3478 17.922 22.2918 18.314H20.7378ZM29.0783 20.764C29.0783 19.1493 29.3489 17.8893 29.8903 16.984C30.4409 16.0693 31.3836 15.612 32.7183 15.612C34.0529 15.612 34.9909 16.0693 35.5323 16.984C36.0829 17.8893 36.3583 19.1493 36.3583 20.764C36.3583 22.3973 36.0829 23.676 35.5323 24.6C34.9909 25.5147 34.0529 25.972 32.7183 25.972C31.3836 25.972 30.4409 25.5147 29.8903 24.6C29.3489 23.676 29.0783 22.3973 29.0783 20.764ZM34.7903 20.764C34.7903 20.008 34.7389 19.3687 34.6363 18.846C34.5429 18.3233 34.3469 17.8987 34.0483 17.572C33.7496 17.236 33.3063 17.068 32.7183 17.068C32.1303 17.068 31.6869 17.236 31.3883 17.572C31.0896 17.8987 30.8889 18.3233 30.7863 18.846C30.6929 19.3687 30.6463 20.008 30.6463 20.764C30.6463 21.548 30.6929 22.206 30.7863 22.738C30.8796 23.27 31.0756 23.6993 31.3743 24.026C31.6823 24.3527 32.1303 24.516 32.7183 24.516C33.3063 24.516 33.7496 24.3527 34.0483 24.026C34.3563 23.6993 34.5569 23.27 34.6503 22.738C34.7436 22.206 34.7903 21.548 34.7903 20.764ZM41.3618 21.114C41.3618 20.162 41.5811 19.308 42.0198 18.552C42.4678 17.796 43.0698 17.208 43.8258 16.788C44.5911 16.3587 45.4264 16.144 46.3318 16.144C47.3678 16.144 48.2871 16.4007 49.0898 16.914C49.9018 17.418 50.4898 18.1367 50.8538 19.07H48.9358C48.6838 18.5567 48.3338 18.174 47.8858 17.922C47.4378 17.67 46.9198 17.544 46.3318 17.544C45.6878 17.544 45.1138 17.6887 44.6098 17.978C44.1058 18.2673 43.7091 18.6827 43.4198 19.224C43.1398 19.7653 42.9998 20.3953 42.9998 21.114C42.9998 21.8327 43.1398 22.4627 43.4198 23.004C43.7091 23.5453 44.1058 23.9653 44.6098 24.264C45.1138 24.5533 45.6878 24.698 46.3318 24.698C46.9198 24.698 47.4378 24.572 47.8858 24.32C48.3338 24.068 48.6838 23.6853 48.9358 23.172H50.8538C50.4898 24.1053 49.9018 24.824 49.0898 25.328C48.2871 25.832 47.3678 26.084 46.3318 26.084C45.4171 26.084 44.5818 25.874 43.8258 25.454C43.0698 25.0247 42.4678 24.432 42.0198 23.676C41.5811 22.92 41.3618 22.066 41.3618 21.114ZM59.7079 18.286V26H58.1119V25.09C57.8599 25.4073 57.5285 25.6593 57.1179 25.846C56.7165 26.0233 56.2872 26.112 55.8299 26.112C55.2232 26.112 54.6772 25.986 54.1919 25.734C53.7159 25.482 53.3379 25.1087 53.0579 24.614C52.7872 24.1193 52.6519 23.522 52.6519 22.822V18.286H54.2339V22.584C54.2339 23.2747 54.4065 23.8067 54.7519 24.18C55.0972 24.544 55.5685 24.726 56.1659 24.726C56.7632 24.726 57.2345 24.544 57.5799 24.18C57.9345 23.8067 58.1119 23.2747 58.1119 22.584V18.286H59.7079ZM64.6137 26.126C64.007 26.126 63.461 26.0187 62.9757 25.804C62.4997 25.58 62.1217 25.2813 61.8417 24.908C61.5617 24.5253 61.4123 24.1007 61.3937 23.634H63.0457C63.0737 23.9607 63.2277 24.236 63.5077 24.46C63.797 24.6747 64.1563 24.782 64.5857 24.782C65.0337 24.782 65.379 24.698 65.6217 24.53C65.8737 24.3527 65.9997 24.1287 65.9997 23.858C65.9997 23.5687 65.8597 23.354 65.5797 23.214C65.309 23.074 64.875 22.92 64.2777 22.752C63.699 22.5933 63.2277 22.4393 62.8637 22.29C62.4997 22.1407 62.1823 21.912 61.9117 21.604C61.6503 21.296 61.5197 20.89 61.5197 20.386C61.5197 19.9753 61.641 19.602 61.8837 19.266C62.1263 18.9207 62.4717 18.65 62.9197 18.454C63.377 18.258 63.8997 18.16 64.4877 18.16C65.365 18.16 66.0697 18.384 66.6017 18.832C67.143 19.2707 67.4323 19.8727 67.4697 20.638H65.8737C65.8457 20.2927 65.7057 20.0173 65.4537 19.812C65.2017 19.6067 64.861 19.504 64.4317 19.504C64.0117 19.504 63.6897 19.5833 63.4657 19.742C63.2417 19.9007 63.1297 20.1107 63.1297 20.372C63.1297 20.5773 63.2043 20.75 63.3537 20.89C63.503 21.03 63.685 21.142 63.8997 21.226C64.1143 21.3007 64.4317 21.3987 64.8517 21.52C65.4117 21.6693 65.869 21.8233 66.2237 21.982C66.5877 22.1313 66.9003 22.3553 67.1617 22.654C67.423 22.9527 67.5583 23.3493 67.5677 23.844C67.5677 24.2827 67.4463 24.6747 67.2037 25.02C66.961 25.3653 66.6157 25.636 66.1677 25.832C65.729 26.028 65.211 26.126 64.6137 26.126ZM71.1542 19.588V23.858C71.1542 24.1473 71.2195 24.3573 71.3502 24.488C71.4902 24.6093 71.7235 24.67 72.0502 24.67H73.0302V26H71.7702C71.0515 26 70.5009 25.832 70.1182 25.496C69.7355 25.16 69.5442 24.614 69.5442 23.858V19.588H68.6342V18.286H69.5442V16.368H71.1542V18.286H73.0302V19.588H71.1542ZM77.8472 26.126C77.1192 26.126 76.4612 25.9627 75.8732 25.636C75.2852 25.3 74.8232 24.8333 74.4872 24.236C74.1512 23.6293 73.9832 22.9293 73.9832 22.136C73.9832 21.352 74.1558 20.6567 74.5012 20.05C74.8465 19.4433 75.3178 18.9767 75.9152 18.65C76.5125 18.3233 77.1798 18.16 77.9172 18.16C78.6545 18.16 79.3218 18.3233 79.9192 18.65C80.5165 18.9767 80.9878 19.4433 81.3332 20.05C81.6785 20.6567 81.8512 21.352 81.8512 22.136C81.8512 22.92 81.6738 23.6153 81.3192 24.222C80.9645 24.8287 80.4792 25.3 79.8632 25.636C79.2565 25.9627 78.5845 26.126 77.8472 26.126ZM77.8472 24.74C78.2578 24.74 78.6405 24.642 78.9952 24.446C79.3592 24.25 79.6532 23.956 79.8772 23.564C80.1012 23.172 80.2132 22.696 80.2132 22.136C80.2132 21.576 80.1058 21.1047 79.8912 20.722C79.6765 20.33 79.3918 20.036 79.0372 19.84C78.6825 19.644 78.2998 19.546 77.8892 19.546C77.4785 19.546 77.0958 19.644 76.7412 19.84C76.3958 20.036 76.1205 20.33 75.9152 20.722C75.7098 21.1047 75.6072 21.576 75.6072 22.136C75.6072 22.9667 75.8172 23.6107 76.2372 24.068C76.6665 24.516 77.2032 24.74 77.8472 24.74ZM92.7669 18.16C93.3736 18.16 93.9149 18.286 94.3909 18.538C94.8762 18.79 95.2542 19.1633 95.5249 19.658C95.8049 20.1527 95.9449 20.75 95.9449 21.45V26H94.3629V21.688C94.3629 20.9973 94.1902 20.47 93.8449 20.106C93.4996 19.7327 93.0282 19.546 92.4309 19.546C91.8336 19.546 91.3576 19.7327 91.0029 20.106C90.6576 20.47 90.4849 20.9973 90.4849 21.688V26H88.9029V21.688C88.9029 20.9973 88.7302 20.47 88.3849 20.106C88.0396 19.7327 87.5682 19.546 86.9709 19.546C86.3736 19.546 85.8976 19.7327 85.5429 20.106C85.1976 20.47 85.0249 20.9973 85.0249 21.688V26H83.4289V18.286H85.0249V19.168C85.2862 18.8507 85.6176 18.6033 86.0189 18.426C86.4202 18.2487 86.8496 18.16 87.3069 18.16C87.9229 18.16 88.4736 18.2907 88.9589 18.552C89.4442 18.8133 89.8176 19.1913 90.0789 19.686C90.3122 19.2193 90.6762 18.8507 91.1709 18.58C91.6656 18.3 92.1976 18.16 92.7669 18.16ZM105.046 21.954C105.046 22.2433 105.027 22.5047 104.99 22.738H99.0958C99.1424 23.354 99.3711 23.8487 99.7818 24.222C100.192 24.5953 100.696 24.782 101.294 24.782C102.152 24.782 102.759 24.4227 103.114 23.704H104.836C104.602 24.4133 104.178 24.9967 103.562 25.454C102.955 25.902 102.199 26.126 101.294 26.126C100.556 26.126 99.8938 25.9627 99.3058 25.636C98.7271 25.3 98.2698 24.8333 97.9338 24.236C97.6071 23.6293 97.4438 22.9293 97.4438 22.136C97.4438 21.3427 97.6024 20.6473 97.9198 20.05C98.2464 19.4433 98.6991 18.9767 99.2778 18.65C99.8658 18.3233 100.538 18.16 101.294 18.16C102.022 18.16 102.67 18.3187 103.24 18.636C103.809 18.9533 104.252 19.4013 104.57 19.98C104.887 20.5493 105.046 21.2073 105.046 21.954ZM103.38 21.45C103.37 20.862 103.16 20.3907 102.75 20.036C102.339 19.6813 101.83 19.504 101.224 19.504C100.673 19.504 100.202 19.6813 99.8098 20.036C99.4178 20.3813 99.1844 20.8527 99.1098 21.45H103.38ZM108.212 19.406C108.446 19.014 108.754 18.7107 109.136 18.496C109.528 18.272 109.99 18.16 110.522 18.16V19.812H110.116C109.491 19.812 109.015 19.9707 108.688 20.288C108.371 20.6053 108.212 21.156 108.212 21.94V26H106.616V18.286H108.212V19.406ZM114.789 26.126C114.183 26.126 113.637 26.0187 113.151 25.804C112.675 25.58 112.297 25.2813 112.017 24.908C111.737 24.5253 111.588 24.1007 111.569 23.634H113.221C113.249 23.9607 113.403 24.236 113.683 24.46C113.973 24.6747 114.332 24.782 114.761 24.782C115.209 24.782 115.555 24.698 115.797 24.53C116.049 24.3527 116.175 24.1287 116.175 23.858C116.175 23.5687 116.035 23.354 115.755 23.214C115.485 23.074 115.051 22.92 114.453 22.752C113.875 22.5933 113.403 22.4393 113.039 22.29C112.675 22.1407 112.358 21.912 112.087 21.604C111.826 21.296 111.695 20.89 111.695 20.386C111.695 19.9753 111.817 19.602 112.059 19.266C112.302 18.9207 112.647 18.65 113.095 18.454C113.553 18.258 114.075 18.16 114.663 18.16C115.541 18.16 116.245 18.384 116.777 18.832C117.319 19.2707 117.608 19.8727 117.645 20.638H116.049C116.021 20.2927 115.881 20.0173 115.629 19.812C115.377 19.6067 115.037 19.504 114.607 19.504C114.187 19.504 113.865 19.5833 113.641 19.742C113.417 19.9007 113.305 20.1107 113.305 20.372C113.305 20.5773 113.38 20.75 113.529 20.89C113.679 21.03 113.861 21.142 114.075 21.226C114.29 21.3007 114.607 21.3987 115.027 21.52C115.587 21.6693 116.045 21.8233 116.399 21.982C116.763 22.1313 117.076 22.3553 117.337 22.654C117.599 22.9527 117.734 23.3493 117.743 23.844C117.743 24.2827 117.622 24.6747 117.379 25.02C117.137 25.3653 116.791 25.636 116.343 25.832C115.905 26.028 115.387 26.126 114.789 26.126Z" fill="white"/>
<path d="M102.193 106.25V104.794H105.105V115H103.495V106.25H102.193ZM112.785 107.16C112.682 106.731 112.496 106.409 112.225 106.194C111.954 105.979 111.576 105.872 111.091 105.872C110.354 105.872 109.803 106.157 109.439 106.726C109.075 107.286 108.884 108.219 108.865 109.526C109.108 109.115 109.462 108.798 109.929 108.574C110.396 108.35 110.9 108.238 111.441 108.238C112.057 108.238 112.598 108.373 113.065 108.644C113.541 108.905 113.91 109.288 114.171 109.792C114.442 110.296 114.577 110.898 114.577 111.598C114.577 112.251 114.446 112.835 114.185 113.348C113.933 113.861 113.555 114.267 113.051 114.566C112.547 114.855 111.94 115 111.231 115C110.27 115 109.514 114.79 108.963 114.37C108.422 113.941 108.039 113.339 107.815 112.564C107.6 111.789 107.493 110.823 107.493 109.666C107.493 106.25 108.697 104.542 111.105 104.542C112.038 104.542 112.771 104.794 113.303 105.298C113.844 105.802 114.162 106.423 114.255 107.16H112.785ZM111.091 109.582C110.522 109.582 110.036 109.755 109.635 110.1C109.243 110.436 109.047 110.926 109.047 111.57C109.047 112.214 109.229 112.727 109.593 113.11C109.966 113.483 110.484 113.67 111.147 113.67C111.735 113.67 112.197 113.488 112.533 113.124C112.878 112.76 113.051 112.275 113.051 111.668C113.051 111.033 112.883 110.529 112.547 110.156C112.22 109.773 111.735 109.582 111.091 109.582ZM116.279 109.764C116.279 108.149 116.55 106.889 117.091 105.984C117.642 105.069 118.585 104.612 119.919 104.612C121.254 104.612 122.192 105.069 122.733 105.984C123.284 106.889 123.559 108.149 123.559 109.764C123.559 111.397 123.284 112.676 122.733 113.6C122.192 114.515 121.254 114.972 119.919 114.972C118.585 114.972 117.642 114.515 117.091 113.6C116.55 112.676 116.279 111.397 116.279 109.764ZM121.991 109.764C121.991 109.008 121.94 108.369 121.837 107.846C121.744 107.323 121.548 106.899 121.249 106.572C120.951 106.236 120.507 106.068 119.919 106.068C119.331 106.068 118.888 106.236 118.589 106.572C118.291 106.899 118.09 107.323 117.987 107.846C117.894 108.369 117.847 109.008 117.847 109.764C117.847 110.548 117.894 111.206 117.987 111.738C118.081 112.27 118.277 112.699 118.575 113.026C118.883 113.353 119.331 113.516 119.919 113.516C120.507 113.516 120.951 113.353 121.249 113.026C121.557 112.699 121.758 112.27 121.851 111.738C121.945 111.206 121.991 110.548 121.991 109.764ZM135.381 105.27V106.572H132.791V115H131.195V106.572H128.591V105.27H135.381ZM140.343 115.126C139.615 115.126 138.957 114.963 138.369 114.636C137.781 114.3 137.319 113.833 136.983 113.236C136.647 112.629 136.479 111.929 136.479 111.136C136.479 110.352 136.652 109.657 136.997 109.05C137.343 108.443 137.814 107.977 138.411 107.65C139.009 107.323 139.676 107.16 140.413 107.16C141.151 107.16 141.818 107.323 142.415 107.65C143.013 107.977 143.484 108.443 143.829 109.05C144.175 109.657 144.347 110.352 144.347 111.136C144.347 111.92 144.17 112.615 143.815 113.222C143.461 113.829 142.975 114.3 142.359 114.636C141.753 114.963 141.081 115.126 140.343 115.126ZM140.343 113.74C140.754 113.74 141.137 113.642 141.491 113.446C141.855 113.25 142.149 112.956 142.373 112.564C142.597 112.172 142.709 111.696 142.709 111.136C142.709 110.576 142.602 110.105 142.387 109.722C142.173 109.33 141.888 109.036 141.533 108.84C141.179 108.644 140.796 108.546 140.385 108.546C139.975 108.546 139.592 108.644 139.237 108.84C138.892 109.036 138.617 109.33 138.411 109.722C138.206 110.105 138.103 110.576 138.103 111.136C138.103 111.967 138.313 112.611 138.733 113.068C139.163 113.516 139.699 113.74 140.343 113.74ZM145.393 111.108C145.393 110.333 145.552 109.647 145.869 109.05C146.196 108.453 146.634 107.991 147.185 107.664C147.745 107.328 148.366 107.16 149.047 107.16C149.551 107.16 150.046 107.272 150.531 107.496C151.026 107.711 151.418 108 151.707 108.364V104.64H153.317V115H151.707V113.838C151.446 114.211 151.082 114.519 150.615 114.762C150.158 115.005 149.63 115.126 149.033 115.126C148.361 115.126 147.745 114.958 147.185 114.622C146.634 114.277 146.196 113.801 145.869 113.194C145.552 112.578 145.393 111.883 145.393 111.108ZM151.707 111.136C151.707 110.604 151.595 110.142 151.371 109.75C151.156 109.358 150.872 109.059 150.517 108.854C150.162 108.649 149.78 108.546 149.369 108.546C148.958 108.546 148.576 108.649 148.221 108.854C147.866 109.05 147.577 109.344 147.353 109.736C147.138 110.119 147.031 110.576 147.031 111.108C147.031 111.64 147.138 112.107 147.353 112.508C147.577 112.909 147.866 113.217 148.221 113.432C148.585 113.637 148.968 113.74 149.369 113.74C149.78 113.74 150.162 113.637 150.517 113.432C150.872 113.227 151.156 112.928 151.371 112.536C151.595 112.135 151.707 111.668 151.707 111.136ZM154.881 111.108C154.881 110.333 155.04 109.647 155.357 109.05C155.684 108.453 156.123 107.991 156.673 107.664C157.233 107.328 157.849 107.16 158.521 107.16C159.128 107.16 159.655 107.281 160.103 107.524C160.561 107.757 160.925 108.051 161.195 108.406V107.286H162.805V115H161.195V113.852C160.925 114.216 160.556 114.519 160.089 114.762C159.623 115.005 159.091 115.126 158.493 115.126C157.831 115.126 157.224 114.958 156.673 114.622C156.123 114.277 155.684 113.801 155.357 113.194C155.04 112.578 154.881 111.883 154.881 111.108ZM161.195 111.136C161.195 110.604 161.083 110.142 160.859 109.75C160.645 109.358 160.36 109.059 160.005 108.854C159.651 108.649 159.268 108.546 158.857 108.546C158.447 108.546 158.064 108.649 157.709 108.854C157.355 109.05 157.065 109.344 156.841 109.736C156.627 110.119 156.519 110.576 156.519 111.108C156.519 111.64 156.627 112.107 156.841 112.508C157.065 112.909 157.355 113.217 157.709 113.432C158.073 113.637 158.456 113.74 158.857 113.74C159.268 113.74 159.651 113.637 160.005 113.432C160.36 113.227 160.645 112.928 160.859 112.536C161.083 112.135 161.195 111.668 161.195 111.136ZM171.846 107.286L167.114 118.626H165.462L167.03 114.874L163.992 107.286H165.77L167.94 113.166L170.194 107.286H171.846Z" fill="white"/>
<path d="M27.174 84.3082L27.1895 87.5582L11.7834 87.6315L11.7702 84.8503L19.1227 76.8308C19.8894 75.9521 20.4951 75.1888 20.94 74.5409C21.3848 73.8929 21.6997 73.3081 21.8847 72.7864C22.0801 72.2542 22.1767 71.7485 22.1744 71.2693C22.1711 70.5714 22.0432 69.9627 21.7907 69.443C21.5382 68.913 21.1716 68.5033 20.6911 68.2139C20.221 67.9244 19.6421 67.7814 18.9546 67.7846C18.1942 67.7883 17.5441 67.9684 17.0041 68.3252C16.4745 68.6714 16.0705 69.1525 15.7922 69.7685C15.5243 70.3843 15.3922 71.0881 15.396 71.8797L11.2554 71.8995C11.249 70.5557 11.5557 69.3303 12.1754 68.2232C12.7951 67.1056 13.6867 66.2107 14.8502 65.5385C16.0136 64.8663 17.3975 64.5264 19.0016 64.5187C20.5641 64.5113 21.8882 64.7654 22.974 65.2811C24.0598 65.7863 24.8862 66.5116 25.4532 67.4568C26.0202 68.402 26.3068 69.5309 26.313 70.8434C26.3165 71.5725 26.2001 72.2919 25.9639 73.0013C25.7277 73.7108 25.3925 74.4155 24.9584 75.1155C24.5346 75.805 24.0275 76.5054 23.4371 77.2165C22.8467 77.9277 22.1887 78.6548 21.4631 79.3978L17.0491 84.3564L27.174 84.3082ZM34.1083 77.0563L30.8077 76.2752L32.0186 64.7849L44.5341 64.7253L44.5504 68.1472L35.4568 68.1904L34.8883 73.5057C35.2103 73.3063 35.6781 73.1061 36.2917 72.9053C36.9157 72.694 37.6183 72.5865 38.3996 72.5827C39.4829 72.5776 40.4525 72.75 41.3083 73.1001C42.1641 73.4398 42.8905 73.9364 43.4873 74.5898C44.0946 75.2432 44.5515 76.0431 44.8581 76.9895C45.1751 77.9255 45.3364 78.9873 45.3421 80.1748C45.347 81.2164 45.1954 82.1963 44.8873 83.1145C44.5895 84.0221 44.1298 84.8316 43.5082 85.5429C42.8866 86.2438 42.1027 86.7996 41.1568 87.2104C40.2107 87.6107 39.0971 87.814 37.8159 87.8201C36.8471 87.8247 35.9142 87.6885 35.017 87.4115C34.1302 87.1241 33.3314 86.706 32.6204 86.1573C31.9094 85.5982 31.3384 84.9134 30.9075 84.1029C30.4869 83.2924 30.2533 82.3612 30.2067 81.3093L34.2847 81.2899C34.361 81.9875 34.5513 82.5803 34.8557 83.0685C35.1601 83.5566 35.5577 83.9297 36.0486 84.1878C36.5498 84.4458 37.1285 84.5733 37.7848 84.5702C38.3785 84.5673 38.8884 84.4555 39.3144 84.2348C39.7509 84.0035 40.1087 83.6841 40.388 83.2765C40.6673 82.8689 40.8734 82.3888 41.0062 81.8361C41.139 81.2833 41.2038 80.6789 41.2007 80.0226C41.1976 79.3872 41.1168 78.8095 40.958 78.2894C40.7993 77.7589 40.5575 77.3017 40.2327 76.9178C39.908 76.5339 39.5003 76.239 39.0098 76.033C38.5296 75.8269 37.9666 75.7255 37.3208 75.7285C36.4562 75.7327 35.7902 75.866 35.3227 76.1287C34.8656 76.3913 34.4608 76.7005 34.1083 77.0563ZM63.4095 81.1669C63.4162 82.5835 63.0886 83.783 62.4266 84.7654C61.775 85.7372 60.8774 86.4759 59.734 86.9813C58.6009 87.4763 57.3104 87.7273 55.8625 87.7341C54.4251 87.741 53.127 87.5024 51.9685 87.0183C50.8203 86.5238 49.9053 85.7937 49.2236 84.8282C48.5523 83.8522 48.2133 82.6559 48.2065 81.2393C48.202 80.2914 48.3854 79.4311 48.7568 78.6585C49.1385 77.8858 49.6666 77.2219 50.341 76.6666C51.0154 76.1008 51.8155 75.6699 52.7412 75.3739C53.6668 75.0674 54.6765 74.9115 55.7702 74.9063C57.2285 74.8994 58.5319 75.1588 59.6802 75.6846C60.8389 76.1999 61.7487 76.93 62.4094 77.8747C63.0701 78.8091 63.4035 79.9065 63.4095 81.1669ZM59.2521 80.9367C59.2486 80.2075 59.0998 79.578 58.8056 79.0482C58.5218 78.5078 58.1188 78.0931 57.5965 77.8039C57.0743 77.5147 56.4695 77.3718 55.782 77.375C55.0841 77.3784 54.4754 77.5271 53.956 77.8212C53.4469 78.1153 53.0479 78.5339 52.7588 79.0769C52.4801 79.6095 52.3425 80.2404 52.3459 80.9696C52.3494 81.7091 52.4931 82.3439 52.7769 82.8738C53.071 83.3932 53.4792 83.7923 54.0013 84.0711C54.5235 84.3499 55.1387 84.4876 55.8471 84.4842C56.5554 84.4808 57.1641 84.3373 57.6732 84.0536C58.1822 83.7699 58.571 83.367 58.8393 82.8449C59.118 82.3123 59.2556 81.6763 59.2521 80.9367ZM62.8594 70.6381C62.8648 71.784 62.5676 72.8062 61.9677 73.7049C61.3678 74.5932 60.5325 75.2899 59.462 75.795C58.4019 76.3001 57.1843 76.5559 55.8094 76.5624C54.4344 76.5689 53.204 76.3248 52.1183 75.83C51.043 75.3351 50.196 74.6464 49.5772 73.7639C48.9688 72.871 48.6618 71.8516 48.6564 70.7058C48.6499 69.3516 48.9518 68.2043 49.5619 67.2639C50.172 66.3131 51.0071 65.5903 52.0672 65.0957C53.1378 64.601 54.3554 64.3504 55.7199 64.3439C57.1053 64.3373 58.3357 64.5763 59.4109 65.0607C60.4861 65.5452 61.3281 66.26 61.9368 67.205C62.5454 68.1396 62.8529 69.284 62.8594 70.6381ZM58.7352 70.8297C58.7321 70.1838 58.6097 69.6219 58.3678 69.1439C58.1259 68.6554 57.7804 68.2769 57.3311 68.0082C56.8924 67.7394 56.3605 67.6065 55.7355 67.6095C55.1313 67.6124 54.6111 67.7451 54.1749 68.0076C53.7386 68.2701 53.4019 68.6467 53.1646 69.1374C52.9273 69.6177 52.8102 70.1912 52.8134 70.8578C52.8165 71.5141 52.9391 72.0864 53.181 72.5749C53.4229 73.0633 53.7633 73.4471 54.2021 73.7263C54.6513 73.995 55.1832 74.1279 55.7978 74.1249C56.4123 74.122 56.9377 73.9841 57.3739 73.7112C57.8101 73.4278 58.1468 73.0408 58.384 72.5501C58.6213 72.0594 58.7383 71.4859 58.7352 70.8297Z" fill="white"/>
<defs>
<linearGradient id="paint0_linear_6044_46520" x1="88.1236" y1="53.5" x2="87.8846" y2="134" gradientUnits="userSpaceOnUse">
<stop stop-color="#AF5353"/>
<stop offset="0.0001" stop-color="white"/>
<stop offset="1" stop-color="#B15454" stop-opacity="0"/>
</linearGradient>
</defs>
</svg>
