<svg width="182" height="132" viewBox="0 0 182 132" fill="none" xmlns="http://www.w3.org/2000/svg">
<rect width="182" height="130" rx="6" fill="#FF955A"/>
<mask id="mask0_6044_46536" style="mask-type:alpha" maskUnits="userSpaceOnUse" x="0" y="-25" width="182" height="157">
<rect y="-25" width="182" height="157" rx="6" fill="#FF5A7A" fill-opacity="0.3"/>
</mask>
<g mask="url(#mask0_6044_46536)">
<path d="M21.9655 83L-14.1207 119L8.36784 174L190.368 180L185.138 67.5L177.293 60L162.126 67.5L149.052 53.5L120.287 74.5L115.057 60L93.615 87L77.9253 67.5L47.592 96L21.9655 83Z" fill="url(#paint0_linear_6044_46536)" stroke="black" stroke-opacity="0.3"/>
</g>
<path d="M14.228 16.27C15.264 16.27 16.1693 16.4707 16.944 16.872C17.728 17.264 18.33 17.8333 18.75 18.58C19.1793 19.3173 19.394 20.1807 19.394 21.17C19.394 22.1593 19.1793 23.018 18.75 23.746C18.33 24.474 17.728 25.034 16.944 25.426C16.1693 25.8087 15.264 26 14.228 26H11.05V16.27H14.228ZM14.228 24.698C15.3667 24.698 16.2393 24.39 16.846 23.774C17.4527 23.158 17.756 22.29 17.756 21.17C17.756 20.0407 17.4527 19.1587 16.846 18.524C16.2393 17.8893 15.3667 17.572 14.228 17.572H12.646V24.698H14.228ZM20.7378 18.314C20.7938 17.446 21.1251 16.7693 21.7318 16.284C22.3478 15.7987 23.1318 15.556 24.0838 15.556C24.7371 15.556 25.3018 15.6727 25.7778 15.906C26.2538 16.1393 26.6131 16.4567 26.8558 16.858C27.0984 17.2593 27.2198 17.712 27.2198 18.216C27.2198 18.7947 27.0658 19.2893 26.7578 19.7C26.4498 20.1107 26.0811 20.386 25.6518 20.526V20.582C26.2024 20.75 26.6318 21.058 26.9398 21.506C27.2478 21.9447 27.4018 22.5093 27.4018 23.2C27.4018 23.7507 27.2758 24.2407 27.0238 24.67C26.7718 25.0993 26.3984 25.44 25.9038 25.692C25.4091 25.9347 24.8164 26.056 24.1258 26.056C23.1178 26.056 22.2871 25.7993 21.6338 25.286C20.9898 24.7633 20.6444 24.0167 20.5978 23.046H22.1378C22.1751 23.5407 22.3664 23.9467 22.7118 24.264C23.0571 24.572 23.5238 24.726 24.1118 24.726C24.6811 24.726 25.1198 24.572 25.4278 24.264C25.7358 23.9467 25.8898 23.5407 25.8898 23.046C25.8898 22.3927 25.6798 21.9307 25.2598 21.66C24.8491 21.38 24.2144 21.24 23.3558 21.24H22.9918V19.924H23.3698C24.1258 19.9147 24.6998 19.7887 25.0918 19.546C25.4931 19.3033 25.6938 18.9207 25.6938 18.398C25.6938 17.95 25.5491 17.5953 25.2598 17.334C24.9704 17.0633 24.5598 16.928 24.0278 16.928C23.5051 16.928 23.0991 17.0633 22.8098 17.334C22.5204 17.5953 22.3478 17.922 22.2918 18.314H20.7378ZM29.0783 20.764C29.0783 19.1493 29.3489 17.8893 29.8903 16.984C30.4409 16.0693 31.3836 15.612 32.7183 15.612C34.0529 15.612 34.9909 16.0693 35.5323 16.984C36.0829 17.8893 36.3583 19.1493 36.3583 20.764C36.3583 22.3973 36.0829 23.676 35.5323 24.6C34.9909 25.5147 34.0529 25.972 32.7183 25.972C31.3836 25.972 30.4409 25.5147 29.8903 24.6C29.3489 23.676 29.0783 22.3973 29.0783 20.764ZM34.7903 20.764C34.7903 20.008 34.7389 19.3687 34.6363 18.846C34.5429 18.3233 34.3469 17.8987 34.0483 17.572C33.7496 17.236 33.3063 17.068 32.7183 17.068C32.1303 17.068 31.6869 17.236 31.3883 17.572C31.0896 17.8987 30.8889 18.3233 30.7863 18.846C30.6929 19.3687 30.6463 20.008 30.6463 20.764C30.6463 21.548 30.6929 22.206 30.7863 22.738C30.8796 23.27 31.0756 23.6993 31.3743 24.026C31.6823 24.3527 32.1303 24.516 32.7183 24.516C33.3063 24.516 33.7496 24.3527 34.0483 24.026C34.3563 23.6993 34.5569 23.27 34.6503 22.738C34.7436 22.206 34.7903 21.548 34.7903 20.764ZM43.4758 16.27V22.472C43.4758 23.2093 43.6671 23.7647 44.0498 24.138C44.4418 24.5113 44.9831 24.698 45.6738 24.698C46.3738 24.698 46.9151 24.5113 47.2978 24.138C47.6898 23.7647 47.8858 23.2093 47.8858 22.472V16.27H49.4818V22.444C49.4818 23.2373 49.3091 23.9093 48.9638 24.46C48.6184 25.0107 48.1564 25.4213 47.5778 25.692C46.9991 25.9627 46.3598 26.098 45.6598 26.098C44.9598 26.098 44.3204 25.9627 43.7418 25.692C43.1724 25.4213 42.7198 25.0107 42.3838 24.46C42.0478 23.9093 41.8798 23.2373 41.8798 22.444V16.27H43.4758ZM54.3598 26.126C53.7531 26.126 53.2071 26.0187 52.7218 25.804C52.2458 25.58 51.8678 25.2813 51.5878 24.908C51.3078 24.5253 51.1584 24.1007 51.1398 23.634H52.7918C52.8198 23.9607 52.9738 24.236 53.2538 24.46C53.5431 24.6747 53.9024 24.782 54.3318 24.782C54.7798 24.782 55.1251 24.698 55.3678 24.53C55.6198 24.3527 55.7458 24.1287 55.7458 23.858C55.7458 23.5687 55.6058 23.354 55.3258 23.214C55.0551 23.074 54.6211 22.92 54.0238 22.752C53.4451 22.5933 52.9738 22.4393 52.6098 22.29C52.2458 22.1407 51.9284 21.912 51.6578 21.604C51.3964 21.296 51.2658 20.89 51.2658 20.386C51.2658 19.9753 51.3871 19.602 51.6298 19.266C51.8724 18.9207 52.2178 18.65 52.6658 18.454C53.1231 18.258 53.6458 18.16 54.2338 18.16C55.1111 18.16 55.8158 18.384 56.3478 18.832C56.8891 19.2707 57.1784 19.8727 57.2158 20.638H55.6198C55.5918 20.2927 55.4518 20.0173 55.1998 19.812C54.9478 19.6067 54.6071 19.504 54.1778 19.504C53.7578 19.504 53.4358 19.5833 53.2118 19.742C52.9878 19.9007 52.8758 20.1107 52.8758 20.372C52.8758 20.5773 52.9504 20.75 53.0998 20.89C53.2491 21.03 53.4311 21.142 53.6458 21.226C53.8604 21.3007 54.1778 21.3987 54.5978 21.52C55.1578 21.6693 55.6151 21.8233 55.9698 21.982C56.3338 22.1313 56.6464 22.3553 56.9078 22.654C57.1691 22.9527 57.3044 23.3493 57.3138 23.844C57.3138 24.2827 57.1924 24.6747 56.9498 25.02C56.7071 25.3653 56.3618 25.636 55.9138 25.832C55.4751 26.028 54.9571 26.126 54.3598 26.126ZM66.1083 21.954C66.1083 22.2433 66.0896 22.5047 66.0523 22.738H60.1583C60.2049 23.354 60.4336 23.8487 60.8443 24.222C61.2549 24.5953 61.7589 24.782 62.3563 24.782C63.2149 24.782 63.8216 24.4227 64.1763 23.704H65.8983C65.6649 24.4133 65.2403 24.9967 64.6243 25.454C64.0176 25.902 63.2616 26.126 62.3563 26.126C61.6189 26.126 60.9563 25.9627 60.3683 25.636C59.7896 25.3 59.3323 24.8333 58.9963 24.236C58.6696 23.6293 58.5063 22.9293 58.5063 22.136C58.5063 21.3427 58.6649 20.6473 58.9823 20.05C59.3089 19.4433 59.7616 18.9767 60.3403 18.65C60.9283 18.3233 61.6003 18.16 62.3563 18.16C63.0843 18.16 63.7329 18.3187 64.3023 18.636C64.8716 18.9533 65.3149 19.4013 65.6323 19.98C65.9496 20.5493 66.1083 21.2073 66.1083 21.954ZM64.4423 21.45C64.4329 20.862 64.2229 20.3907 63.8123 20.036C63.4016 19.6813 62.8929 19.504 62.2863 19.504C61.7356 19.504 61.2643 19.6813 60.8723 20.036C60.4803 20.3813 60.2469 20.8527 60.1723 21.45H64.4423ZM69.2749 19.406C69.5082 19.014 69.8162 18.7107 70.1989 18.496C70.5909 18.272 71.0529 18.16 71.5849 18.16V19.812H71.1789C70.5536 19.812 70.0776 19.9707 69.7509 20.288C69.4336 20.6053 69.2749 21.156 69.2749 21.94V26H67.6789V18.286H69.2749V19.406Z" fill="white"/>
<path d="M103.095 106.25V104.794H106.007V115H104.397V106.25H103.095ZM109.081 112.83C109.977 112.055 110.682 111.421 111.195 110.926C111.718 110.422 112.152 109.899 112.497 109.358C112.843 108.817 113.015 108.275 113.015 107.734C113.015 107.174 112.88 106.735 112.609 106.418C112.348 106.101 111.933 105.942 111.363 105.942C110.813 105.942 110.383 106.119 110.075 106.474C109.777 106.819 109.618 107.286 109.599 107.874H108.059C108.087 106.81 108.405 105.998 109.011 105.438C109.627 104.869 110.407 104.584 111.349 104.584C112.367 104.584 113.16 104.864 113.729 105.424C114.308 105.984 114.597 106.731 114.597 107.664C114.597 108.336 114.425 108.985 114.079 109.61C113.743 110.226 113.337 110.781 112.861 111.276C112.395 111.761 111.797 112.326 111.069 112.97L110.439 113.53H114.877V114.86H108.073V113.698L109.081 112.83ZM116.279 109.764C116.279 108.149 116.55 106.889 117.091 105.984C117.642 105.069 118.585 104.612 119.919 104.612C121.254 104.612 122.192 105.069 122.733 105.984C123.284 106.889 123.559 108.149 123.559 109.764C123.559 111.397 123.284 112.676 122.733 113.6C122.192 114.515 121.254 114.972 119.919 114.972C118.585 114.972 117.642 114.515 117.091 113.6C116.55 112.676 116.279 111.397 116.279 109.764ZM121.991 109.764C121.991 109.008 121.94 108.369 121.837 107.846C121.744 107.323 121.548 106.899 121.249 106.572C120.951 106.236 120.507 106.068 119.919 106.068C119.331 106.068 118.888 106.236 118.589 106.572C118.291 106.899 118.09 107.323 117.987 107.846C117.894 108.369 117.847 109.008 117.847 109.764C117.847 110.548 117.894 111.206 117.987 111.738C118.081 112.27 118.277 112.699 118.575 113.026C118.883 113.353 119.331 113.516 119.919 113.516C120.507 113.516 120.951 113.353 121.249 113.026C121.557 112.699 121.758 112.27 121.851 111.738C121.945 111.206 121.991 110.548 121.991 109.764ZM135.381 105.27V106.572H132.791V115H131.195V106.572H128.591V105.27H135.381ZM140.343 115.126C139.615 115.126 138.957 114.963 138.369 114.636C137.781 114.3 137.319 113.833 136.983 113.236C136.647 112.629 136.479 111.929 136.479 111.136C136.479 110.352 136.652 109.657 136.997 109.05C137.343 108.443 137.814 107.977 138.411 107.65C139.009 107.323 139.676 107.16 140.413 107.16C141.151 107.16 141.818 107.323 142.415 107.65C143.013 107.977 143.484 108.443 143.829 109.05C144.175 109.657 144.347 110.352 144.347 111.136C144.347 111.92 144.17 112.615 143.815 113.222C143.461 113.829 142.975 114.3 142.359 114.636C141.753 114.963 141.081 115.126 140.343 115.126ZM140.343 113.74C140.754 113.74 141.137 113.642 141.491 113.446C141.855 113.25 142.149 112.956 142.373 112.564C142.597 112.172 142.709 111.696 142.709 111.136C142.709 110.576 142.602 110.105 142.387 109.722C142.173 109.33 141.888 109.036 141.533 108.84C141.179 108.644 140.796 108.546 140.385 108.546C139.975 108.546 139.592 108.644 139.237 108.84C138.892 109.036 138.617 109.33 138.411 109.722C138.206 110.105 138.103 110.576 138.103 111.136C138.103 111.967 138.313 112.611 138.733 113.068C139.163 113.516 139.699 113.74 140.343 113.74ZM145.393 111.108C145.393 110.333 145.552 109.647 145.869 109.05C146.196 108.453 146.634 107.991 147.185 107.664C147.745 107.328 148.366 107.16 149.047 107.16C149.551 107.16 150.046 107.272 150.531 107.496C151.026 107.711 151.418 108 151.707 108.364V104.64H153.317V115H151.707V113.838C151.446 114.211 151.082 114.519 150.615 114.762C150.158 115.005 149.63 115.126 149.033 115.126C148.361 115.126 147.745 114.958 147.185 114.622C146.634 114.277 146.196 113.801 145.869 113.194C145.552 112.578 145.393 111.883 145.393 111.108ZM151.707 111.136C151.707 110.604 151.595 110.142 151.371 109.75C151.156 109.358 150.872 109.059 150.517 108.854C150.162 108.649 149.78 108.546 149.369 108.546C148.958 108.546 148.576 108.649 148.221 108.854C147.866 109.05 147.577 109.344 147.353 109.736C147.138 110.119 147.031 110.576 147.031 111.108C147.031 111.64 147.138 112.107 147.353 112.508C147.577 112.909 147.866 113.217 148.221 113.432C148.585 113.637 148.968 113.74 149.369 113.74C149.78 113.74 150.162 113.637 150.517 113.432C150.872 113.227 151.156 112.928 151.371 112.536C151.595 112.135 151.707 111.668 151.707 111.136ZM154.881 111.108C154.881 110.333 155.04 109.647 155.357 109.05C155.684 108.453 156.123 107.991 156.673 107.664C157.233 107.328 157.849 107.16 158.521 107.16C159.128 107.16 159.655 107.281 160.103 107.524C160.561 107.757 160.925 108.051 161.195 108.406V107.286H162.805V115H161.195V113.852C160.925 114.216 160.556 114.519 160.089 114.762C159.623 115.005 159.091 115.126 158.493 115.126C157.831 115.126 157.224 114.958 156.673 114.622C156.123 114.277 155.684 113.801 155.357 113.194C155.04 112.578 154.881 111.883 154.881 111.108ZM161.195 111.136C161.195 110.604 161.083 110.142 160.859 109.75C160.645 109.358 160.36 109.059 160.005 108.854C159.651 108.649 159.268 108.546 158.857 108.546C158.447 108.546 158.064 108.649 157.709 108.854C157.355 109.05 157.065 109.344 156.841 109.736C156.627 110.119 156.519 110.576 156.519 111.108C156.519 111.64 156.627 112.107 156.841 112.508C157.065 112.909 157.355 113.217 157.709 113.432C158.073 113.637 158.456 113.74 158.857 113.74C159.268 113.74 159.651 113.637 160.005 113.432C160.36 113.227 160.645 112.928 160.859 112.536C161.083 112.135 161.195 111.668 161.195 111.136ZM171.846 107.286L167.114 118.626H165.462L167.03 114.874L163.992 107.286H165.77L167.94 113.166L170.194 107.286H171.846Z" fill="white"/>
<path d="M22.2997 64.7687L22.4083 87.5809L18.2677 87.6006L18.1821 69.6165L12.7064 71.455L12.6905 68.1113L21.831 64.7709L22.2997 64.7687ZM34.1083 77.0563L30.8077 76.2752L32.0186 64.7849L44.5341 64.7253L44.5504 68.1472L35.4568 68.1904L34.8883 73.5057C35.2103 73.3063 35.6781 73.1061 36.2917 72.9053C36.9157 72.694 37.6183 72.5865 38.3996 72.5827C39.4829 72.5776 40.4525 72.75 41.3083 73.1001C42.1641 73.4398 42.8905 73.9364 43.4873 74.5898C44.0946 75.2432 44.5515 76.0431 44.8581 76.9895C45.1751 77.9255 45.3364 78.9873 45.3421 80.1748C45.347 81.2164 45.1954 82.1963 44.8873 83.1145C44.5895 84.0221 44.1298 84.8316 43.5082 85.5429C42.8866 86.2438 42.1027 86.7996 41.1568 87.2104C40.2107 87.6107 39.0971 87.814 37.8159 87.8201C36.8471 87.8247 35.9142 87.6885 35.017 87.4115C34.1302 87.1241 33.3314 86.706 32.6204 86.1573C31.9094 85.5982 31.3384 84.9134 30.9075 84.1029C30.4869 83.2924 30.2533 82.3612 30.2067 81.3093L34.2847 81.2899C34.361 81.9875 34.5513 82.5803 34.8557 83.0685C35.1601 83.5566 35.5577 83.9297 36.0486 84.1878C36.5498 84.4458 37.1285 84.5733 37.7848 84.5702C38.3785 84.5673 38.8884 84.4555 39.3144 84.2348C39.7509 84.0035 40.1087 83.6841 40.388 83.2765C40.6673 82.8689 40.8734 82.3888 41.0062 81.8361C41.139 81.2833 41.2038 80.6789 41.2007 80.0226C41.1976 79.3872 41.1168 78.8095 40.958 78.2894C40.7993 77.7589 40.5575 77.3017 40.2327 76.9178C39.908 76.5339 39.5003 76.239 39.0098 76.033C38.5296 75.8269 37.9666 75.7255 37.3208 75.7285C36.4562 75.7327 35.7902 75.866 35.3227 76.1287C34.8656 76.3913 34.4608 76.7005 34.1083 77.0563ZM63.7361 84.1341L63.7516 87.3841L48.3455 87.4574L48.3323 84.6762L55.6848 76.6567C56.4515 75.7781 57.0572 75.0148 57.502 74.3668C57.9469 73.7189 58.2618 73.134 58.4468 72.6123C58.6422 72.0801 58.7388 71.5744 58.7365 71.0953C58.7332 70.3974 58.6053 69.7886 58.3528 69.269C58.1003 68.7389 57.7337 68.3292 57.2532 68.0398C56.783 67.7504 56.2042 67.6073 55.5167 67.6106C54.7563 67.6142 54.1061 67.7944 53.5662 68.1511C53.0366 68.4974 52.6326 68.9785 52.3543 69.5944C52.0864 70.2103 51.9543 70.914 51.9581 71.7057L47.8175 71.7254C47.8111 70.3817 48.1178 69.1562 48.7375 68.0491C49.3572 66.9315 50.2488 66.0367 51.4122 65.3645C52.5757 64.6922 53.9595 64.3523 55.5637 64.3447C57.1262 64.3372 58.4503 64.5914 59.5361 65.107C60.6219 65.6123 61.4482 66.3375 62.0152 67.2827C62.5823 68.228 62.8689 69.3568 62.8751 70.6693C62.8786 71.3985 62.7622 72.1178 62.526 72.8273C62.2898 73.5367 61.9546 74.2414 61.5205 74.9414C61.0966 75.631 60.5896 76.3313 59.9992 77.0425C59.4088 77.7536 58.7508 78.4807 58.0252 79.2238L53.6112 84.1823L63.7361 84.1341ZM78.0016 64.3785L78.5641 64.3758L78.5799 67.7039L78.3143 67.7052C77.0539 67.7112 75.9455 67.9091 74.989 68.2991C74.0429 68.689 73.2538 69.2345 72.6217 69.9354C72 70.6259 71.53 71.4458 71.2116 72.3953C70.8931 73.3343 70.7365 74.3611 70.7419 75.4757L70.7594 79.1631C70.7635 80.0277 70.8557 80.7877 71.0359 81.4431C71.2265 82.088 71.4843 82.6337 71.8093 83.08C72.1447 83.516 72.5317 83.8422 72.9702 84.0589C73.4192 84.2755 73.9093 84.3826 74.4405 84.38C74.9718 84.3775 75.4504 84.2659 75.8765 84.0451C76.3025 83.8243 76.6656 83.5153 76.9658 83.118C77.2764 82.7103 77.5085 82.2352 77.6622 81.6928C77.8262 81.1503 77.9067 80.5562 77.9037 79.9104C77.9006 79.275 77.8197 78.6868 77.6609 78.1459C77.5021 77.605 77.2706 77.1321 76.9666 76.7273C76.6626 76.3121 76.2861 75.9962 75.8371 75.7795C75.3985 75.5525 74.898 75.4403 74.3355 75.4429C73.6063 75.4464 72.9561 75.6214 72.3848 75.9679C71.8135 76.3039 71.3625 76.7436 71.0317 77.2868C70.701 77.8301 70.5214 78.4038 70.493 79.0081L69.0992 78.3273C69.147 77.4416 69.3307 76.6282 69.65 75.8871C69.9799 75.146 70.4195 74.498 70.9689 73.9433C71.5288 73.3886 72.1882 72.9583 72.9472 72.6526C73.7166 72.3469 74.57 72.1918 75.5075 72.1873C76.5908 72.1822 77.5397 72.386 78.3542 72.7988C79.1686 73.2012 79.8431 73.7552 80.3778 74.461C80.9228 75.1668 81.3329 75.9825 81.6082 76.9083C81.8834 77.8237 82.0234 78.7918 82.0283 79.8126C82.0335 80.9063 81.8612 81.928 81.5116 82.8776C81.1724 83.8271 80.6763 84.6576 80.0234 85.3691C79.3706 86.0805 78.5815 86.6364 77.6563 87.0366C76.7312 87.4369 75.6904 87.6397 74.5342 87.6453C73.3155 87.6511 72.2206 87.4271 71.2497 86.9734C70.2892 86.5196 69.4633 85.8881 68.7719 85.0789C68.0806 84.2697 67.55 83.3243 67.1803 82.2427C66.8105 81.1611 66.6227 79.9901 66.6167 78.7297L66.6088 77.0735C66.6003 75.2923 66.8372 73.6349 67.3195 72.1013C67.8018 70.5677 68.5194 69.2258 69.4722 68.0754C70.4355 66.9145 71.6291 66.013 73.0531 65.3708C74.4771 64.7182 76.1266 64.3874 78.0016 64.3785Z" fill="white"/>
<defs>
<linearGradient id="paint0_linear_6044_46536" x1="88.1236" y1="53.5" x2="87.8846" y2="134" gradientUnits="userSpaceOnUse">
<stop stop-color="#AF5353"/>
<stop offset="1" stop-color="#B15454" stop-opacity="0"/>
</linearGradient>
</defs>
</svg>
