<svg width="182" height="132" viewBox="0 0 182 132" fill="none" xmlns="http://www.w3.org/2000/svg">
<rect width="182" height="130" rx="6" fill="#FF5A7A"/>
<mask id="mask0_4698_38483" style="mask-type:alpha" maskUnits="userSpaceOnUse" x="0" y="-25" width="182" height="157">
<rect y="-25" width="182" height="157" rx="6" fill="#FF5A7A" fill-opacity="0.3"/>
</mask>
<g mask="url(#mask0_4698_38483)">
<path d="M21.9655 83L-14.1207 119L8.36778 174L190.368 180L185.138 67.5L177.293 60L162.126 67.5L149.052 53.5L120.287 74.5L115.057 60L93.6149 87L77.9252 67.5L47.5919 96L21.9655 83Z" fill="url(#paint0_linear_4698_38483)" stroke="black" stroke-opacity="0.3"/>
</g>
<path d="M16.104 26L13.864 22.108H12.646V26H11.05V16.27H14.41C15.1567 16.27 15.7867 16.4007 16.3 16.662C16.8227 16.9233 17.21 17.2733 17.462 17.712C17.7233 18.1507 17.854 18.6407 17.854 19.182C17.854 19.8167 17.6673 20.3953 17.294 20.918C16.93 21.4313 16.3653 21.7813 15.6 21.968L18.008 26H16.104ZM12.646 20.834H14.41C15.0073 20.834 15.4553 20.6847 15.754 20.386C16.062 20.0873 16.216 19.686 16.216 19.182C16.216 18.678 16.0667 18.286 15.768 18.006C15.4693 17.7167 15.0167 17.572 14.41 17.572H12.646V20.834ZM26.9657 21.954C26.9657 22.2433 26.947 22.5047 26.9097 22.738H21.0157C21.0624 23.354 21.291 23.8487 21.7017 24.222C22.1124 24.5953 22.6164 24.782 23.2137 24.782C24.0724 24.782 24.679 24.4227 25.0337 23.704H26.7557C26.5224 24.4133 26.0977 24.9967 25.4817 25.454C24.875 25.902 24.119 26.126 23.2137 26.126C22.4764 26.126 21.8137 25.9627 21.2257 25.636C20.647 25.3 20.1897 24.8333 19.8537 24.236C19.527 23.6293 19.3637 22.9293 19.3637 22.136C19.3637 21.3427 19.5224 20.6473 19.8397 20.05C20.1664 19.4433 20.619 18.9767 21.1977 18.65C21.7857 18.3233 22.4577 18.16 23.2137 18.16C23.9417 18.16 24.5904 18.3187 25.1597 18.636C25.729 18.9533 26.1724 19.4013 26.4897 19.98C26.807 20.5493 26.9657 21.2073 26.9657 21.954ZM25.2997 21.45C25.2904 20.862 25.0804 20.3907 24.6697 20.036C24.259 19.6813 23.7504 19.504 23.1437 19.504C22.593 19.504 22.1217 19.6813 21.7297 20.036C21.3377 20.3813 21.1044 20.8527 21.0297 21.45H25.2997ZM31.6443 18.16C32.2417 18.16 32.769 18.2813 33.2263 18.524C33.693 18.7573 34.057 19.0513 34.3183 19.406V18.286H35.9283V26.126C35.9283 26.8353 35.779 27.4653 35.4803 28.016C35.1817 28.576 34.7477 29.0147 34.1783 29.332C33.6183 29.6493 32.9463 29.808 32.1623 29.808C31.117 29.808 30.249 29.5607 29.5583 29.066C28.8677 28.5807 28.4757 27.918 28.3823 27.078H29.9643C30.0857 27.4793 30.3423 27.8013 30.7343 28.044C31.1357 28.296 31.6117 28.422 32.1623 28.422C32.8063 28.422 33.3243 28.226 33.7163 27.834C34.1177 27.442 34.3183 26.8727 34.3183 26.126V24.838C34.0477 25.202 33.679 25.51 33.2123 25.762C32.755 26.0047 32.2323 26.126 31.6443 26.126C30.9723 26.126 30.3563 25.958 29.7963 25.622C29.2457 25.2767 28.807 24.8007 28.4803 24.194C28.163 23.578 28.0043 22.8827 28.0043 22.108C28.0043 21.3333 28.163 20.6473 28.4803 20.05C28.807 19.4527 29.2457 18.9907 29.7963 18.664C30.3563 18.328 30.9723 18.16 31.6443 18.16ZM34.3183 22.136C34.3183 21.604 34.2063 21.142 33.9823 20.75C33.7677 20.358 33.483 20.0593 33.1283 19.854C32.7737 19.6487 32.391 19.546 31.9803 19.546C31.5697 19.546 31.187 19.6487 30.8323 19.854C30.4777 20.05 30.1883 20.344 29.9643 20.736C29.7497 21.1187 29.6423 21.576 29.6423 22.108C29.6423 22.64 29.7497 23.1067 29.9643 23.508C30.1883 23.9093 30.4777 24.2173 30.8323 24.432C31.1963 24.6373 31.579 24.74 31.9803 24.74C32.391 24.74 32.7737 24.6373 33.1283 24.432C33.483 24.2267 33.7677 23.928 33.9823 23.536C34.2063 23.1347 34.3183 22.668 34.3183 22.136ZM38.8366 17.264C38.5473 17.264 38.3046 17.166 38.1086 16.97C37.9126 16.774 37.8146 16.5313 37.8146 16.242C37.8146 15.9527 37.9126 15.71 38.1086 15.514C38.3046 15.318 38.5473 15.22 38.8366 15.22C39.1166 15.22 39.3546 15.318 39.5506 15.514C39.7466 15.71 39.8446 15.9527 39.8446 16.242C39.8446 16.5313 39.7466 16.774 39.5506 16.97C39.3546 17.166 39.1166 17.264 38.8366 17.264ZM39.6206 18.286V26H38.0246V18.286H39.6206ZM44.516 26.126C43.9093 26.126 43.3633 26.0187 42.878 25.804C42.402 25.58 42.024 25.2813 41.744 24.908C41.464 24.5253 41.3147 24.1007 41.296 23.634H42.948C42.976 23.9607 43.13 24.236 43.41 24.46C43.6993 24.6747 44.0587 24.782 44.488 24.782C44.936 24.782 45.2813 24.698 45.524 24.53C45.776 24.3527 45.902 24.1287 45.902 23.858C45.902 23.5687 45.762 23.354 45.482 23.214C45.2113 23.074 44.7773 22.92 44.18 22.752C43.6013 22.5933 43.13 22.4393 42.766 22.29C42.402 22.1407 42.0847 21.912 41.814 21.604C41.5527 21.296 41.422 20.89 41.422 20.386C41.422 19.9753 41.5433 19.602 41.786 19.266C42.0287 18.9207 42.374 18.65 42.822 18.454C43.2793 18.258 43.802 18.16 44.39 18.16C45.2673 18.16 45.972 18.384 46.504 18.832C47.0453 19.2707 47.3347 19.8727 47.372 20.638H45.776C45.748 20.2927 45.608 20.0173 45.356 19.812C45.104 19.6067 44.7633 19.504 44.334 19.504C43.914 19.504 43.592 19.5833 43.368 19.742C43.144 19.9007 43.032 20.1107 43.032 20.372C43.032 20.5773 43.1067 20.75 43.256 20.89C43.4053 21.03 43.5873 21.142 43.802 21.226C44.0167 21.3007 44.334 21.3987 44.754 21.52C45.314 21.6693 45.7713 21.8233 46.126 21.982C46.49 22.1313 46.8027 22.3553 47.064 22.654C47.3253 22.9527 47.4607 23.3493 47.47 23.844C47.47 24.2827 47.3487 24.6747 47.106 25.02C46.8633 25.3653 46.518 25.636 46.07 25.832C45.6313 26.028 45.1133 26.126 44.516 26.126ZM51.0565 19.588V23.858C51.0565 24.1473 51.1219 24.3573 51.2525 24.488C51.3925 24.6093 51.6259 24.67 51.9525 24.67H52.9325V26H51.6725C50.9539 26 50.4032 25.832 50.0205 25.496C49.6379 25.16 49.4465 24.614 49.4465 23.858V19.588H48.5365V18.286H49.4465V16.368H51.0565V18.286H52.9325V19.588H51.0565ZM61.4735 21.954C61.4735 22.2433 61.4548 22.5047 61.4175 22.738H55.5235C55.5702 23.354 55.7988 23.8487 56.2095 24.222C56.6202 24.5953 57.1242 24.782 57.7215 24.782C58.5802 24.782 59.1868 24.4227 59.5415 23.704H61.2635C61.0302 24.4133 60.6055 24.9967 59.9895 25.454C59.3828 25.902 58.6268 26.126 57.7215 26.126C56.9842 26.126 56.3215 25.9627 55.7335 25.636C55.1548 25.3 54.6975 24.8333 54.3615 24.236C54.0348 23.6293 53.8715 22.9293 53.8715 22.136C53.8715 21.3427 54.0302 20.6473 54.3475 20.05C54.6742 19.4433 55.1268 18.9767 55.7055 18.65C56.2935 18.3233 56.9655 18.16 57.7215 18.16C58.4495 18.16 59.0982 18.3187 59.6675 18.636C60.2368 18.9533 60.6802 19.4013 60.9975 19.98C61.3148 20.5493 61.4735 21.2073 61.4735 21.954ZM59.8075 21.45C59.7982 20.862 59.5882 20.3907 59.1775 20.036C58.7668 19.6813 58.2582 19.504 57.6515 19.504C57.1008 19.504 56.6295 19.6813 56.2375 20.036C55.8455 20.3813 55.6122 20.8527 55.5375 21.45H59.8075ZM64.6401 19.406C64.8735 19.014 65.1815 18.7107 65.5641 18.496C65.9561 18.272 66.4181 18.16 66.9501 18.16V19.812H66.5441C65.9188 19.812 65.4428 19.9707 65.1161 20.288C64.7988 20.6053 64.6401 21.156 64.6401 21.94V26H63.0441V18.286H64.6401V19.406ZM75.4872 21.954C75.4872 22.2433 75.4685 22.5047 75.4312 22.738H69.5372C69.5839 23.354 69.8125 23.8487 70.2232 24.222C70.6339 24.5953 71.1379 24.782 71.7352 24.782C72.5939 24.782 73.2005 24.4227 73.5552 23.704H75.2772C75.0439 24.4133 74.6192 24.9967 74.0032 25.454C73.3965 25.902 72.6405 26.126 71.7352 26.126C70.9979 26.126 70.3352 25.9627 69.7472 25.636C69.1685 25.3 68.7112 24.8333 68.3752 24.236C68.0485 23.6293 67.8852 22.9293 67.8852 22.136C67.8852 21.3427 68.0439 20.6473 68.3612 20.05C68.6879 19.4433 69.1405 18.9767 69.7192 18.65C70.3072 18.3233 70.9792 18.16 71.7352 18.16C72.4632 18.16 73.1119 18.3187 73.6812 18.636C74.2505 18.9533 74.6939 19.4013 75.0112 19.98C75.3285 20.5493 75.4872 21.2073 75.4872 21.954ZM73.8212 21.45C73.8119 20.862 73.6019 20.3907 73.1912 20.036C72.7805 19.6813 72.2719 19.504 71.6652 19.504C71.1145 19.504 70.6432 19.6813 70.2512 20.036C69.8592 20.3813 69.6259 20.8527 69.5512 21.45H73.8212ZM76.5258 22.108C76.5258 21.3333 76.6845 20.6473 77.0018 20.05C77.3285 19.4527 77.7671 18.9907 78.3178 18.664C78.8778 18.328 79.4985 18.16 80.1798 18.16C80.6838 18.16 81.1785 18.272 81.6638 18.496C82.1585 18.7107 82.5505 19 82.8398 19.364V15.64H84.4498V26H82.8398V24.838C82.5785 25.2113 82.2145 25.5193 81.7478 25.762C81.2905 26.0047 80.7631 26.126 80.1658 26.126C79.4938 26.126 78.8778 25.958 78.3178 25.622C77.7671 25.2767 77.3285 24.8007 77.0018 24.194C76.6845 23.578 76.5258 22.8827 76.5258 22.108ZM82.8398 22.136C82.8398 21.604 82.7278 21.142 82.5038 20.75C82.2891 20.358 82.0045 20.0593 81.6498 19.854C81.2951 19.6487 80.9125 19.546 80.5018 19.546C80.0911 19.546 79.7085 19.6487 79.3538 19.854C78.9991 20.05 78.7098 20.344 78.4858 20.736C78.2711 21.1187 78.1638 21.576 78.1638 22.108C78.1638 22.64 78.2711 23.1067 78.4858 23.508C78.7098 23.9093 78.9991 24.2173 79.3538 24.432C79.7178 24.6373 80.1005 24.74 80.5018 24.74C80.9125 24.74 81.2951 24.6373 81.6498 24.432C82.0045 24.2267 82.2891 23.928 82.5038 23.536C82.7278 23.1347 82.8398 22.668 82.8398 22.136ZM89.6508 21.114C89.6508 20.162 89.8701 19.308 90.3088 18.552C90.7568 17.796 91.3588 17.208 92.1148 16.788C92.8801 16.3587 93.7155 16.144 94.6208 16.144C95.6568 16.144 96.5761 16.4007 97.3788 16.914C98.1908 17.418 98.7788 18.1367 99.1428 19.07H97.2248C96.9728 18.5567 96.6228 18.174 96.1748 17.922C95.7268 17.67 95.2088 17.544 94.6208 17.544C93.9768 17.544 93.4028 17.6887 92.8988 17.978C92.3948 18.2673 91.9981 18.6827 91.7088 19.224C91.4288 19.7653 91.2888 20.3953 91.2888 21.114C91.2888 21.8327 91.4288 22.4627 91.7088 23.004C91.9981 23.5453 92.3948 23.9653 92.8988 24.264C93.4028 24.5533 93.9768 24.698 94.6208 24.698C95.2088 24.698 95.7268 24.572 96.1748 24.32C96.6228 24.068 96.9728 23.6853 97.2248 23.172H99.1428C98.7788 24.1053 98.1908 24.824 97.3788 25.328C96.5761 25.832 95.6568 26.084 94.6208 26.084C93.7061 26.084 92.8708 25.874 92.1148 25.454C91.3588 25.0247 90.7568 24.432 90.3088 23.676C89.8701 22.92 89.6508 22.066 89.6508 21.114ZM107.997 18.286V26H106.401V25.09C106.149 25.4073 105.818 25.6593 105.407 25.846C105.006 26.0233 104.576 26.112 104.119 26.112C103.512 26.112 102.966 25.986 102.481 25.734C102.005 25.482 101.627 25.1087 101.347 24.614C101.076 24.1193 100.941 23.522 100.941 22.822V18.286H102.523V22.584C102.523 23.2747 102.696 23.8067 103.041 24.18C103.386 24.544 103.858 24.726 104.455 24.726C105.052 24.726 105.524 24.544 105.869 24.18C106.224 23.8067 106.401 23.2747 106.401 22.584V18.286H107.997ZM112.903 26.126C112.296 26.126 111.75 26.0187 111.265 25.804C110.789 25.58 110.411 25.2813 110.131 24.908C109.851 24.5253 109.701 24.1007 109.683 23.634H111.335C111.363 23.9607 111.517 24.236 111.797 24.46C112.086 24.6747 112.445 24.782 112.875 24.782C113.323 24.782 113.668 24.698 113.911 24.53C114.163 24.3527 114.289 24.1287 114.289 23.858C114.289 23.5687 114.149 23.354 113.869 23.214C113.598 23.074 113.164 22.92 112.567 22.752C111.988 22.5933 111.517 22.4393 111.153 22.29C110.789 22.1407 110.471 21.912 110.201 21.604C109.939 21.296 109.809 20.89 109.809 20.386C109.809 19.9753 109.93 19.602 110.173 19.266C110.415 18.9207 110.761 18.65 111.209 18.454C111.666 18.258 112.189 18.16 112.777 18.16C113.654 18.16 114.359 18.384 114.891 18.832C115.432 19.2707 115.721 19.8727 115.759 20.638H114.163C114.135 20.2927 113.995 20.0173 113.743 19.812C113.491 19.6067 113.15 19.504 112.721 19.504C112.301 19.504 111.979 19.5833 111.755 19.742C111.531 19.9007 111.419 20.1107 111.419 20.372C111.419 20.5773 111.493 20.75 111.643 20.89C111.792 21.03 111.974 21.142 112.189 21.226C112.403 21.3007 112.721 21.3987 113.141 21.52C113.701 21.6693 114.158 21.8233 114.513 21.982C114.877 22.1313 115.189 22.3553 115.451 22.654C115.712 22.9527 115.847 23.3493 115.857 23.844C115.857 24.2827 115.735 24.6747 115.493 25.02C115.25 25.3653 114.905 25.636 114.457 25.832C114.018 26.028 113.5 26.126 112.903 26.126ZM119.443 19.588V23.858C119.443 24.1473 119.509 24.3573 119.639 24.488C119.779 24.6093 120.013 24.67 120.339 24.67H121.319V26H120.059C119.341 26 118.79 25.832 118.407 25.496C118.025 25.16 117.833 24.614 117.833 23.858V19.588H116.923V18.286H117.833V16.368H119.443V18.286H121.319V19.588H119.443ZM126.136 26.126C125.408 26.126 124.75 25.9627 124.162 25.636C123.574 25.3 123.112 24.8333 122.776 24.236C122.44 23.6293 122.272 22.9293 122.272 22.136C122.272 21.352 122.445 20.6567 122.79 20.05C123.136 19.4433 123.607 18.9767 124.204 18.65C124.802 18.3233 125.469 18.16 126.206 18.16C126.944 18.16 127.611 18.3233 128.208 18.65C128.806 18.9767 129.277 19.4433 129.622 20.05C129.968 20.6567 130.14 21.352 130.14 22.136C130.14 22.92 129.963 23.6153 129.608 24.222C129.254 24.8287 128.768 25.3 128.152 25.636C127.546 25.9627 126.874 26.126 126.136 26.126ZM126.136 24.74C126.547 24.74 126.93 24.642 127.284 24.446C127.648 24.25 127.942 23.956 128.166 23.564C128.39 23.172 128.502 22.696 128.502 22.136C128.502 21.576 128.395 21.1047 128.18 20.722C127.966 20.33 127.681 20.036 127.326 19.84C126.972 19.644 126.589 19.546 126.178 19.546C125.768 19.546 125.385 19.644 125.03 19.84C124.685 20.036 124.41 20.33 124.204 20.722C123.999 21.1047 123.896 21.576 123.896 22.136C123.896 22.9667 124.106 23.6107 124.526 24.068C124.956 24.516 125.492 24.74 126.136 24.74ZM141.056 18.16C141.663 18.16 142.204 18.286 142.68 18.538C143.165 18.79 143.543 19.1633 143.814 19.658C144.094 20.1527 144.234 20.75 144.234 21.45V26H142.652V21.688C142.652 20.9973 142.479 20.47 142.134 20.106C141.789 19.7327 141.317 19.546 140.72 19.546C140.123 19.546 139.647 19.7327 139.292 20.106C138.947 20.47 138.774 20.9973 138.774 21.688V26H137.192V21.688C137.192 20.9973 137.019 20.47 136.674 20.106C136.329 19.7327 135.857 19.546 135.26 19.546C134.663 19.546 134.187 19.7327 133.832 20.106C133.487 20.47 133.314 20.9973 133.314 21.688V26H131.718V18.286H133.314V19.168C133.575 18.8507 133.907 18.6033 134.308 18.426C134.709 18.2487 135.139 18.16 135.596 18.16C136.212 18.16 136.763 18.2907 137.248 18.552C137.733 18.8133 138.107 19.1913 138.368 19.686C138.601 19.2193 138.965 18.8507 139.46 18.58C139.955 18.3 140.487 18.16 141.056 18.16ZM153.335 21.954C153.335 22.2433 153.316 22.5047 153.279 22.738H147.385C147.432 23.354 147.66 23.8487 148.071 24.222C148.482 24.5953 148.986 24.782 149.583 24.782C150.442 24.782 151.048 24.4227 151.403 23.704H153.125C152.892 24.4133 152.467 24.9967 151.851 25.454C151.244 25.902 150.488 26.126 149.583 26.126C148.846 26.126 148.183 25.9627 147.595 25.636C147.016 25.3 146.559 24.8333 146.223 24.236C145.896 23.6293 145.733 22.9293 145.733 22.136C145.733 21.3427 145.892 20.6473 146.209 20.05C146.536 19.4433 146.988 18.9767 147.567 18.65C148.155 18.3233 148.827 18.16 149.583 18.16C150.311 18.16 150.96 18.3187 151.529 18.636C152.098 18.9533 152.542 19.4013 152.859 19.98C153.176 20.5493 153.335 21.2073 153.335 21.954ZM151.669 21.45C151.66 20.862 151.45 20.3907 151.039 20.036C150.628 19.6813 150.12 19.504 149.513 19.504C148.962 19.504 148.491 19.6813 148.099 20.036C147.707 20.3813 147.474 20.8527 147.399 21.45H151.669ZM156.501 19.406C156.735 19.014 157.043 18.7107 157.425 18.496C157.817 18.272 158.279 18.16 158.811 18.16V19.812H158.405C157.78 19.812 157.304 19.9707 156.977 20.288C156.66 20.6053 156.501 21.156 156.501 21.94V26H154.905V18.286H156.501V19.406ZM163.079 26.126C162.472 26.126 161.926 26.0187 161.441 25.804C160.965 25.58 160.587 25.2813 160.307 24.908C160.027 24.5253 159.877 24.1007 159.859 23.634H161.511C161.539 23.9607 161.693 24.236 161.973 24.46C162.262 24.6747 162.621 24.782 163.051 24.782C163.499 24.782 163.844 24.698 164.087 24.53C164.339 24.3527 164.465 24.1287 164.465 23.858C164.465 23.5687 164.325 23.354 164.045 23.214C163.774 23.074 163.34 22.92 162.743 22.752C162.164 22.5933 161.693 22.4393 161.329 22.29C160.965 22.1407 160.647 21.912 160.377 21.604C160.115 21.296 159.985 20.89 159.985 20.386C159.985 19.9753 160.106 19.602 160.349 19.266C160.591 18.9207 160.937 18.65 161.385 18.454C161.842 18.258 162.365 18.16 162.953 18.16C163.83 18.16 164.535 18.384 165.067 18.832C165.608 19.2707 165.897 19.8727 165.935 20.638H164.339C164.311 20.2927 164.171 20.0173 163.919 19.812C163.667 19.6067 163.326 19.504 162.897 19.504C162.477 19.504 162.155 19.5833 161.931 19.742C161.707 19.9007 161.595 20.1107 161.595 20.372C161.595 20.5773 161.669 20.75 161.819 20.89C161.968 21.03 162.15 21.142 162.365 21.226C162.579 21.3007 162.897 21.3987 163.317 21.52C163.877 21.6693 164.334 21.8233 164.689 21.982C165.053 22.1313 165.365 22.3553 165.627 22.654C165.888 22.9527 166.023 23.3493 166.033 23.844C166.033 24.2827 165.911 24.6747 165.669 25.02C165.426 25.3653 165.081 25.636 164.633 25.832C164.194 26.028 163.676 26.126 163.079 26.126Z" fill="white"/>
<path d="M103.095 106.25V104.794H106.007V115H104.397V106.25H103.095ZM109.081 112.83C109.977 112.055 110.682 111.421 111.195 110.926C111.718 110.422 112.152 109.899 112.497 109.358C112.843 108.817 113.015 108.275 113.015 107.734C113.015 107.174 112.88 106.735 112.609 106.418C112.348 106.101 111.933 105.942 111.363 105.942C110.813 105.942 110.383 106.119 110.075 106.474C109.777 106.819 109.618 107.286 109.599 107.874H108.059C108.087 106.81 108.405 105.998 109.011 105.438C109.627 104.869 110.407 104.584 111.349 104.584C112.367 104.584 113.16 104.864 113.729 105.424C114.308 105.984 114.597 106.731 114.597 107.664C114.597 108.336 114.425 108.985 114.079 109.61C113.743 110.226 113.337 110.781 112.861 111.276C112.395 111.761 111.797 112.326 111.069 112.97L110.439 113.53H114.877V114.86H108.073V113.698L109.081 112.83ZM116.279 109.764C116.279 108.149 116.55 106.889 117.091 105.984C117.642 105.069 118.585 104.612 119.919 104.612C121.254 104.612 122.192 105.069 122.733 105.984C123.284 106.889 123.559 108.149 123.559 109.764C123.559 111.397 123.284 112.676 122.733 113.6C122.192 114.515 121.254 114.972 119.919 114.972C118.585 114.972 117.642 114.515 117.091 113.6C116.55 112.676 116.279 111.397 116.279 109.764ZM121.991 109.764C121.991 109.008 121.94 108.369 121.837 107.846C121.744 107.323 121.548 106.899 121.249 106.572C120.951 106.236 120.507 106.068 119.919 106.068C119.331 106.068 118.888 106.236 118.589 106.572C118.291 106.899 118.09 107.323 117.987 107.846C117.894 108.369 117.847 109.008 117.847 109.764C117.847 110.548 117.894 111.206 117.987 111.738C118.081 112.27 118.277 112.699 118.575 113.026C118.883 113.353 119.331 113.516 119.919 113.516C120.507 113.516 120.951 113.353 121.249 113.026C121.557 112.699 121.758 112.27 121.851 111.738C121.945 111.206 121.991 110.548 121.991 109.764ZM135.381 105.27V106.572H132.791V115H131.195V106.572H128.591V105.27H135.381ZM140.343 115.126C139.615 115.126 138.957 114.963 138.369 114.636C137.781 114.3 137.319 113.833 136.983 113.236C136.647 112.629 136.479 111.929 136.479 111.136C136.479 110.352 136.652 109.657 136.997 109.05C137.343 108.443 137.814 107.977 138.411 107.65C139.009 107.323 139.676 107.16 140.413 107.16C141.151 107.16 141.818 107.323 142.415 107.65C143.013 107.977 143.484 108.443 143.829 109.05C144.175 109.657 144.347 110.352 144.347 111.136C144.347 111.92 144.17 112.615 143.815 113.222C143.461 113.829 142.975 114.3 142.359 114.636C141.753 114.963 141.081 115.126 140.343 115.126ZM140.343 113.74C140.754 113.74 141.137 113.642 141.491 113.446C141.855 113.25 142.149 112.956 142.373 112.564C142.597 112.172 142.709 111.696 142.709 111.136C142.709 110.576 142.602 110.105 142.387 109.722C142.173 109.33 141.888 109.036 141.533 108.84C141.179 108.644 140.796 108.546 140.385 108.546C139.975 108.546 139.592 108.644 139.237 108.84C138.892 109.036 138.617 109.33 138.411 109.722C138.206 110.105 138.103 110.576 138.103 111.136C138.103 111.967 138.313 112.611 138.733 113.068C139.163 113.516 139.699 113.74 140.343 113.74ZM145.393 111.108C145.393 110.333 145.552 109.647 145.869 109.05C146.196 108.453 146.634 107.991 147.185 107.664C147.745 107.328 148.366 107.16 149.047 107.16C149.551 107.16 150.046 107.272 150.531 107.496C151.026 107.711 151.418 108 151.707 108.364V104.64H153.317V115H151.707V113.838C151.446 114.211 151.082 114.519 150.615 114.762C150.158 115.005 149.63 115.126 149.033 115.126C148.361 115.126 147.745 114.958 147.185 114.622C146.634 114.277 146.196 113.801 145.869 113.194C145.552 112.578 145.393 111.883 145.393 111.108ZM151.707 111.136C151.707 110.604 151.595 110.142 151.371 109.75C151.156 109.358 150.872 109.059 150.517 108.854C150.162 108.649 149.78 108.546 149.369 108.546C148.958 108.546 148.576 108.649 148.221 108.854C147.866 109.05 147.577 109.344 147.353 109.736C147.138 110.119 147.031 110.576 147.031 111.108C147.031 111.64 147.138 112.107 147.353 112.508C147.577 112.909 147.866 113.217 148.221 113.432C148.585 113.637 148.968 113.74 149.369 113.74C149.78 113.74 150.162 113.637 150.517 113.432C150.872 113.227 151.156 112.928 151.371 112.536C151.595 112.135 151.707 111.668 151.707 111.136ZM154.881 111.108C154.881 110.333 155.04 109.647 155.357 109.05C155.684 108.453 156.123 107.991 156.673 107.664C157.233 107.328 157.849 107.16 158.521 107.16C159.128 107.16 159.655 107.281 160.103 107.524C160.561 107.757 160.925 108.051 161.195 108.406V107.286H162.805V115H161.195V113.852C160.925 114.216 160.556 114.519 160.089 114.762C159.623 115.005 159.091 115.126 158.493 115.126C157.831 115.126 157.224 114.958 156.673 114.622C156.123 114.277 155.684 113.801 155.357 113.194C155.04 112.578 154.881 111.883 154.881 111.108ZM161.195 111.136C161.195 110.604 161.083 110.142 160.859 109.75C160.645 109.358 160.36 109.059 160.005 108.854C159.651 108.649 159.268 108.546 158.857 108.546C158.447 108.546 158.064 108.649 157.709 108.854C157.355 109.05 157.065 109.344 156.841 109.736C156.627 110.119 156.519 110.576 156.519 111.108C156.519 111.64 156.627 112.107 156.841 112.508C157.065 112.909 157.355 113.217 157.709 113.432C158.073 113.637 158.456 113.74 158.857 113.74C159.268 113.74 159.651 113.637 160.005 113.432C160.36 113.227 160.645 112.928 160.859 112.536C161.083 112.135 161.195 111.668 161.195 111.136ZM171.846 107.286L167.114 118.626H165.462L167.03 114.874L163.992 107.286H165.77L167.94 113.166L170.194 107.286H171.846Z" fill="white"/>
<path d="M15.8273 77.825L12.5267 77.0438L13.7376 65.5536L26.2531 65.494L26.2694 68.9158L17.1757 68.9591L16.6073 74.2744C16.9292 74.0749 17.397 73.8748 18.0107 73.674C18.6347 73.4626 19.3373 73.3551 20.1185 73.3514C21.2019 73.3463 22.1714 73.5187 23.0273 73.8688C23.8831 74.2085 24.6094 74.705 25.2063 75.3585C25.8136 76.0118 26.2705 76.8117 26.5771 77.7582C26.8941 78.6942 27.0554 79.756 27.061 80.9434C27.066 81.9851 26.9144 82.965 26.6063 83.8831C26.3085 84.7908 25.8488 85.6003 25.2272 86.3116C24.6055 87.0125 23.8217 87.5683 22.8757 87.9791C21.9297 88.3794 20.8161 88.5826 19.5348 88.5887C18.5661 88.5934 17.6331 88.4572 16.736 88.1802C15.8492 87.8927 15.0503 87.4747 14.3394 86.926C13.6284 86.3668 13.0574 85.682 12.6264 84.8716C12.2059 84.0611 11.9723 83.1299 11.9256 82.078L16.0037 82.0586C16.0799 82.7562 16.2703 83.349 16.5747 83.8372C16.8791 84.3253 17.2767 84.6984 17.7675 84.9565C18.2688 85.2145 18.8475 85.342 19.5037 85.3388C20.0975 85.336 20.6074 85.2242 21.0334 85.0034C21.4698 84.7722 21.8277 84.4528 22.107 84.0452C22.3863 83.6376 22.5923 83.1575 22.7251 82.6047C22.8579 82.052 22.9227 81.4475 22.9196 80.7913C22.9166 80.1559 22.8357 79.5781 22.677 79.058C22.5182 78.5275 22.2765 78.0704 21.9517 77.6865C21.627 77.3026 21.2193 77.0077 20.7287 76.8017C20.2486 76.5956 19.6856 76.4941 19.0398 76.4972C18.1752 76.5013 17.5091 76.6347 17.0416 76.8974C16.5846 77.1599 16.1798 77.4692 15.8273 77.825ZM45.1284 81.9356C45.1352 83.3522 44.8076 84.5517 44.1456 85.534C43.4939 86.5059 42.5964 87.2446 41.453 87.75C40.3199 88.245 39.0294 88.4959 37.5815 88.5028C36.144 88.5097 34.846 88.271 33.6874 87.787C32.5392 87.2924 31.6243 86.5624 30.9426 85.5969C30.2713 84.6209 29.9322 83.4246 29.9255 82.0079C29.921 81.06 30.1044 80.1998 30.4757 79.4272C30.8575 78.6545 31.3856 77.9905 32.06 77.4352C32.7344 76.8695 33.5344 76.4386 34.4601 76.1425C35.3858 75.836 36.3954 75.6802 37.4892 75.675C38.9475 75.668 40.2508 75.9275 41.3992 76.4533C42.5579 76.9686 43.4676 77.6986 44.1284 78.6434C44.7891 79.5778 45.1224 80.6752 45.1284 81.9356ZM40.9711 81.7054C40.9676 80.9762 40.8188 80.3467 40.5246 79.8168C40.2407 79.2765 39.8377 78.8618 39.3155 78.5726C38.7933 78.2834 38.1884 78.1404 37.5009 78.1437C36.803 78.147 36.1944 78.2958 35.6749 78.5899C35.1659 78.884 34.7668 79.3026 34.4778 79.8456C34.199 80.3782 34.0614 81.0091 34.0649 81.7382C34.0684 82.4778 34.2121 83.1126 34.4958 83.6425C34.79 84.1619 35.1981 84.561 35.7203 84.8398C36.2425 85.1185 36.8577 85.2562 37.566 85.2529C38.2744 85.2495 38.8831 85.106 39.3921 84.8223C39.9012 84.5386 40.2899 84.1357 40.5583 83.6136C40.837 83.081 40.9746 82.4449 40.9711 81.7054ZM44.5783 71.4068C44.5838 72.5526 44.2866 73.5749 43.6867 74.4736C43.0867 75.3619 42.2515 76.0586 41.181 76.5637C40.1208 77.0687 38.9033 77.3245 37.5283 77.3311C36.1533 77.3376 34.923 77.0935 33.8373 76.5986C32.762 76.1037 31.915 75.4151 31.2962 74.5326C30.6877 73.6396 30.3808 72.6203 30.3754 71.4744C30.3689 70.1203 30.6707 68.973 31.2809 68.0326C31.8909 67.0818 32.726 66.359 33.7862 65.8644C34.8568 65.3697 36.0743 65.1191 37.4389 65.1126C38.8243 65.106 40.0546 65.345 41.1298 65.8294C42.2051 66.3139 43.047 67.0286 43.6557 67.9737C44.2643 68.9083 44.5719 70.0527 44.5783 71.4068ZM40.4542 71.5983C40.4511 70.9525 40.3286 70.3906 40.0868 69.9126C39.8449 69.4241 39.4993 69.0456 39.0501 68.7769C38.6113 68.5081 38.0794 68.3752 37.4544 68.3782C36.8503 68.3811 36.3301 68.5138 35.8938 68.7763C35.4576 69.0388 35.1208 69.4154 34.8836 69.9061C34.6463 70.3864 34.5292 70.9599 34.5324 71.6265C34.5355 72.2828 34.658 72.8551 34.8999 73.3435C35.1418 73.832 35.4822 74.2158 35.921 74.4949C36.3702 74.7636 36.9021 74.8965 37.5167 74.8936C38.1313 74.8907 38.6567 74.7528 39.0929 74.4798C39.529 74.1965 39.8657 73.8095 40.103 73.3188C40.3402 72.8281 40.4573 72.2546 40.4542 71.5983ZM63.4095 81.8485C63.4162 83.2652 63.0886 84.4647 62.4266 85.447C61.775 86.4189 60.8774 87.1575 59.734 87.663C58.6009 88.158 57.3104 88.4089 55.8625 88.4158C54.4251 88.4226 53.127 88.184 51.9685 87.6999C50.8203 87.2054 49.9053 86.4754 49.2236 85.5099C48.5523 84.5339 48.2133 83.3376 48.2065 81.9209C48.202 80.973 48.3854 80.1127 48.7568 79.3401C49.1385 78.5675 49.6666 77.9035 50.341 77.3482C51.0154 76.7825 51.8155 76.3516 52.7412 76.0555C53.6668 75.749 54.6765 75.5932 55.7702 75.588C57.2285 75.581 58.5319 75.8404 59.6802 76.3662C60.8389 76.8815 61.7487 77.6116 62.4094 78.5564C63.0701 79.4907 63.4035 80.5881 63.4095 81.8485ZM59.2521 81.6183C59.2486 80.8892 59.0998 80.2597 58.8056 79.7298C58.5218 79.1895 58.1188 78.7747 57.5965 78.4855C57.0743 78.1964 56.4695 78.0534 55.782 78.0567C55.0841 78.06 54.4754 78.2087 53.956 78.5029C53.4469 78.797 53.0479 79.2155 52.7588 79.7586C52.4801 80.2912 52.3425 80.922 52.3459 81.6512C52.3494 82.3908 52.4931 83.0255 52.7769 83.5554C53.071 84.0749 53.4792 84.474 54.0013 84.7527C54.5235 85.0315 55.1387 85.1692 55.8471 85.1658C56.5554 85.1625 57.1641 85.0189 57.6732 84.7353C58.1822 84.4516 58.571 84.0487 58.8393 83.5266C59.118 82.994 59.2556 82.3579 59.2521 81.6183ZM62.8594 71.3198C62.8648 72.4656 62.5676 73.4879 61.9677 74.3866C61.3678 75.2748 60.5325 75.9715 59.462 76.4766C58.4019 76.9817 57.1843 77.2375 55.8094 77.244C54.4344 77.2506 53.204 77.0064 52.1183 76.5116C51.043 76.0167 50.196 75.328 49.5772 74.4456C48.9688 73.5526 48.6618 72.5332 48.6564 71.3874C48.6499 70.0332 48.9518 68.886 49.5619 67.9456C50.172 66.9947 51.0071 66.272 52.0672 65.7773C53.1378 65.2827 54.3554 65.0321 55.7199 65.0256C57.1053 65.019 58.3357 65.2579 59.4109 65.7424C60.4861 66.2269 61.3281 66.9416 61.9368 67.8866C62.5454 68.8212 62.8529 69.9656 62.8594 71.3198ZM58.7352 71.5113C58.7321 70.8655 58.6097 70.3035 58.3678 69.8255C58.1259 69.3371 57.7804 68.9585 57.3311 68.6898C56.8924 68.4211 56.3605 68.2882 55.7355 68.2912C55.1313 68.294 54.6111 68.4267 54.1749 68.6892C53.7386 68.9517 53.4019 69.3283 53.1646 69.819C52.9273 70.2993 52.8102 70.8728 52.8134 71.5395C52.8165 72.1957 52.9391 72.7681 53.181 73.2565C53.4229 73.7449 53.7633 74.1287 54.2021 74.4079C54.6513 74.6766 55.1832 74.8095 55.7978 74.8066C56.4123 74.8036 56.9377 74.6657 57.3739 74.3928C57.8101 74.1095 58.1468 73.7225 58.384 73.2317C58.6213 72.741 58.7383 72.1675 58.7352 71.5113ZM81.6254 74.6524L81.6437 78.4804C81.652 80.2304 81.482 81.726 81.1338 82.9673C80.7855 84.2085 80.2799 85.2266 79.617 86.0214C78.9541 86.8058 78.16 87.3877 77.2347 87.7672C76.3094 88.1361 75.279 88.3233 74.1436 88.3288C73.2373 88.3331 72.3931 88.2225 71.6107 87.9971C70.8283 87.7612 70.1235 87.4 69.4962 86.9134C68.8792 86.4163 68.3449 85.7834 67.8934 85.0147C67.4522 84.246 67.1093 83.3257 66.8646 82.254C66.6303 81.1821 66.5099 79.9483 66.5032 78.5525L66.485 74.7244C66.4767 72.9745 66.6466 71.484 66.995 70.2532C67.3537 69.0223 67.8645 68.0147 68.5275 67.2303C69.1904 66.4458 69.9846 65.8743 70.9099 65.5158C71.8353 65.1468 72.8656 64.9596 74.0011 64.9542C74.9177 64.9498 75.762 65.0604 76.5339 65.2859C77.3162 65.5113 78.0159 65.8674 78.6328 66.354C79.26 66.8302 79.7943 67.4527 80.2354 68.2214C80.6765 68.9797 81.0142 69.8948 81.2485 70.9666C81.4931 72.028 81.6188 73.2565 81.6254 74.6524ZM77.5214 79.0626L77.4977 74.0939C77.4936 73.2189 77.4379 72.4587 77.3306 71.8134C77.2337 71.1576 77.0905 70.601 76.9008 70.1435C76.7111 69.6861 76.475 69.3174 76.1924 69.0375C75.9098 68.7472 75.5858 68.5352 75.2206 68.4015C74.8554 68.2678 74.454 68.202 74.0165 68.2041C73.4749 68.2067 72.991 68.3184 72.565 68.5392C72.1389 68.7495 71.7811 69.0846 71.4916 69.5443C71.2021 70.004 70.9811 70.6144 70.8285 71.3756C70.6862 72.1263 70.6177 73.0433 70.6228 74.1266L70.6465 79.0953C70.6506 79.9703 70.7011 80.7357 70.798 81.3915C70.9053 82.0472 71.0538 82.609 71.2436 83.0769C71.4437 83.5447 71.6799 83.929 71.9522 84.2298C72.2348 84.5201 72.5588 84.7373 72.924 84.8814C73.2893 85.0151 73.6906 85.0809 74.1281 85.0788C74.6802 85.0762 75.164 84.9645 75.5797 84.7438C76.0057 84.523 76.3634 84.1775 76.6529 83.7074C76.9422 83.2268 77.158 82.606 77.3003 81.8449C77.4528 81.0733 77.5265 80.1459 77.5214 79.0626Z" fill="white"/>
<defs>
<linearGradient id="paint0_linear_4698_38483" x1="88.1235" y1="53.5" x2="87.8845" y2="134" gradientUnits="userSpaceOnUse">
<stop stop-color="#AF5353"/>
<stop offset="1" stop-color="#B15454" stop-opacity="0"/>
</linearGradient>
</defs>
</svg>
