<svg width="182" height="132" viewBox="0 0 182 132" fill="none" xmlns="http://www.w3.org/2000/svg">
<rect width="182" height="130" rx="6" fill="#429746"/>
<mask id="mask0_6044_46496" style="mask-type:alpha" maskUnits="userSpaceOnUse" x="0" y="-25" width="182" height="157">
<rect y="-25" width="182" height="157" rx="6" fill="#FF5A7A" fill-opacity="0.3"/>
</mask>
<g mask="url(#mask0_6044_46496)">
<path d="M21.9655 83L-14.1207 119L8.36778 174L190.368 180L185.138 67.5L177.293 60L162.126 67.5L149.052 53.5L120.287 74.5L115.057 60L93.6149 87L77.9252 67.5L47.5919 96L21.9655 83Z" fill="url(#paint0_linear_6044_46496)" stroke="white" stroke-opacity="0.3"/>
</g>
<path d="M14.256 26.098C13.6027 26.098 13.0147 25.986 12.492 25.762C11.9693 25.5287 11.5587 25.202 11.26 24.782C10.9613 24.362 10.812 23.872 10.812 23.312H12.52C12.5573 23.732 12.7207 24.0773 13.01 24.348C13.3087 24.6187 13.724 24.754 14.256 24.754C14.8067 24.754 15.236 24.6233 15.544 24.362C15.852 24.0913 16.006 23.746 16.006 23.326C16.006 22.9993 15.908 22.7333 15.712 22.528C15.5253 22.3227 15.2873 22.164 14.998 22.052C14.718 21.94 14.326 21.8187 13.822 21.688C13.1873 21.52 12.6693 21.352 12.268 21.184C11.876 21.0067 11.54 20.736 11.26 20.372C10.98 20.008 10.84 19.5227 10.84 18.916C10.84 18.356 10.98 17.866 11.26 17.446C11.54 17.026 11.932 16.704 12.436 16.48C12.94 16.256 13.5233 16.144 14.186 16.144C15.1287 16.144 15.8987 16.382 16.496 16.858C17.1027 17.3247 17.4387 17.9687 17.504 18.79H15.74C15.712 18.4353 15.544 18.132 15.236 17.88C14.928 17.628 14.522 17.502 14.018 17.502C13.5607 17.502 13.1873 17.6187 12.898 17.852C12.6087 18.0853 12.464 18.4213 12.464 18.86C12.464 19.1587 12.5527 19.406 12.73 19.602C12.9167 19.7887 13.15 19.938 13.43 20.05C13.71 20.162 14.0927 20.2833 14.578 20.414C15.222 20.5913 15.7447 20.7687 16.146 20.946C16.5567 21.1233 16.902 21.3987 17.182 21.772C17.4713 22.136 17.616 22.626 17.616 23.242C17.616 23.7367 17.4807 24.2033 17.21 24.642C16.9487 25.0807 16.5613 25.4353 16.048 25.706C15.544 25.9673 14.9467 26.098 14.256 26.098ZM18.9672 22.136C18.9672 21.3427 19.1259 20.6473 19.4432 20.05C19.7699 19.4433 20.2179 18.9767 20.7872 18.65C21.3566 18.3233 22.0099 18.16 22.7472 18.16C23.6806 18.16 24.4506 18.384 25.0572 18.832C25.6732 19.2707 26.0886 19.9007 26.3032 20.722H24.5812C24.4412 20.3393 24.2172 20.0407 23.9092 19.826C23.6012 19.6113 23.2139 19.504 22.7472 19.504C22.0939 19.504 21.5712 19.7373 21.1792 20.204C20.7966 20.6613 20.6052 21.3053 20.6052 22.136C20.6052 22.9667 20.7966 23.6153 21.1792 24.082C21.5712 24.5487 22.0939 24.782 22.7472 24.782C23.6712 24.782 24.2826 24.376 24.5812 23.564H26.3032C26.0792 24.348 25.6592 24.9733 25.0432 25.44C24.4272 25.8973 23.6619 26.126 22.7472 26.126C22.0099 26.126 21.3566 25.9627 20.7872 25.636C20.2179 25.3 19.7699 24.8333 19.4432 24.236C19.1259 23.6293 18.9672 22.9293 18.9672 22.136ZM31.8838 18.16C32.4718 18.16 32.9944 18.286 33.4518 18.538C33.9184 18.79 34.2824 19.1633 34.5438 19.658C34.8144 20.1527 34.9498 20.75 34.9498 21.45V26H33.3678V21.688C33.3678 20.9973 33.1951 20.47 32.8498 20.106C32.5044 19.7327 32.0331 19.546 31.4358 19.546C30.8384 19.546 30.3624 19.7327 30.0078 20.106C29.6624 20.47 29.4898 20.9973 29.4898 21.688V26H27.8938V15.64H29.4898V19.182C29.7604 18.8553 30.1011 18.6033 30.5118 18.426C30.9318 18.2487 31.3891 18.16 31.8838 18.16ZM44.0555 21.954C44.0555 22.2433 44.0369 22.5047 43.9995 22.738H38.1055C38.1522 23.354 38.3809 23.8487 38.7915 24.222C39.2022 24.5953 39.7062 24.782 40.3035 24.782C41.1622 24.782 41.7689 24.4227 42.1235 23.704H43.8455C43.6122 24.4133 43.1875 24.9967 42.5715 25.454C41.9649 25.902 41.2089 26.126 40.3035 26.126C39.5662 26.126 38.9035 25.9627 38.3155 25.636C37.7369 25.3 37.2795 24.8333 36.9435 24.236C36.6169 23.6293 36.4535 22.9293 36.4535 22.136C36.4535 21.3427 36.6122 20.6473 36.9295 20.05C37.2562 19.4433 37.7089 18.9767 38.2875 18.65C38.8755 18.3233 39.5475 18.16 40.3035 18.16C41.0315 18.16 41.6802 18.3187 42.2495 18.636C42.8189 18.9533 43.2622 19.4013 43.5795 19.98C43.8969 20.5493 44.0555 21.2073 44.0555 21.954ZM42.3895 21.45C42.3802 20.862 42.1702 20.3907 41.7595 20.036C41.3489 19.6813 40.8402 19.504 40.2335 19.504C39.6829 19.504 39.2115 19.6813 38.8195 20.036C38.4275 20.3813 38.1942 20.8527 38.1195 21.45H42.3895ZM54.9642 18.16C55.5708 18.16 56.1122 18.286 56.5882 18.538C57.0735 18.79 57.4515 19.1633 57.7222 19.658C58.0022 20.1527 58.1422 20.75 58.1422 21.45V26H56.5602V21.688C56.5602 20.9973 56.3875 20.47 56.0422 20.106C55.6968 19.7327 55.2255 19.546 54.6282 19.546C54.0308 19.546 53.5548 19.7327 53.2002 20.106C52.8548 20.47 52.6822 20.9973 52.6822 21.688V26H51.1002V21.688C51.1002 20.9973 50.9275 20.47 50.5822 20.106C50.2368 19.7327 49.7655 19.546 49.1682 19.546C48.5708 19.546 48.0948 19.7327 47.7402 20.106C47.3948 20.47 47.2222 20.9973 47.2222 21.688V26H45.6262V18.286H47.2222V19.168C47.4835 18.8507 47.8148 18.6033 48.2162 18.426C48.6175 18.2487 49.0468 18.16 49.5042 18.16C50.1202 18.16 50.6708 18.2907 51.1562 18.552C51.6415 18.8133 52.0148 19.1913 52.2762 19.686C52.5095 19.2193 52.8735 18.8507 53.3682 18.58C53.8628 18.3 54.3948 18.16 54.9642 18.16ZM67.243 21.954C67.243 22.2433 67.2244 22.5047 67.187 22.738H61.293C61.3397 23.354 61.5684 23.8487 61.979 24.222C62.3897 24.5953 62.8937 24.782 63.491 24.782C64.3497 24.782 64.9564 24.4227 65.311 23.704H67.033C66.7997 24.4133 66.375 24.9967 65.759 25.454C65.1524 25.902 64.3964 26.126 63.491 26.126C62.7537 26.126 62.091 25.9627 61.503 25.636C60.9244 25.3 60.467 24.8333 60.131 24.236C59.8044 23.6293 59.641 22.9293 59.641 22.136C59.641 21.3427 59.7997 20.6473 60.117 20.05C60.4437 19.4433 60.8964 18.9767 61.475 18.65C62.063 18.3233 62.735 18.16 63.491 18.16C64.219 18.16 64.8677 18.3187 65.437 18.636C66.0064 18.9533 66.4497 19.4013 66.767 19.98C67.0844 20.5493 67.243 21.2073 67.243 21.954ZM65.577 21.45C65.5677 20.862 65.3577 20.3907 64.947 20.036C64.5364 19.6813 64.0277 19.504 63.421 19.504C62.8704 19.504 62.399 19.6813 62.007 20.036C61.615 20.3813 61.3817 20.8527 61.307 21.45H65.577ZM71.9184 21.114C71.9184 20.162 72.1377 19.308 72.5764 18.552C73.0244 17.796 73.6264 17.208 74.3824 16.788C75.1477 16.3587 75.9831 16.144 76.8884 16.144C77.9244 16.144 78.8437 16.4007 79.6464 16.914C80.4584 17.418 81.0464 18.1367 81.4104 19.07H79.4924C79.2404 18.5567 78.8904 18.174 78.4424 17.922C77.9944 17.67 77.4764 17.544 76.8884 17.544C76.2444 17.544 75.6704 17.6887 75.1664 17.978C74.6624 18.2673 74.2657 18.6827 73.9764 19.224C73.6964 19.7653 73.5564 20.3953 73.5564 21.114C73.5564 21.8327 73.6964 22.4627 73.9764 23.004C74.2657 23.5453 74.6624 23.9653 75.1664 24.264C75.6704 24.5533 76.2444 24.698 76.8884 24.698C77.4764 24.698 77.9944 24.572 78.4424 24.32C78.8904 24.068 79.2404 23.6853 79.4924 23.172H81.4104C81.0464 24.1053 80.4584 24.824 79.6464 25.328C78.8437 25.832 77.9244 26.084 76.8884 26.084C75.9737 26.084 75.1384 25.874 74.3824 25.454C73.6264 25.0247 73.0244 24.432 72.5764 23.676C72.1377 22.92 71.9184 22.066 71.9184 21.114ZM90.2645 18.286V26H88.6685V25.09C88.4165 25.4073 88.0852 25.6593 87.6745 25.846C87.2732 26.0233 86.8438 26.112 86.3865 26.112C85.7798 26.112 85.2338 25.986 84.7485 25.734C84.2725 25.482 83.8945 25.1087 83.6145 24.614C83.3438 24.1193 83.2085 23.522 83.2085 22.822V18.286H84.7905V22.584C84.7905 23.2747 84.9632 23.8067 85.3085 24.18C85.6538 24.544 86.1252 24.726 86.7225 24.726C87.3198 24.726 87.7912 24.544 88.1365 24.18C88.4912 23.8067 88.6685 23.2747 88.6685 22.584V18.286H90.2645ZM95.1703 26.126C94.5636 26.126 94.0176 26.0187 93.5323 25.804C93.0563 25.58 92.6783 25.2813 92.3983 24.908C92.1183 24.5253 91.969 24.1007 91.9503 23.634H93.6023C93.6303 23.9607 93.7843 24.236 94.0643 24.46C94.3536 24.6747 94.713 24.782 95.1423 24.782C95.5903 24.782 95.9356 24.698 96.1783 24.53C96.4303 24.3527 96.5563 24.1287 96.5563 23.858C96.5563 23.5687 96.4163 23.354 96.1363 23.214C95.8656 23.074 95.4316 22.92 94.8343 22.752C94.2556 22.5933 93.7843 22.4393 93.4203 22.29C93.0563 22.1407 92.739 21.912 92.4683 21.604C92.207 21.296 92.0763 20.89 92.0763 20.386C92.0763 19.9753 92.1976 19.602 92.4403 19.266C92.683 18.9207 93.0283 18.65 93.4763 18.454C93.9336 18.258 94.4563 18.16 95.0443 18.16C95.9216 18.16 96.6263 18.384 97.1583 18.832C97.6996 19.2707 97.989 19.8727 98.0263 20.638H96.4303C96.4023 20.2927 96.2623 20.0173 96.0103 19.812C95.7583 19.6067 95.4176 19.504 94.9883 19.504C94.5683 19.504 94.2463 19.5833 94.0223 19.742C93.7983 19.9007 93.6863 20.1107 93.6863 20.372C93.6863 20.5773 93.761 20.75 93.9103 20.89C94.0596 21.03 94.2416 21.142 94.4563 21.226C94.671 21.3007 94.9883 21.3987 95.4083 21.52C95.9683 21.6693 96.4256 21.8233 96.7803 21.982C97.1443 22.1313 97.457 22.3553 97.7183 22.654C97.9796 22.9527 98.115 23.3493 98.1243 23.844C98.1243 24.2827 98.003 24.6747 97.7603 25.02C97.5176 25.3653 97.1723 25.636 96.7243 25.832C96.2856 26.028 95.7676 26.126 95.1703 26.126ZM101.711 19.588V23.858C101.711 24.1473 101.776 24.3573 101.907 24.488C102.047 24.6093 102.28 24.67 102.607 24.67H103.587V26H102.327C101.608 26 101.057 25.832 100.675 25.496C100.292 25.16 100.101 24.614 100.101 23.858V19.588H99.1908V18.286H100.101V16.368H101.711V18.286H103.587V19.588H101.711ZM108.404 26.126C107.676 26.126 107.018 25.9627 106.43 25.636C105.842 25.3 105.38 24.8333 105.044 24.236C104.708 23.6293 104.54 22.9293 104.54 22.136C104.54 21.352 104.712 20.6567 105.058 20.05C105.403 19.4433 105.874 18.9767 106.472 18.65C107.069 18.3233 107.736 18.16 108.474 18.16C109.211 18.16 109.878 18.3233 110.476 18.65C111.073 18.9767 111.544 19.4433 111.89 20.05C112.235 20.6567 112.408 21.352 112.408 22.136C112.408 22.92 112.23 23.6153 111.876 24.222C111.521 24.8287 111.036 25.3 110.42 25.636C109.813 25.9627 109.141 26.126 108.404 26.126ZM108.404 24.74C108.814 24.74 109.197 24.642 109.552 24.446C109.916 24.25 110.21 23.956 110.434 23.564C110.658 23.172 110.77 22.696 110.77 22.136C110.77 21.576 110.662 21.1047 110.448 20.722C110.233 20.33 109.948 20.036 109.594 19.84C109.239 19.644 108.856 19.546 108.446 19.546C108.035 19.546 107.652 19.644 107.298 19.84C106.952 20.036 106.677 20.33 106.472 20.722C106.266 21.1047 106.164 21.576 106.164 22.136C106.164 22.9667 106.374 23.6107 106.794 24.068C107.223 24.516 107.76 24.74 108.404 24.74ZM123.324 18.16C123.93 18.16 124.472 18.286 124.948 18.538C125.433 18.79 125.811 19.1633 126.082 19.658C126.362 20.1527 126.502 20.75 126.502 21.45V26H124.92V21.688C124.92 20.9973 124.747 20.47 124.402 20.106C124.056 19.7327 123.585 19.546 122.988 19.546C122.39 19.546 121.914 19.7327 121.56 20.106C121.214 20.47 121.042 20.9973 121.042 21.688V26H119.46V21.688C119.46 20.9973 119.287 20.47 118.942 20.106C118.596 19.7327 118.125 19.546 117.528 19.546C116.93 19.546 116.454 19.7327 116.1 20.106C115.754 20.47 115.582 20.9973 115.582 21.688V26H113.986V18.286H115.582V19.168C115.843 18.8507 116.174 18.6033 116.576 18.426C116.977 18.2487 117.406 18.16 117.864 18.16C118.48 18.16 119.03 18.2907 119.516 18.552C120.001 18.8133 120.374 19.1913 120.636 19.686C120.869 19.2193 121.233 18.8507 121.728 18.58C122.222 18.3 122.754 18.16 123.324 18.16ZM135.602 21.954C135.602 22.2433 135.584 22.5047 135.546 22.738H129.652C129.699 23.354 129.928 23.8487 130.338 24.222C130.749 24.5953 131.253 24.782 131.85 24.782C132.709 24.782 133.316 24.4227 133.67 23.704H135.392C135.159 24.4133 134.734 24.9967 134.118 25.454C133.512 25.902 132.756 26.126 131.85 26.126C131.113 26.126 130.45 25.9627 129.862 25.636C129.284 25.3 128.826 24.8333 128.49 24.236C128.164 23.6293 128 22.9293 128 22.136C128 21.3427 128.159 20.6473 128.476 20.05C128.803 19.4433 129.256 18.9767 129.834 18.65C130.422 18.3233 131.094 18.16 131.85 18.16C132.578 18.16 133.227 18.3187 133.796 18.636C134.366 18.9533 134.809 19.4013 135.126 19.98C135.444 20.5493 135.602 21.2073 135.602 21.954ZM133.936 21.45C133.927 20.862 133.717 20.3907 133.306 20.036C132.896 19.6813 132.387 19.504 131.78 19.504C131.23 19.504 130.758 19.6813 130.366 20.036C129.974 20.3813 129.741 20.8527 129.666 21.45H133.936ZM138.769 19.406C139.002 19.014 139.31 18.7107 139.693 18.496C140.085 18.272 140.547 18.16 141.079 18.16V19.812H140.673C140.048 19.812 139.572 19.9707 139.245 20.288C138.928 20.6053 138.769 21.156 138.769 21.94V26H137.173V18.286H138.769V19.406ZM145.346 26.126C144.739 26.126 144.193 26.0187 143.708 25.804C143.232 25.58 142.854 25.2813 142.574 24.908C142.294 24.5253 142.145 24.1007 142.126 23.634H143.778C143.806 23.9607 143.96 24.236 144.24 24.46C144.529 24.6747 144.889 24.782 145.318 24.782C145.766 24.782 146.111 24.698 146.354 24.53C146.606 24.3527 146.732 24.1287 146.732 23.858C146.732 23.5687 146.592 23.354 146.312 23.214C146.041 23.074 145.607 22.92 145.01 22.752C144.431 22.5933 143.96 22.4393 143.596 22.29C143.232 22.1407 142.915 21.912 142.644 21.604C142.383 21.296 142.252 20.89 142.252 20.386C142.252 19.9753 142.373 19.602 142.616 19.266C142.859 18.9207 143.204 18.65 143.652 18.454C144.109 18.258 144.632 18.16 145.22 18.16C146.097 18.16 146.802 18.384 147.334 18.832C147.875 19.2707 148.165 19.8727 148.202 20.638H146.606C146.578 20.2927 146.438 20.0173 146.186 19.812C145.934 19.6067 145.593 19.504 145.164 19.504C144.744 19.504 144.422 19.5833 144.198 19.742C143.974 19.9007 143.862 20.1107 143.862 20.372C143.862 20.5773 143.937 20.75 144.086 20.89C144.235 21.03 144.417 21.142 144.632 21.226C144.847 21.3007 145.164 21.3987 145.584 21.52C146.144 21.6693 146.601 21.8233 146.956 21.982C147.32 22.1313 147.633 22.3553 147.894 22.654C148.155 22.9527 148.291 23.3493 148.3 23.844C148.3 24.2827 148.179 24.6747 147.936 25.02C147.693 25.3653 147.348 25.636 146.9 25.832C146.461 26.028 145.943 26.126 145.346 26.126Z" fill="white"/>
<path d="M102.193 106.25V104.794H105.105V115H103.495V106.25H102.193ZM112.785 107.16C112.682 106.731 112.496 106.409 112.225 106.194C111.954 105.979 111.576 105.872 111.091 105.872C110.354 105.872 109.803 106.157 109.439 106.726C109.075 107.286 108.884 108.219 108.865 109.526C109.108 109.115 109.462 108.798 109.929 108.574C110.396 108.35 110.9 108.238 111.441 108.238C112.057 108.238 112.598 108.373 113.065 108.644C113.541 108.905 113.91 109.288 114.171 109.792C114.442 110.296 114.577 110.898 114.577 111.598C114.577 112.251 114.446 112.835 114.185 113.348C113.933 113.861 113.555 114.267 113.051 114.566C112.547 114.855 111.94 115 111.231 115C110.27 115 109.514 114.79 108.963 114.37C108.422 113.941 108.039 113.339 107.815 112.564C107.6 111.789 107.493 110.823 107.493 109.666C107.493 106.25 108.697 104.542 111.105 104.542C112.038 104.542 112.771 104.794 113.303 105.298C113.844 105.802 114.162 106.423 114.255 107.16H112.785ZM111.091 109.582C110.522 109.582 110.036 109.755 109.635 110.1C109.243 110.436 109.047 110.926 109.047 111.57C109.047 112.214 109.229 112.727 109.593 113.11C109.966 113.483 110.484 113.67 111.147 113.67C111.735 113.67 112.197 113.488 112.533 113.124C112.878 112.76 113.051 112.275 113.051 111.668C113.051 111.033 112.883 110.529 112.547 110.156C112.22 109.773 111.735 109.582 111.091 109.582ZM116.279 109.764C116.279 108.149 116.55 106.889 117.091 105.984C117.642 105.069 118.585 104.612 119.919 104.612C121.254 104.612 122.192 105.069 122.733 105.984C123.284 106.889 123.559 108.149 123.559 109.764C123.559 111.397 123.284 112.676 122.733 113.6C122.192 114.515 121.254 114.972 119.919 114.972C118.585 114.972 117.642 114.515 117.091 113.6C116.55 112.676 116.279 111.397 116.279 109.764ZM121.991 109.764C121.991 109.008 121.94 108.369 121.837 107.846C121.744 107.323 121.548 106.899 121.249 106.572C120.951 106.236 120.507 106.068 119.919 106.068C119.331 106.068 118.888 106.236 118.589 106.572C118.291 106.899 118.09 107.323 117.987 107.846C117.894 108.369 117.847 109.008 117.847 109.764C117.847 110.548 117.894 111.206 117.987 111.738C118.081 112.27 118.277 112.699 118.575 113.026C118.883 113.353 119.331 113.516 119.919 113.516C120.507 113.516 120.951 113.353 121.249 113.026C121.557 112.699 121.758 112.27 121.851 111.738C121.945 111.206 121.991 110.548 121.991 109.764ZM135.381 105.27V106.572H132.791V115H131.195V106.572H128.591V105.27H135.381ZM140.343 115.126C139.615 115.126 138.957 114.963 138.369 114.636C137.781 114.3 137.319 113.833 136.983 113.236C136.647 112.629 136.479 111.929 136.479 111.136C136.479 110.352 136.652 109.657 136.997 109.05C137.343 108.443 137.814 107.977 138.411 107.65C139.009 107.323 139.676 107.16 140.413 107.16C141.151 107.16 141.818 107.323 142.415 107.65C143.013 107.977 143.484 108.443 143.829 109.05C144.175 109.657 144.347 110.352 144.347 111.136C144.347 111.92 144.17 112.615 143.815 113.222C143.461 113.829 142.975 114.3 142.359 114.636C141.753 114.963 141.081 115.126 140.343 115.126ZM140.343 113.74C140.754 113.74 141.137 113.642 141.491 113.446C141.855 113.25 142.149 112.956 142.373 112.564C142.597 112.172 142.709 111.696 142.709 111.136C142.709 110.576 142.602 110.105 142.387 109.722C142.173 109.33 141.888 109.036 141.533 108.84C141.179 108.644 140.796 108.546 140.385 108.546C139.975 108.546 139.592 108.644 139.237 108.84C138.892 109.036 138.617 109.33 138.411 109.722C138.206 110.105 138.103 110.576 138.103 111.136C138.103 111.967 138.313 112.611 138.733 113.068C139.163 113.516 139.699 113.74 140.343 113.74ZM145.393 111.108C145.393 110.333 145.552 109.647 145.869 109.05C146.196 108.453 146.634 107.991 147.185 107.664C147.745 107.328 148.366 107.16 149.047 107.16C149.551 107.16 150.046 107.272 150.531 107.496C151.026 107.711 151.418 108 151.707 108.364V104.64H153.317V115H151.707V113.838C151.446 114.211 151.082 114.519 150.615 114.762C150.158 115.005 149.63 115.126 149.033 115.126C148.361 115.126 147.745 114.958 147.185 114.622C146.634 114.277 146.196 113.801 145.869 113.194C145.552 112.578 145.393 111.883 145.393 111.108ZM151.707 111.136C151.707 110.604 151.595 110.142 151.371 109.75C151.156 109.358 150.872 109.059 150.517 108.854C150.162 108.649 149.78 108.546 149.369 108.546C148.958 108.546 148.576 108.649 148.221 108.854C147.866 109.05 147.577 109.344 147.353 109.736C147.138 110.119 147.031 110.576 147.031 111.108C147.031 111.64 147.138 112.107 147.353 112.508C147.577 112.909 147.866 113.217 148.221 113.432C148.585 113.637 148.968 113.74 149.369 113.74C149.78 113.74 150.162 113.637 150.517 113.432C150.872 113.227 151.156 112.928 151.371 112.536C151.595 112.135 151.707 111.668 151.707 111.136ZM154.881 111.108C154.881 110.333 155.04 109.647 155.357 109.05C155.684 108.453 156.123 107.991 156.673 107.664C157.233 107.328 157.849 107.16 158.521 107.16C159.128 107.16 159.655 107.281 160.103 107.524C160.561 107.757 160.925 108.051 161.195 108.406V107.286H162.805V115H161.195V113.852C160.925 114.216 160.556 114.519 160.089 114.762C159.623 115.005 159.091 115.126 158.493 115.126C157.831 115.126 157.224 114.958 156.673 114.622C156.123 114.277 155.684 113.801 155.357 113.194C155.04 112.578 154.881 111.883 154.881 111.108ZM161.195 111.136C161.195 110.604 161.083 110.142 160.859 109.75C160.645 109.358 160.36 109.059 160.005 108.854C159.651 108.649 159.268 108.546 158.857 108.546C158.447 108.546 158.064 108.649 157.709 108.854C157.355 109.05 157.065 109.344 156.841 109.736C156.627 110.119 156.519 110.576 156.519 111.108C156.519 111.64 156.627 112.107 156.841 112.508C157.065 112.909 157.355 113.217 157.709 113.432C158.073 113.637 158.456 113.74 158.857 113.74C159.268 113.74 159.651 113.637 160.005 113.432C160.36 113.227 160.645 112.928 160.859 112.536C161.083 112.135 161.195 111.668 161.195 111.136ZM171.846 107.286L167.114 118.626H165.462L167.03 114.874L163.992 107.286H165.77L167.94 113.166L170.194 107.286H171.846Z" fill="white"/>
<path d="M26.9562 65.4906L26.9669 67.7406L18.1271 88.2829L13.7678 88.3037L22.6123 68.7614L11.05 68.8164L11.0345 65.5664L26.9562 65.4906ZM45.1284 81.9356C45.1352 83.3522 44.8076 84.5517 44.1456 85.534C43.4939 86.5059 42.5964 87.2446 41.453 87.75C40.3199 88.245 39.0294 88.4959 37.5815 88.5028C36.144 88.5097 34.846 88.271 33.6874 87.787C32.5392 87.2924 31.6243 86.5624 30.9426 85.5969C30.2713 84.6209 29.9322 83.4246 29.9255 82.0079C29.921 81.06 30.1044 80.1998 30.4757 79.4272C30.8575 78.6545 31.3856 77.9905 32.06 77.4352C32.7344 76.8695 33.5344 76.4386 34.4601 76.1425C35.3858 75.836 36.3954 75.6802 37.4892 75.675C38.9475 75.668 40.2508 75.9275 41.3992 76.4533C42.5579 76.9686 43.4676 77.6986 44.1284 78.6434C44.7891 79.5778 45.1224 80.6752 45.1284 81.9356ZM40.9711 81.7054C40.9676 80.9762 40.8188 80.3467 40.5246 79.8168C40.2407 79.2765 39.8377 78.8618 39.3155 78.5726C38.7933 78.2834 38.1884 78.1404 37.5009 78.1437C36.803 78.147 36.1944 78.2958 35.6749 78.5899C35.1659 78.884 34.7668 79.3026 34.4778 79.8456C34.199 80.3782 34.0614 81.0091 34.0649 81.7382C34.0684 82.4778 34.2121 83.1126 34.4958 83.6425C34.79 84.1619 35.1981 84.561 35.7203 84.8398C36.2425 85.1185 36.8577 85.2562 37.566 85.2529C38.2744 85.2495 38.8831 85.106 39.3921 84.8223C39.9012 84.5386 40.2899 84.1357 40.5583 83.6136C40.837 83.081 40.9746 82.4449 40.9711 81.7054ZM44.5783 71.4068C44.5838 72.5526 44.2866 73.5749 43.6867 74.4736C43.0867 75.3619 42.2515 76.0586 41.181 76.5637C40.1208 77.0687 38.9033 77.3245 37.5283 77.3311C36.1533 77.3376 34.923 77.0935 33.8373 76.5986C32.762 76.1037 31.915 75.4151 31.2962 74.5326C30.6877 73.6396 30.3808 72.6203 30.3754 71.4744C30.3689 70.1203 30.6707 68.973 31.2809 68.0326C31.8909 67.0818 32.726 66.359 33.7862 65.8644C34.8568 65.3697 36.0743 65.1191 37.4389 65.1126C38.8243 65.106 40.0546 65.345 41.1298 65.8294C42.2051 66.3139 43.047 67.0286 43.6557 67.9737C44.2643 68.9083 44.5719 70.0527 44.5783 71.4068ZM40.4542 71.5983C40.4511 70.9525 40.3286 70.3906 40.0868 69.9126C39.8449 69.4241 39.4993 69.0456 39.0501 68.7769C38.6113 68.5081 38.0794 68.3752 37.4544 68.3782C36.8503 68.3811 36.3301 68.5138 35.8938 68.7763C35.4576 69.0388 35.1208 69.4154 34.8836 69.9061C34.6463 70.3864 34.5292 70.9599 34.5324 71.6265C34.5355 72.2828 34.658 72.8551 34.8999 73.3435C35.1418 73.832 35.4822 74.2158 35.921 74.4949C36.3702 74.7636 36.9021 74.8965 37.5167 74.8936C38.1313 74.8907 38.6567 74.7528 39.0929 74.4798C39.529 74.1965 39.8657 73.8095 40.103 73.3188C40.3402 72.8281 40.4573 72.2546 40.4542 71.5983ZM63.4095 81.8485C63.4162 83.2652 63.0886 84.4647 62.4266 85.447C61.775 86.4189 60.8774 87.1575 59.734 87.663C58.6009 88.158 57.3104 88.4089 55.8625 88.4158C54.4251 88.4226 53.127 88.184 51.9685 87.6999C50.8203 87.2054 49.9053 86.4754 49.2236 85.5099C48.5523 84.5339 48.2133 83.3376 48.2065 81.9209C48.202 80.973 48.3854 80.1127 48.7568 79.3401C49.1385 78.5675 49.6666 77.9035 50.341 77.3482C51.0154 76.7825 51.8155 76.3516 52.7412 76.0555C53.6668 75.749 54.6765 75.5932 55.7702 75.588C57.2285 75.581 58.5319 75.8404 59.6802 76.3662C60.8389 76.8815 61.7487 77.6116 62.4094 78.5564C63.0701 79.4907 63.4035 80.5881 63.4095 81.8485ZM59.2521 81.6183C59.2486 80.8892 59.0998 80.2597 58.8056 79.7298C58.5218 79.1895 58.1188 78.7747 57.5965 78.4855C57.0743 78.1964 56.4695 78.0534 55.782 78.0567C55.0841 78.06 54.4754 78.2087 53.956 78.5029C53.4469 78.797 53.0479 79.2155 52.7588 79.7586C52.4801 80.2912 52.3425 80.922 52.3459 81.6512C52.3494 82.3908 52.4931 83.0255 52.7769 83.5554C53.071 84.0749 53.4792 84.474 54.0013 84.7527C54.5235 85.0315 55.1387 85.1692 55.8471 85.1658C56.5554 85.1625 57.1641 85.0189 57.6732 84.7353C58.1822 84.4516 58.571 84.0487 58.8393 83.5266C59.118 82.994 59.2556 82.3579 59.2521 81.6183ZM62.8594 71.3198C62.8648 72.4656 62.5676 73.4879 61.9677 74.3866C61.3678 75.2748 60.5325 75.9715 59.462 76.4766C58.4019 76.9817 57.1843 77.2375 55.8094 77.244C54.4344 77.2506 53.204 77.0064 52.1183 76.5116C51.043 76.0167 50.196 75.328 49.5772 74.4456C48.9688 73.5526 48.6618 72.5332 48.6564 71.3874C48.6499 70.0332 48.9518 68.886 49.5619 67.9456C50.172 66.9947 51.0071 66.272 52.0672 65.7773C53.1378 65.2827 54.3554 65.0321 55.7199 65.0256C57.1053 65.019 58.3357 65.2579 59.4109 65.7424C60.4861 66.2269 61.3281 66.9416 61.9368 67.8866C62.5454 68.8212 62.8529 69.9656 62.8594 71.3198ZM58.7352 71.5113C58.7321 70.8655 58.6097 70.3035 58.3678 69.8255C58.1259 69.3371 57.7804 68.9585 57.3311 68.6898C56.8924 68.4211 56.3605 68.2882 55.7355 68.2912C55.1313 68.294 54.6111 68.4267 54.1749 68.6892C53.7386 68.9517 53.4019 69.3283 53.1646 69.819C52.9273 70.2993 52.8102 70.8728 52.8134 71.5395C52.8165 72.1957 52.9391 72.7681 53.181 73.2565C53.4229 73.7449 53.7633 74.1287 54.2021 74.4079C54.6513 74.6766 55.1832 74.8095 55.7978 74.8066C56.4123 74.8036 56.9377 74.6657 57.3739 74.3928C57.8101 74.1095 58.1468 73.7225 58.384 73.2317C58.6213 72.741 58.7383 72.1675 58.7352 71.5113ZM81.6254 74.6524L81.6437 78.4804C81.652 80.2304 81.482 81.726 81.1338 82.9673C80.7855 84.2085 80.2799 85.2266 79.617 86.0214C78.9541 86.8058 78.16 87.3877 77.2347 87.7672C76.3094 88.1361 75.279 88.3233 74.1436 88.3288C73.2373 88.3331 72.3931 88.2225 71.6107 87.9971C70.8283 87.7612 70.1235 87.4 69.4962 86.9134C68.8792 86.4163 68.3449 85.7834 67.8934 85.0147C67.4522 84.246 67.1093 83.3257 66.8646 82.254C66.6303 81.1821 66.5099 79.9483 66.5032 78.5525L66.485 74.7244C66.4767 72.9745 66.6466 71.484 66.995 70.2532C67.3537 69.0223 67.8645 68.0147 68.5275 67.2303C69.1904 66.4458 69.9846 65.8743 70.9099 65.5158C71.8353 65.1468 72.8656 64.9596 74.0011 64.9542C74.9177 64.9498 75.762 65.0604 76.5339 65.2859C77.3162 65.5113 78.0159 65.8674 78.6328 66.354C79.26 66.8302 79.7943 67.4527 80.2354 68.2214C80.6765 68.9797 81.0142 69.8948 81.2485 70.9666C81.4931 72.028 81.6188 73.2565 81.6254 74.6524ZM77.5214 79.0626L77.4977 74.0939C77.4936 73.2189 77.4379 72.4587 77.3306 71.8134C77.2337 71.1576 77.0905 70.601 76.9008 70.1435C76.7111 69.6861 76.475 69.3174 76.1924 69.0375C75.9098 68.7472 75.5858 68.5352 75.2206 68.4015C74.8554 68.2678 74.454 68.202 74.0165 68.2041C73.4749 68.2067 72.991 68.3184 72.565 68.5392C72.1389 68.7495 71.7811 69.0846 71.4916 69.5443C71.2021 70.004 70.9811 70.6144 70.8285 71.3756C70.6862 72.1263 70.6177 73.0433 70.6228 74.1266L70.6465 79.0953C70.6506 79.9703 70.7011 80.7357 70.798 81.3915C70.9053 82.0472 71.0538 82.609 71.2436 83.0769C71.4437 83.5447 71.6799 83.929 71.9522 84.2298C72.2348 84.5201 72.5588 84.7373 72.924 84.8814C73.2893 85.0151 73.6906 85.0809 74.1281 85.0788C74.6802 85.0762 75.164 84.9645 75.5797 84.7438C76.0057 84.523 76.3634 84.1775 76.6529 83.7074C76.9422 83.2268 77.158 82.606 77.3003 81.8449C77.4528 81.0733 77.5265 80.1459 77.5214 79.0626Z" fill="white"/>
<defs>
<linearGradient id="paint0_linear_6044_46496" x1="88.1235" y1="53.5" x2="87.8845" y2="134" gradientUnits="userSpaceOnUse">
<stop stop-color="#AF5353"/>
<stop offset="0.0001" stop-color="white"/>
<stop offset="1" stop-color="#B15454" stop-opacity="0"/>
</linearGradient>
</defs>
</svg>
