<svg width="20" height="21" viewBox="0 0 20 21" fill="none" xmlns="http://www.w3.org/2000/svg">
<path d="M1.56248 2.99997H6.56251C6.735 2.99997 6.87498 2.86013 6.87498 2.68749C6.87498 2.51484 6.735 2.375 6.56251 2.375H1.56248C1.38984 2.375 1.25 2.51484 1.25 2.68749C1.25 2.86013 1.38984 2.99997 1.56248 2.99997Z" fill="#2E2E2E"/>
<path d="M1.56248 4.87497H9.06252C9.23501 4.87497 9.375 4.73499 9.375 4.56249C9.375 4.38984 9.23501 4.25 9.06252 4.25H1.56248C1.38984 4.25 1.25 4.38984 1.25 4.56249C1.25 4.73499 1.38984 4.87497 1.56248 4.87497Z" fill="#2E2E2E"/>
<path d="M14.0622 16.4375H1.56248C1.38984 16.4375 1.25 16.5775 1.25 16.75C1.25 16.9226 1.38984 17.0626 1.56248 17.0626H14.0622C14.2347 17.0626 14.3747 16.9226 14.3747 16.75C14.3747 16.5775 14.2347 16.4375 14.0622 16.4375Z" fill="#2E2E2E"/>
<path d="M14.0622 18H1.56248C1.38984 18 1.25 18.1398 1.25 18.3125C1.25 18.4851 1.38984 18.625 1.56248 18.625H14.0622C14.2347 18.625 14.3747 18.4851 14.3747 18.3125C14.3747 18.1398 14.2347 18 14.0622 18Z" fill="#2E2E2E"/>
<path d="M19.6875 5.81256H18.75V4.25013C18.75 4.16712 18.7172 4.0877 18.6585 4.02915C18.5999 3.97044 18.5204 3.9375 18.4375 3.9375H16.5626C16.39 3.9375 16.25 4.07749 16.25 4.25013V18.0001C16.2501 18.042 16.2586 18.0834 16.275 18.122L17.2125 20.3095H17.2126C17.2617 20.4248 17.3747 20.4996 17.5001 20.4996C17.6254 20.4996 17.7384 20.4248 17.7875 20.3095L18.7249 18.122H18.7251C18.7415 18.0834 18.75 18.042 18.75 18.0001V6.4375H19.3749L19.3751 11.1249C19.3751 11.2976 19.5149 11.4374 19.6876 11.4374C19.8601 11.4374 20 11.2976 20 11.1249V6.12481C20 6.04194 19.9671 5.96253 19.9085 5.90383C19.8498 5.84527 19.7704 5.81232 19.6876 5.81232L19.6875 5.81256ZM18.125 4.5626V5.81256H16.8751V4.5626H18.125ZM17.5 19.3939L17.0375 18.3126H17.9749L17.5 19.3939ZM18.125 17.6876H16.8751V6.43735H18.125V17.6876Z" fill="#2E2E2E"/>
<path d="M11.3437 0.778101C11.1678 0.600422 10.9282 0.500287 10.6782 0.5H0.937431C0.68883 0.5 0.45043 0.598839 0.274641 0.774646C0.0988367 0.950454 0 1.18884 0 1.43745V19.5625C0 19.8112 0.0988367 20.0496 0.274641 20.2254C0.450444 20.4012 0.68883 20.5 0.937431 20.5H14.6875C14.9361 20.5 15.1747 20.4012 15.3504 20.2254C15.5262 20.0495 15.6249 19.8112 15.6249 19.5625V5.48109C15.6255 5.23291 15.5278 4.99467 15.353 4.81858L11.3437 0.778101ZM11.2499 1.57184L14.5281 4.87511H11.5625C11.3899 4.87511 11.2499 4.73512 11.2499 4.56262L11.2499 1.57184ZM14.6875 19.8752H0.937398C0.764902 19.8752 0.624919 19.7352 0.624919 19.5627V1.43761C0.624919 1.26511 0.764902 1.12513 0.937398 1.12513H10.6248V4.56275C10.6248 4.81136 10.7236 5.04976 10.8994 5.22556C11.0752 5.40151 11.3136 5.5002 11.5623 5.5002H14.9998V19.5629C14.9998 19.6458 14.9668 19.7252 14.9083 19.7837C14.8496 19.8424 14.7701 19.8754 14.6873 19.8754L14.6875 19.8752Z" fill="#2E2E2E"/>
<path d="M5.625 10.8125C5.625 11.3928 5.85547 11.9491 6.26577 12.3594C6.67594 12.7696 7.2324 13.0001 7.81247 13.0001C8.39269 13.0001 8.94901 12.7696 9.35933 12.3594C9.7695 11.9491 9.99999 11.3928 9.99999 10.8125C9.99999 10.2324 9.76951 9.67596 9.35933 9.26578C8.94901 8.85545 8.39269 8.625 7.81247 8.625C7.2324 8.625 6.67594 8.85548 6.26577 9.26578C5.85544 9.67596 5.625 10.2324 5.625 10.8125ZM9.37502 10.8125H9.37516C9.37516 11.227 9.21058 11.6244 8.91751 11.9174C8.62446 12.2104 8.2271 12.3751 7.81262 12.3751C7.39828 12.3751 7.00078 12.2104 6.70787 11.9174C6.41481 11.6244 6.25022 11.227 6.25022 10.8125C6.25022 10.3982 6.41481 10.0007 6.70787 9.70775C7.00078 9.41469 7.39828 9.25009 7.81262 9.25009C8.2271 9.25009 8.62446 9.41468 8.91751 9.70775C9.21057 10.0007 9.37516 10.3982 9.37516 10.8125H9.37502Z" fill="#2E2E2E"/>
<path d="M8.5841 6.67516C8.54886 6.53229 8.4188 6.43345 8.27162 6.43763H7.33419C7.18702 6.43346 7.05696 6.53229 7.02171 6.67516L6.80922 7.52197V7.52211C6.5845 7.58815 6.36756 7.67821 6.16227 7.79086L5.4123 7.34083C5.28958 7.26731 5.13248 7.28659 5.03104 7.38773L4.37488 8.05024C4.27374 8.15152 4.25446 8.30862 4.32798 8.43151L4.778 9.18149C4.66535 9.38679 4.57529 9.60361 4.50926 9.82831L3.66246 10.0408H3.66232C3.51946 10.0761 3.42062 10.2063 3.42494 10.3533V11.2907C3.42062 11.4379 3.51946 11.5681 3.66232 11.6034L4.50911 11.8159H4.50926C4.57529 12.0404 4.66535 12.2574 4.778 12.4627L4.32798 13.2127C4.26396 13.3309 4.2828 13.477 4.37488 13.5752L5.04989 14.2501C5.15118 14.3512 5.30828 14.3705 5.43116 14.297L6.18112 13.847C6.38642 13.9596 6.60323 14.0498 6.82793 14.1157L7.04042 14.9625V14.9627C7.07567 15.1055 7.20587 15.2044 7.3529 15.2002H8.29033C8.43751 15.2044 8.56771 15.1055 8.60296 14.9627L8.81545 14.1159V14.1157C9.04002 14.0498 9.25696 13.9596 9.46225 13.847L10.2122 14.297C10.3305 14.361 10.4766 14.3422 10.5748 14.2501L11.2496 13.5752C11.3508 13.4738 11.3701 13.3167 11.2965 13.1939L10.8465 12.444C10.9592 12.2387 11.0494 12.0217 11.1153 11.797L11.962 11.5845H11.9622C12.1051 11.5493 12.204 11.4192 12.1997 11.272V10.3346C12.204 10.1874 12.1051 10.0573 11.9622 10.0221L11.1154 9.80959H11.1153C11.0494 9.58486 10.9592 9.36791 10.8465 9.16262L11.2965 8.41264C11.3606 8.29438 11.3417 8.14835 11.2496 8.05023L10.5748 7.3752C10.4733 7.27406 10.3162 7.25478 10.1935 7.3283L9.44354 7.77833C9.23824 7.66568 9.02128 7.57562 8.79658 7.50958L8.5841 6.67516ZM9.60598 8.42203L10.3122 8.00021L10.6247 8.3127L10.2059 9.01278H10.2061C10.1502 9.10946 10.1502 9.22858 10.2061 9.32526C10.3617 9.57862 10.4765 9.855 10.5466 10.144C10.5735 10.2577 10.6614 10.3469 10.7748 10.3752L11.5623 10.572V11.0221L10.7748 11.2189V11.219C10.6614 11.2474 10.5735 11.3366 10.5466 11.4502C10.4765 11.7392 10.3617 12.0156 10.2061 12.269C10.1502 12.3656 10.1502 12.4848 10.2061 12.5814L10.6247 13.3127L10.3122 13.6252L9.61217 13.2064L9.61231 13.2065C9.51563 13.1507 9.39651 13.1507 9.29969 13.2065C9.04634 13.3622 8.77011 13.477 8.48096 13.5471C8.36745 13.574 8.27825 13.6619 8.24977 13.7753L8.03728 14.5628H7.58725L7.39044 13.7753C7.36196 13.6619 7.27276 13.574 7.15911 13.5471C6.87008 13.477 6.59384 13.3622 6.34038 13.2065C6.2437 13.1507 6.12458 13.1507 6.0279 13.2065L5.31229 13.6252L4.99981 13.3127L5.41861 12.6126V12.6128C5.47443 12.516 5.47443 12.3968 5.41861 12.3001C5.26294 12.0468 5.14799 11.7706 5.07793 11.4814C5.05103 11.3677 4.96312 11.2787 4.84976 11.2502L4.06237 11.0377V10.5877L4.84991 10.3909H4.84976C4.96313 10.3624 5.05103 10.2732 5.07793 10.1595C5.14799 9.87048 5.26294 9.59424 5.41861 9.34077C5.47443 9.24409 5.47443 9.12497 5.41861 9.02829L4.99982 8.31267L5.3123 8.00018L6.01236 8.41898C6.10904 8.4748 6.22816 8.4748 6.32484 8.41898C6.57819 8.26332 6.85456 8.14836 7.14357 8.0783C7.25722 8.0514 7.34642 7.96349 7.37476 7.85012L7.58725 7.06272H8.03727L8.23409 7.85027L8.23423 7.85013C8.26257 7.9635 8.35177 8.0514 8.46542 8.0783C8.75445 8.14837 9.03069 8.26332 9.28415 8.41899C9.38256 8.47941 9.50643 8.48057 9.60598 8.42201L9.60598 8.42203Z" fill="#2E2E2E"/>
</svg>
