<svg width="20" height="20" viewBox="0 0 20 20" fill="none" xmlns="http://www.w3.org/2000/svg">
<path d="M2.29953 11.6008V9.91581C2.29953 9.74326 2.43939 9.6034 2.61194 9.6034H9.6874V8.32668C9.6874 8.15414 9.82727 8.01427 9.99982 8.01427C10.1724 8.01427 10.3122 8.15413 10.3122 8.32668V9.6034H17.3877C17.5602 9.6034 17.7001 9.74326 17.7001 9.91581V11.6008C17.7001 11.7733 17.5602 11.9132 17.3877 11.9132C17.2151 11.9132 17.0753 11.7733 17.0753 11.6008V10.2282H10.313V11.6008C10.313 11.7733 10.1732 11.9132 10.0006 11.9132C9.82806 11.9132 9.68819 11.7733 9.68819 11.6008V10.2282H2.9248V11.6008C2.9248 11.7733 2.78494 11.9132 2.61239 11.9132C2.43955 11.9133 2.29968 11.7733 2.29968 11.6008H2.29953ZM5.89828 17.2922V19.6875C5.89828 19.8601 5.75842 19.9999 5.58587 19.9999C5.41332 19.9999 5.27345 19.8601 5.27345 19.6875V17.2922C5.27345 16.8172 4.72209 16.6095 4.39333 16.528C3.41781 16.2859 2.44674 16.2856 1.50729 16.5274C1.10476 16.6309 0.624825 16.8475 0.624825 17.2922V19.6875C0.624825 19.8601 0.484963 19.9999 0.312413 19.9999C0.139862 19.9999 0 19.8601 0 19.6875V17.2922C0 16.6424 0.492753 16.1428 1.35196 15.9221C1.60858 15.8562 1.86725 15.8066 2.12739 15.7731C1.72 15.4381 1.45029 14.8621 1.45029 14.2086C1.45029 13.5884 1.69307 13.2309 1.89684 13.0401C2.16155 12.7923 2.52535 12.6613 2.94951 12.6613C3.37367 12.6613 3.73745 12.7923 4.00218 13.0401C4.20579 13.2307 4.44872 13.5882 4.44872 14.2086C4.44872 14.8636 4.17768 15.4408 3.76854 15.7755C4.02663 15.8089 4.28545 15.8573 4.54442 15.9215C5.40449 16.1349 5.8983 16.6347 5.8983 17.2922L5.89828 17.2922ZM2.07505 14.2088C2.07505 14.8847 2.47535 15.4558 2.94911 15.4558C3.42287 15.4558 3.82317 14.8848 3.82317 14.2088C3.82317 13.4466 3.34779 13.2864 2.94911 13.2864C2.55043 13.2866 2.07505 13.4466 2.07505 14.2088ZM1.51046 17.5304C1.33792 17.5304 1.19805 17.6703 1.19805 17.8428V19.6874C1.19805 19.8599 1.33791 19.9998 1.51046 19.9998C1.68301 19.9998 1.82287 19.8599 1.82287 19.6874V17.8428C1.82287 17.6704 1.68316 17.5304 1.51046 17.5304ZM4.38783 17.5304C4.21529 17.5304 4.07542 17.6703 4.07542 17.8428V19.6874C4.07542 19.8599 4.21528 19.9998 4.38783 19.9998C4.56038 19.9998 4.70025 19.8599 4.70025 19.6874V17.8428C4.70025 17.6704 4.56038 17.5304 4.38783 17.5304ZM20 17.2922V19.6876C20 19.8601 19.8601 20 19.6876 20C19.515 20 19.3752 19.8601 19.3752 19.6876V17.2922C19.3752 16.8173 18.8238 16.6096 18.495 16.528C17.5194 16.286 16.5484 16.2857 15.609 16.5274C15.2065 16.6309 14.7265 16.8475 14.7265 17.2922V19.6876C14.7265 19.8601 14.5867 20 14.4141 20C14.2416 20 14.1017 19.8601 14.1017 19.6876V17.2922C14.1017 16.6424 14.5945 16.1429 15.4537 15.9222C15.7103 15.8562 15.969 15.8066 16.2291 15.7732C15.8217 15.4381 15.552 14.8623 15.552 14.2086C15.552 13.5884 15.7948 13.2309 15.9985 13.0401C16.2632 12.7923 16.627 12.6613 17.0512 12.6613C17.4751 12.6613 17.8391 12.7923 18.1039 13.0401C18.3075 13.2308 18.5504 13.5882 18.5504 14.2086C18.5504 14.8636 18.2794 15.4409 17.8702 15.7755C18.1283 15.8089 18.3872 15.8574 18.6461 15.9216C19.5065 16.1349 20 16.6347 20 17.2922L20 17.2922ZM16.1767 14.2088C16.1767 14.8847 16.577 15.4558 17.0508 15.4558C17.5246 15.4558 17.9249 14.8849 17.9249 14.2088C17.9249 13.4466 17.4495 13.2864 17.0508 13.2864C16.6521 13.2866 16.1767 13.4466 16.1767 14.2088ZM15.6122 17.5305C15.4396 17.5305 15.2997 17.6703 15.2997 17.8429V19.6874C15.2997 19.8599 15.4396 19.9998 15.6122 19.9998C15.7847 19.9998 15.9246 19.86 15.9246 19.6874V17.8429C15.9249 17.6705 15.7849 17.5305 15.6122 17.5305ZM18.4895 17.5305C18.317 17.5305 18.1771 17.6703 18.1771 17.8429V19.6874C18.1771 19.8599 18.317 19.9998 18.4895 19.9998C18.6621 19.9998 18.8019 19.86 18.8019 19.6874V17.8429C18.8019 17.6705 18.6621 17.5305 18.4895 17.5305ZM12.9492 17.2922V19.6876C12.9492 19.8601 12.8093 20 12.6368 20C12.4642 20 12.3243 19.8601 12.3243 19.6876V17.2922C12.3243 16.8173 11.773 16.6096 11.4442 16.528C10.4685 16.286 9.49763 16.2857 8.55818 16.5274C8.15565 16.6309 7.67571 16.8475 7.67571 17.2923V19.6876C7.67571 19.8601 7.53585 20 7.3633 20C7.19075 20 7.05089 19.8601 7.05089 19.6876V17.2923C7.05089 16.6424 7.54364 16.1429 8.40285 15.9222C8.65946 15.8562 8.91814 15.8066 9.17827 15.7732C8.77089 15.4381 8.50118 14.8623 8.50118 14.2087C8.50118 13.5884 8.74395 13.231 8.94773 13.0401C9.21243 12.7924 9.57624 12.6613 10.0004 12.6613C10.4246 12.6613 10.7883 12.7924 11.0531 13.0401C11.2567 13.2308 11.4996 13.5883 11.4996 14.2087C11.4996 14.8637 11.2286 15.4409 10.8194 15.7755C11.0775 15.809 11.3363 15.8574 11.5953 15.9216C12.4554 16.1349 12.9492 16.6347 12.9492 17.2922L12.9492 17.2922ZM9.12556 14.2088C9.12556 14.8847 9.52586 15.4558 9.99962 15.4558C10.4734 15.4558 10.8737 14.8849 10.8737 14.2088C10.8737 13.4466 10.3983 13.2865 9.99962 13.2865C9.60079 13.2866 9.12556 13.4466 9.12556 14.2088ZM8.56108 17.5305C8.38854 17.5305 8.24867 17.6703 8.24867 17.8429V19.6874C8.24867 19.86 8.38853 19.9998 8.56108 19.9998C8.73363 19.9998 8.8735 19.86 8.8735 19.6874V17.8429C8.8735 17.6705 8.73363 17.5305 8.56108 17.5305ZM11.4382 17.5305C11.2656 17.5305 11.1257 17.6703 11.1257 17.8429V19.6874C11.1257 19.86 11.2656 19.9998 11.4382 19.9998C11.6107 19.9998 11.7506 19.86 11.7506 19.6874V17.8429C11.7507 17.6705 11.6107 17.5305 11.4382 17.5305ZM8.08069 3.73063C8.08069 2.67255 8.94137 1.81173 9.99962 1.81173C11.0577 1.81173 11.9185 2.6724 11.9185 3.73063C11.9185 4.78872 11.0577 5.64938 9.99962 5.64938C8.94152 5.64938 8.08069 4.78856 8.08069 3.73063ZM8.70581 3.73063C8.70581 4.44409 9.28616 5.02442 9.99962 5.02442C10.7131 5.02442 11.2934 4.44409 11.2934 3.73063C11.2934 3.01718 10.7131 2.43684 9.99962 2.43684C9.28616 2.4367 8.70581 3.01718 8.70581 3.73063ZM6.26911 4.07219V3.38908C6.26911 3.25981 6.34876 3.14395 6.46933 3.09728L6.88599 2.93681C6.96166 2.63868 7.079 2.35511 7.23683 2.09042L7.05545 1.68187C7.00289 1.5638 7.02865 1.42556 7.12008 1.33413L7.60326 0.85111C7.69468 0.759683 7.83308 0.733919 7.951 0.78648L8.35956 0.967859C8.62441 0.810036 8.90783 0.692552 9.20595 0.617026L9.36643 0.200223C9.4128 0.0795013 9.52867 0 9.65823 0H10.3414C10.4706 0 10.5865 0.0796483 10.6332 0.200223L10.7936 0.617026C11.0918 0.692699 11.3752 0.810036 11.64 0.967859L12.0486 0.78648C12.1666 0.733923 12.3049 0.759686 12.3963 0.85111L12.8793 1.33413C12.9708 1.42556 12.9965 1.56395 12.944 1.68187L12.7626 2.09012C12.9204 2.35483 13.0379 2.63838 13.1134 2.93681L13.5301 3.09713C13.6508 3.14351 13.7303 3.25937 13.7303 3.38893V4.07204C13.7303 4.2013 13.6507 4.31717 13.5301 4.36384L13.1133 4.52431C13.0376 4.82244 12.9203 5.10585 12.7624 5.37069L12.9438 5.77924C12.9964 5.89732 12.9706 6.03556 12.8792 6.12699L12.396 6.61001C12.3046 6.70144 12.1662 6.7272 12.0483 6.67464L11.64 6.49326C11.3753 6.65108 11.0917 6.76857 10.7933 6.84409L10.6328 7.26074C10.5865 7.38147 10.4703 7.46097 10.341 7.46097H9.65793C9.52866 7.46097 9.4128 7.38132 9.36613 7.26074L9.20565 6.84394C8.90752 6.76827 8.6241 6.65093 8.35926 6.49311L7.9507 6.67449C7.83263 6.72705 7.69438 6.70128 7.60296 6.60986L7.11993 6.12684C7.0285 6.03541 7.00273 5.89702 7.0553 5.77909L7.23668 5.37085C7.07885 5.10614 6.96137 4.82258 6.88584 4.52416L6.46918 4.36384C6.34875 4.31731 6.2691 4.20145 6.2691 4.07219L6.26911 4.07219ZM6.89423 3.85769L7.26641 4.00108C7.36667 4.0398 7.44014 4.12711 7.46075 4.23252C7.52685 4.56936 7.65773 4.88529 7.84985 5.17105C7.90962 5.26027 7.91949 5.37392 7.87606 5.47197L7.71396 5.83694L7.89358 6.01655L8.25855 5.85446C8.3566 5.81088 8.47055 5.82059 8.55948 5.88066C8.84553 6.07264 9.16119 6.20367 9.49787 6.26961C9.60343 6.29022 9.69073 6.36369 9.72931 6.46395L9.8727 6.83642H10.1267L10.2701 6.46424C10.3088 6.36398 10.3961 6.29051 10.5015 6.26991C10.8384 6.2038 11.1543 6.07292 11.44 5.88096C11.5293 5.82089 11.6429 5.81132 11.741 5.85475L12.1059 6.01684L12.2856 5.83723L12.1235 5.47212C12.0799 5.37377 12.0899 5.26012 12.1497 5.1712C12.3417 4.88514 12.4727 4.56964 12.5386 4.23281C12.5592 4.12725 12.6327 4.03995 12.733 4.00138L13.1054 3.85798V3.60402L12.7333 3.46063C12.633 3.42191 12.5595 3.3346 12.5389 3.22919C12.4728 2.89235 12.3419 2.57672 12.15 2.29066C12.0899 2.20144 12.0803 2.08779 12.1238 1.98974L12.2859 1.62477L12.1058 1.44472L11.7408 1.60696C11.6425 1.65054 11.5288 1.64053 11.4399 1.58075C11.1538 1.38877 10.8382 1.25775 10.5015 1.1918C10.3962 1.17119 10.3086 1.09773 10.2701 0.997471L10.1267 0.624997H9.87271L9.72916 0.997324C9.69045 1.09758 9.60314 1.17105 9.49773 1.19166C9.16117 1.25776 8.84536 1.38864 8.55933 1.58061C8.47011 1.64038 8.35646 1.65025 8.2584 1.60681L7.89343 1.44472L7.71382 1.62433L7.87592 1.9893C7.91949 2.08764 7.90948 2.2013 7.84971 2.29022C7.65773 2.57598 7.5267 2.89178 7.46075 3.2286C7.44014 3.33416 7.36668 3.42147 7.26642 3.46004L6.89394 3.60343V3.85769H6.89423Z" fill="white"/>
</svg>
