<svg width="20" height="21" viewBox="0 0 20 21" fill="none" xmlns="http://www.w3.org/2000/svg">
<path d="M1.44723 9.01062H7.2076C7.99089 9.01062 8.65238 8.43779 8.65238 7.65421V1.89391C8.65238 1.11048 7.99104 0.5 7.2076 0.5H1.44723C0.663945 0.5 0 1.11048 0 1.89391V7.65421C0 8.43764 0.663982 9.01048 1.44723 9.01048V9.01062ZM1.41861 1.91887H7.23403V7.5925L1.41861 7.59235V1.91887Z" fill="#2E2E2E"/>
<path d="M12.8813 9.01062H18.6417C19.425 9.01062 20 8.43779 20 7.65421V1.89391C19.9998 1.11048 19.425 0.5 18.6415 0.5H12.8812C12.0979 0.5 11.4891 1.11033 11.4891 1.89391V7.65421C11.4893 8.43764 12.0977 9.01048 12.8813 9.01048V9.01062ZM12.9076 1.91887H18.5813V7.5925L12.9076 7.59235V1.91887Z" fill="#2E2E2E"/>
<path d="M1.44723 20.4999H7.2076C7.99089 20.4999 8.65238 19.8716 8.65238 19.0883V13.328C8.65238 12.5447 7.99089 11.8477 7.2076 11.8477H1.44723C0.663945 11.8477 0 12.5446 0 13.328V19.0883C0 19.8716 0.663982 20.4999 1.44723 20.4999ZM1.41861 13.2661H7.23403V19.0814H1.41861V13.2661Z" fill="#2E2E2E"/>
<path d="M12.8813 20.4999H18.6416C19.4249 20.4999 20 19.8716 20 19.0883V13.328C20 12.5447 19.4252 11.8477 18.6416 11.8477H12.8813C12.098 11.8477 11.4893 12.5447 11.4893 13.328V19.0883C11.4893 19.8716 12.0977 20.4999 12.8813 20.4999ZM12.9076 13.2661H18.5813V19.0814H12.9076V13.2661Z" fill="#2E2E2E"/>
</svg>
