<svg width="20" height="15" viewBox="0 0 20 15" fill="none" xmlns="http://www.w3.org/2000/svg">
<path fill-rule="evenodd" clip-rule="evenodd" d="M16.1603 2.67237C15.7535 2.81623 15.462 3.20445 15.462 3.66001C15.462 4.23805 15.9313 4.70733 16.5094 4.70733C16.702 4.70733 16.8585 4.86381 16.8585 5.05644C16.8585 5.24907 16.702 5.40555 16.5094 5.40555C16.3173 5.40555 16.1613 5.25016 16.1603 5.05847V5.05426C16.1592 4.86256 16.0032 4.70718 15.8111 4.70718C15.6185 4.70718 15.462 4.86365 15.462 5.05629C15.462 5.51184 15.7535 5.90005 16.1603 6.04392V6.27817C16.1603 6.4708 16.3167 6.62727 16.5094 6.62727C16.702 6.62727 16.8585 6.4708 16.8585 6.27817V6.04392C17.2652 5.90007 17.5567 5.51184 17.5567 5.05629C17.5567 4.47824 17.0874 4.00896 16.5094 4.00896C16.3167 4.00896 16.1603 3.85249 16.1603 3.65986C16.1603 3.46722 16.3167 3.31075 16.5094 3.31075C16.702 3.31075 16.8585 3.46722 16.8585 3.65986C16.8585 3.85249 17.0149 4.00896 17.2076 4.00896C17.4002 4.00896 17.5567 3.85249 17.5567 3.65986C17.5567 3.2043 17.2652 2.81609 16.8585 2.67222V2.43797C16.8585 2.24534 16.702 2.08887 16.5094 2.08887C16.3167 2.08887 16.1603 2.24534 16.1603 2.43797V2.67237Z" fill="#2E2E2E"/>
<path fill-rule="evenodd" clip-rule="evenodd" d="M16.509 0.867188C14.5822 0.867188 13.0179 2.43147 13.0179 4.35826C13.0179 6.28506 14.5822 7.84934 16.509 7.84934C18.4358 7.84934 20.0001 6.28506 20.0001 4.35826C20.0001 2.43147 18.4358 0.867188 16.509 0.867188ZM16.509 1.5654C18.0504 1.5654 19.3019 2.81688 19.3019 4.35826C19.3019 5.89964 18.0504 7.15112 16.509 7.15112C14.9676 7.15112 13.7162 5.89964 13.7162 4.35826C13.7162 2.81688 14.9676 1.5654 16.509 1.5654Z" fill="#2E2E2E"/>
<path fill-rule="evenodd" clip-rule="evenodd" d="M3.25244 9.59507H1.93597C1.49569 9.59507 1.1023 9.87045 0.951765 10.2845C0.73326 10.8856 0.345036 11.9532 0.062957 12.7283C-0.053621 13.0492 -0.00655345 13.4074 0.189665 13.6869C0.385572 13.9668 0.705706 14.1334 1.04747 14.1334H6.03592C6.29635 14.1334 6.54414 14.0368 6.73414 13.8668C6.92412 14.0368 7.17194 14.1334 7.43235 14.1334H12.4208C12.7626 14.1334 13.0827 13.967 13.2786 13.6869C13.4748 13.4073 13.5219 13.0492 13.4053 12.7283L12.5165 10.2845C12.3661 9.87044 11.9726 9.59507 11.5323 9.59507H10.2158C10.2958 9.36877 10.2964 9.11892 10.2127 8.88811L9.32418 6.44436C9.17332 6.03026 8.78025 5.75488 8.33966 5.75488H5.12851C4.68791 5.75488 4.29484 6.03027 4.14398 6.44436C3.92548 7.04546 3.53726 8.11305 3.25546 8.88811C3.17161 9.11893 3.17239 9.36876 3.25234 9.59507H3.25244ZM1.93597 10.2933H5.14744C5.2941 10.2933 5.42532 10.3851 5.47519 10.523L6.364 12.9668C6.40281 13.074 6.38707 13.1934 6.32177 13.2866C6.25646 13.3798 6.14971 13.4353 6.03578 13.4353H1.04733C0.933555 13.4353 0.826645 13.3798 0.76134 13.2866C0.696039 13.1934 0.680299 13.074 0.719104 12.9668L1.60763 10.523C1.65797 10.3851 1.7892 10.2933 1.93586 10.2933H1.93597ZM11.8606 10.523L12.7491 12.9668C12.7879 13.074 12.7722 13.1934 12.7069 13.2866C12.6416 13.3798 12.5348 13.4353 12.4209 13.4353H7.43246C7.31868 13.4353 7.21177 13.3798 7.14647 13.2866C7.08116 13.1934 7.06543 13.074 7.10423 12.9668L7.99304 10.523C8.04291 10.3851 8.17429 10.2933 8.32079 10.2933H11.5323C11.6789 10.2933 11.8101 10.3851 11.8605 10.523H11.8606ZM6.7345 11.9417L7.33389 10.2933H6.13508L6.7345 11.9417ZM9.22893 9.5951H4.24008C4.12631 9.5951 4.0194 9.53962 3.95409 9.44641C3.88879 9.35322 3.87305 9.23383 3.91217 9.12661L4.80069 6.68285C4.85103 6.54493 4.98195 6.45313 5.12892 6.45313H8.34007C8.48704 6.45313 8.61795 6.54493 8.6683 6.68285L9.55682 9.12661C9.59594 9.23383 9.5802 9.35322 9.5149 9.44641C9.4496 9.53961 9.34284 9.5951 9.22891 9.5951H9.22893Z" fill="#2E2E2E"/>
<path fill-rule="evenodd" clip-rule="evenodd" d="M7.08323 4.00921V2.61278C7.08323 2.42015 6.92675 2.26367 6.73412 2.26367C6.54149 2.26367 6.38501 2.42015 6.38501 2.61278V4.00921C6.38501 4.20184 6.54149 4.35832 6.73412 4.35832C6.92675 4.35832 7.08323 4.20184 7.08323 4.00921Z" fill="#2E2E2E"/>
<path fill-rule="evenodd" clip-rule="evenodd" d="M9.13133 4.74564L9.82955 3.53637C9.92586 3.36945 9.86867 3.15578 9.70175 3.05947C9.53483 2.96315 9.32116 3.02035 9.22485 3.18727L8.52663 4.39654C8.43032 4.56345 8.48752 4.77713 8.65443 4.87344C8.82135 4.96976 9.03502 4.91256 9.13133 4.74564Z" fill="#2E2E2E"/>
<path fill-rule="evenodd" clip-rule="evenodd" d="M4.94283 4.39654L4.24461 3.18727C4.1483 3.02035 3.93463 2.96315 3.76771 3.05947C3.60079 3.15579 3.5436 3.36946 3.63991 3.53637L4.33813 4.74564C4.43445 4.91256 4.64812 4.96976 4.81503 4.87344C4.98195 4.77712 5.03915 4.56345 4.94283 4.39654Z" fill="#2E2E2E"/>
<path fill-rule="evenodd" clip-rule="evenodd" d="M16.16 9.73982V13.7847C16.16 13.9773 16.3165 14.1338 16.5092 14.1338C16.7018 14.1338 16.8583 13.9773 16.8583 13.7847V9.73982L17.6587 10.5403C17.7949 10.6765 18.0162 10.6765 18.1523 10.5403C18.2885 10.404 18.2885 10.1827 18.1523 10.0467L16.7558 8.65025C16.6196 8.51372 16.3983 8.51372 16.2623 8.65025L14.8658 10.0467C14.7296 10.1829 14.7296 10.4042 14.8658 10.5403C15.002 10.6765 15.2234 10.6765 15.3594 10.5403L16.1598 9.73982H16.16Z" fill="#2E2E2E"/>
</svg>
