<svg width="20" height="20" viewBox="0 0 20 20" fill="none" xmlns="http://www.w3.org/2000/svg">
<path d="M11.1347 17.9441L9.89413 18.8511L9.89427 10.597L18.4872 5.72926L18.487 11.2017C18.487 11.3831 18.608 11.504 18.7896 11.504C18.9711 11.504 19.0921 11.3831 19.0921 11.2017L19.0923 5.21528C19.0923 5.12465 19.0317 5.00361 18.941 4.94323C18.8502 4.91297 9.80322 0.105597 9.71247 0.045388C9.62176 -0.0151293 9.50064 -0.0151293 9.44021 0.045388L0.181551 5.09449C0.090845 5.15487 0 5.2759 0 5.36654V14.1949C0 14.3157 0.0605635 14.4065 0.151269 14.4669L9.40993 19.6974C9.53092 19.7579 9.65204 19.7579 9.74275 19.6671L11.4674 18.4275C11.5884 18.3368 11.6187 18.1554 11.528 18.0041C11.4373 17.8835 11.2557 17.8533 11.1346 17.944L11.1347 17.9441ZM9.56133 10.0831L6.3844 8.32951L15.1287 3.58292L18.1544 5.2459L9.56133 10.0831ZM14.4629 3.28063L5.59775 8.0878C5.50704 8.14831 5.44648 8.23895 5.44648 8.35985L5.44633 10.8996L3.81251 9.99257V7.27153L12.7989 2.37369L14.4629 3.28063ZM9.56133 0.650348L12.1332 2.04114L3.51014 6.78773L0.938288 5.39694L9.56133 0.650348ZM0.605417 5.88081L3.20754 7.30185V10.2043C3.20754 10.3252 3.26811 10.416 3.35881 10.4764L5.59783 11.716C5.68853 11.7765 5.80966 11.7765 5.90036 11.716C5.99107 11.6555 6.05163 11.5649 6.05163 11.444V8.87407L9.28911 10.6277V18.942L0.605446 14.0141L0.605417 5.88081Z" fill="#2E2E2E"/>
<path d="M19.6974 14.7088L18.9107 14.5879C18.82 14.2553 18.6989 13.953 18.5174 13.6506L19.0015 13.0157C19.0922 12.8948 19.0922 12.7134 18.9712 12.5924L18.3055 11.9272C18.1846 11.8064 18.0333 11.8064 17.9122 11.897L17.2768 12.4111C16.9743 12.2297 16.6717 12.1088 16.3388 12.018L16.2178 11.232C16.1875 11.0809 16.0665 10.96 15.9152 10.96H14.9772C14.826 10.96 14.705 11.0809 14.6747 11.232L14.5537 12.018C14.2209 12.1087 13.9183 12.2297 13.6157 12.4111L12.9803 11.9274C12.8593 11.8367 12.6778 11.8367 12.5869 11.9576L11.9213 12.6228C11.8003 12.7437 11.8003 12.8948 11.891 13.0159L12.3751 13.6507C12.1936 13.953 12.0726 14.2553 11.9817 14.588L11.1951 14.7089C11.0438 14.7392 10.9229 14.8601 10.9229 15.0112V15.9486C10.9229 16.0997 11.0438 16.2206 11.1951 16.2509L11.9817 16.3718C12.0724 16.7043 12.1936 17.0066 12.3751 17.3091L11.891 17.9439C11.8003 18.0648 11.8003 18.2462 11.9213 18.337L12.5869 19.0021C12.7079 19.123 12.8592 19.123 12.9803 19.0324L13.6157 18.5487C13.9182 18.7301 14.2208 18.851 14.5537 18.9418L14.6747 19.7278C14.705 19.8789 14.826 19.9998 14.9772 19.9998H15.9152C16.0665 19.9998 16.1875 19.8789 16.2178 19.7278L16.3388 18.9418C16.6716 18.8511 16.9741 18.7301 17.2768 18.5487L17.9122 19.0324C17.9727 19.0627 18.0331 19.0929 18.0937 19.0929C18.1844 19.0929 18.2753 19.0627 18.3358 19.0023L19.0015 18.3372C19.1224 18.2163 19.1224 18.0651 19.0317 17.9441L18.5476 17.3092C18.7292 17.0069 18.8502 16.7046 18.941 16.3719L19.7276 16.251C19.8789 16.2207 19.9999 16.0998 19.9999 15.9487V15.0114C19.9698 14.8601 19.8486 14.7088 19.6974 14.7088V14.7088ZM19.3645 15.6764L18.6383 15.767C18.5173 15.7972 18.3962 15.8879 18.3661 16.0089C18.3055 16.402 18.124 16.7648 17.9122 17.1275C17.8517 17.2484 17.8517 17.3694 17.9122 17.4903L18.3661 18.095L18.0635 18.3973L17.4584 17.9438C17.3677 17.8532 17.2163 17.8532 17.0953 17.9438C16.7625 18.1857 16.3994 18.3369 16.0061 18.3973C15.8851 18.4275 15.7942 18.5182 15.7639 18.6693L15.7035 19.3648H15.2799L15.1892 18.6089C15.1589 18.488 15.0682 18.367 14.947 18.3369C14.5537 18.2462 14.1906 18.0949 13.8578 17.8834C13.7368 17.8229 13.6156 17.8229 13.4947 17.8834L12.8896 18.3369L12.587 18.0346L13.0409 17.4601C13.1316 17.3695 13.1316 17.188 13.0409 17.0973C12.829 16.7647 12.6778 16.4019 12.587 16.0088C12.5568 15.8879 12.466 15.7971 12.3148 15.7669L11.5886 15.6762V15.2529L12.3148 15.1623C12.4358 15.132 12.5569 15.0414 12.587 14.9203C12.6476 14.5273 12.8291 14.1644 13.0409 13.8017C13.1014 13.6808 13.1014 13.5598 13.0409 13.4389L12.587 12.8343L12.8896 12.532L13.4645 12.9855C13.5552 13.0761 13.7367 13.0761 13.8276 12.9855C14.1604 12.7738 14.5235 12.6226 14.9169 12.532C15.0379 12.5017 15.1287 12.4111 15.159 12.2599L15.2497 11.504H15.6734L15.7641 12.2599C15.7943 12.3808 15.8851 12.5019 16.0062 12.532C16.3996 12.6226 16.7627 12.7739 17.0955 12.9855C17.2165 13.046 17.3376 13.046 17.4586 12.9855L18.0637 12.532L18.3662 12.8343L17.9124 13.4389C17.8217 13.5296 17.8217 13.6808 17.9124 13.8017C18.1242 14.1343 18.3058 14.4971 18.3662 14.9203C18.3965 15.0412 18.4872 15.132 18.6384 15.1623L19.3647 15.2529L19.3645 15.6764Z" fill="#2E2E2E"/>
<path d="M15.492 13.167C14.2211 13.167 13.1924 14.1949 13.1924 15.4648C13.1924 16.7347 14.2211 17.7627 15.492 17.7627C16.7628 17.7627 17.7916 16.7347 17.7916 15.4648C17.7914 14.1949 16.7627 13.167 15.492 13.167ZM15.492 17.158C14.554 17.158 13.7976 16.4021 13.7976 15.465C13.7976 14.5276 14.5541 13.7719 15.492 13.7719C16.43 13.7719 17.1864 14.5278 17.1864 15.465C17.1864 16.4023 16.4299 17.158 15.492 17.158Z" fill="#2E2E2E"/>
</svg>
