<svg width="18" height="19" viewBox="0 0 18 19" fill="none" xmlns="http://www.w3.org/2000/svg">
<path d="M17.4176 12.7823L15.2735 8.07053V3.91465C15.2735 3.75583 15.1676 3.64994 15.0088 3.64994H14.1618V1.02935C14.1618 0.870531 14.0559 0.764648 13.8971 0.764648H10.3765C10.2176 0.764648 10.1118 0.870531 10.1118 1.02935V3.64994H2.46176C2.30294 3.64994 2.19706 3.75583 2.19706 3.91465V8.04406L0.0264706 12.8352C-0.0264706 12.9411 -7.88885e-09 13.0735 0.105882 13.1529V17.9705C0.105882 18.1294 0.211765 18.2352 0.370588 18.2352H17.2059C17.3647 18.2352 17.4706 18.1294 17.4706 17.9705V12.9676C17.4706 12.9146 17.4706 12.8617 17.4176 12.7823ZM13.6588 1.29406V5.68818H10.6412V3.88818V1.29406H13.6588ZM10.1118 4.17935V5.97935C10.1118 6.13818 10.2176 6.24406 10.3765 6.24406H13.9235C14.0824 6.24406 14.1882 6.13818 14.1882 5.97935V4.17935H14.7706V7.85877H2.72647V4.17935H10.1118ZM2.62059 8.38818H14.85L16.7824 12.6764H0.661765L2.62059 8.38818ZM16.9412 17.7058H0.635294V13.2058H16.9412V17.7058Z" fill="#2E2E2E"/>
<path d="M3.78521 7.09135H8.68227C8.8411 7.09135 8.94698 6.98547 8.94698 6.82664V5.07958C8.94698 4.92076 8.8411 4.81488 8.68227 4.81488H3.78521C3.62639 4.81488 3.52051 4.92076 3.52051 5.07958V6.82664C3.52051 6.98547 3.65286 7.09135 3.78521 7.09135ZM4.04992 5.34429H8.41757V6.56194H4.04992V5.34429ZM10.3764 7.09135H13.9234C14.0823 7.09135 14.1882 6.98547 14.1882 6.82664C14.1882 6.66782 14.0823 6.56194 13.9234 6.56194H10.3764C10.2176 6.56194 10.1117 6.66782 10.1117 6.82664C10.1117 6.98547 10.2176 7.09135 10.3764 7.09135ZM11.144 5.05311H11.7264C11.8852 5.05311 11.9911 4.94723 11.9911 4.78841C11.9911 4.62958 11.8852 4.5237 11.7264 4.5237H11.144C10.9852 4.5237 10.8793 4.62958 10.8793 4.78841C10.8793 4.94723 10.9852 5.05311 11.144 5.05311ZM12.5734 5.05311H13.1558C13.3146 5.05311 13.4205 4.94723 13.4205 4.78841C13.4205 4.62958 13.3146 4.5237 13.1558 4.5237H12.5734C12.4146 4.5237 12.3087 4.62958 12.3087 4.78841C12.3087 4.94723 12.4411 5.05311 12.5734 5.05311ZM11.144 3.75605H11.7264C11.8852 3.75605 11.9911 3.65017 11.9911 3.49135C11.9911 3.33253 11.8852 3.22664 11.7264 3.22664H11.144C10.9852 3.22664 10.8793 3.33253 10.8793 3.49135C10.8793 3.65017 10.9852 3.75605 11.144 3.75605ZM12.5734 3.75605H13.1558C13.3146 3.75605 13.4205 3.65017 13.4205 3.49135C13.4205 3.33253 13.3146 3.22664 13.1558 3.22664H12.5734C12.4146 3.22664 12.3087 3.33253 12.3087 3.49135C12.3087 3.65017 12.4411 3.75605 12.5734 3.75605ZM11.144 2.48547H11.7264C11.8852 2.48547 11.9911 2.37958 11.9911 2.22076C11.9911 2.06194 11.8852 1.95605 11.7264 1.95605H11.144C10.9852 1.95605 10.8793 2.06194 10.8793 2.22076C10.8793 2.37958 10.9852 2.48547 11.144 2.48547ZM12.5734 2.48547H13.1558C13.3146 2.48547 13.4205 2.37958 13.4205 2.22076C13.4205 2.06194 13.3146 1.95605 13.1558 1.95605H12.5734C12.4146 1.95605 12.3087 2.06194 12.3087 2.22076C12.3087 2.37958 12.4411 2.48547 12.5734 2.48547ZM3.78521 9.97664H13.6587C13.8176 9.97664 13.9234 9.87076 13.9234 9.71194C13.9234 9.55311 13.8176 9.44723 13.6587 9.44723H3.78521C3.62639 9.44723 3.52051 9.55311 3.52051 9.71194C3.52051 9.87076 3.65286 9.97664 3.78521 9.97664ZM13.6587 11.0355H3.78521C3.62639 11.0355 3.52051 11.1413 3.52051 11.3002C3.52051 11.459 3.62639 11.5649 3.78521 11.5649H13.6587C13.8176 11.5649 13.9234 11.459 13.9234 11.3002C13.9234 11.1413 13.8176 11.0355 13.6587 11.0355ZM4.92345 16.5943H12.6529C12.8117 16.5943 12.9176 16.4884 12.9176 16.3296V14.6355C12.9176 14.4766 12.8117 14.3708 12.6529 14.3708H4.92345C4.76463 14.3708 4.65874 14.4766 4.65874 14.6355V16.3296C4.65874 16.4884 4.7911 16.5943 4.92345 16.5943ZM5.18815 14.9266H12.3882V16.0913H5.18815V14.9266Z" fill="#2E2E2E"/>
</svg>
