<svg width="19" height="22" viewBox="0 0 19 22" fill="none" xmlns="http://www.w3.org/2000/svg">
<path fill-rule="evenodd" clip-rule="evenodd" d="M11.325 2.25006H6.67502C6.52756 2.97052 6.17174 3.63179 5.65175 4.15179C5.13175 4.67179 4.47047 5.0276 3.75002 5.17506C3.74973 5.39173 3.74973 5.6084 3.75002 5.82506C4.47047 5.97252 5.13175 6.32834 5.65175 6.84834C6.17174 7.36834 6.52756 8.02961 6.67502 8.75006H11.325C11.4725 8.02961 11.8283 7.36834 12.3483 6.84834C12.8683 6.32834 13.5296 5.97252 14.25 5.82506C14.2502 5.6084 14.2502 5.39173 14.25 5.17506C13.5296 5.0276 12.8683 4.67179 12.3483 4.15179C11.8283 3.63179 11.4725 2.97052 11.325 2.25006ZM11.93 0.753064C11.655 0.750064 11.363 0.750064 11.052 0.750064H6.94802C6.63802 0.750064 6.34502 0.750064 6.07102 0.753064C6.01641 0.748145 5.96142 0.749151 5.90702 0.756065C5.45502 0.764065 5.05402 0.783064 4.70602 0.830064C4.07802 0.914064 3.51102 1.10006 3.05602 1.55506C2.60002 2.01106 2.41402 2.57806 2.33002 3.20506C2.28302 3.55406 2.26402 3.95506 2.25602 4.40706C2.24917 4.46113 2.24817 4.51578 2.25302 4.57006C2.25002 4.84506 2.25002 5.13806 2.25002 5.44806V5.55206C2.25002 5.86206 2.25002 6.15506 2.25302 6.43006C2.24818 6.48435 2.24918 6.539 2.25602 6.59306C2.26402 7.04606 2.28302 7.44606 2.33002 7.79406C2.41402 8.42206 2.60002 8.98907 3.05602 9.44407C3.51102 9.90007 4.07802 10.0861 4.70602 10.1701C5.05402 10.2171 5.45502 10.2361 5.90702 10.2441C5.96141 10.2511 6.01641 10.2521 6.07102 10.2471C6.34502 10.2501 6.63802 10.2501 6.94802 10.2501H11.052C11.362 10.2501 11.655 10.2501 11.93 10.2471C11.9843 10.252 12.039 10.251 12.093 10.2441C12.546 10.2361 12.947 10.2171 13.294 10.1701C13.922 10.0861 14.489 9.90007 14.944 9.44407C15.4 8.98907 15.586 8.42206 15.67 7.79406C15.7174 7.39545 15.7421 6.99448 15.744 6.59306C15.7508 6.53899 15.7518 6.48435 15.747 6.43006C15.75 6.15506 15.75 5.86206 15.75 5.55206V5.44806C15.75 5.13806 15.75 4.84506 15.747 4.57006C15.752 4.51578 15.751 4.46113 15.744 4.40706C15.7419 4.00566 15.7172 3.60469 15.67 3.20606C15.586 2.57806 15.4 2.01106 14.945 1.55606C14.489 1.10006 13.922 0.914064 13.295 0.830064C12.8961 0.782789 12.4948 0.758083 12.093 0.756065C12.039 0.749192 11.9843 0.748186 11.93 0.753064ZM12.894 2.29406C13.0072 2.59324 13.1828 2.86493 13.409 3.09112C13.6352 3.31731 13.9068 3.49284 14.206 3.60606C14.1997 3.53925 14.1921 3.47257 14.183 3.40606C14.122 2.94406 14.014 2.74606 13.883 2.61606C13.753 2.48606 13.556 2.37906 13.095 2.31606C13.0285 2.30738 12.9618 2.30004 12.895 2.29406H12.894ZM14.206 7.39406C13.9068 7.50729 13.6352 7.68282 13.409 7.90901C13.1828 8.1352 13.0072 8.40689 12.894 8.70606C12.964 8.70006 13.031 8.69206 13.094 8.68406C13.556 8.62106 13.754 8.51406 13.884 8.38406C14.014 8.25406 14.122 8.05606 14.184 7.59406C14.192 7.53106 14.2 7.46406 14.206 7.39406ZM5.10602 8.70606C4.9928 8.40689 4.81727 8.1352 4.59108 7.90901C4.36489 7.68282 4.0932 7.50729 3.79402 7.39406C3.80102 7.46406 3.80802 7.53106 3.81702 7.59406C3.87902 8.05606 3.98602 8.25406 4.11702 8.38406C4.24702 8.51406 4.44402 8.62106 4.90502 8.68406C4.96902 8.69206 5.03602 8.70006 5.10602 8.70606ZM3.79402 3.60606C4.0932 3.49284 4.36489 3.31731 4.59108 3.09112C4.81727 2.86493 4.9928 2.59324 5.10602 2.29406C5.03602 2.30006 4.96902 2.30806 4.90602 2.31706C4.44402 2.37906 4.24602 2.48606 4.11602 2.61706C3.98602 2.74706 3.87902 2.94406 3.81602 3.40506L3.79402 3.60606ZM9.00002 5.25006C8.93372 5.25006 8.87013 5.2764 8.82325 5.32329C8.77636 5.37017 8.75002 5.43376 8.75002 5.50006C8.75002 5.56637 8.77636 5.62996 8.82325 5.67684C8.87013 5.72373 8.93372 5.75006 9.00002 5.75006C9.06633 5.75006 9.12992 5.72373 9.1768 5.67684C9.22368 5.62996 9.25002 5.56637 9.25002 5.50006C9.25002 5.43376 9.22368 5.37017 9.1768 5.32329C9.12992 5.2764 9.06633 5.25006 9.00002 5.25006ZM7.25002 5.50006C7.25002 5.03594 7.4344 4.59082 7.76259 4.26263C8.09077 3.93444 8.53589 3.75006 9.00002 3.75006C9.46415 3.75006 9.90927 3.93444 10.2375 4.26263C10.5656 4.59082 10.75 5.03594 10.75 5.50006C10.75 5.96419 10.5656 6.40931 10.2375 6.7375C9.90927 7.06569 9.46415 7.25006 9.00002 7.25006C8.53589 7.25006 8.09077 7.06569 7.76259 6.7375C7.4344 6.40931 7.25002 5.96419 7.25002 5.50006ZM5.68402 12.9481C7.55002 12.5871 9.54702 12.6681 11.164 13.6321C11.39 13.7671 11.604 13.9361 11.789 14.1441C12.165 14.5671 12.359 15.0911 12.368 15.6171C12.559 15.4941 12.751 15.3571 12.945 15.2101L14.753 13.8451C15.2057 13.5124 15.7528 13.333 16.3145 13.333C16.8763 13.333 17.4233 13.5124 17.876 13.8451C18.712 14.4751 19.046 15.6081 18.447 16.5681C18.022 17.2491 17.381 18.1921 16.73 18.7961C16.07 19.4061 15.133 19.9201 14.424 20.2621C13.562 20.6781 12.632 20.9081 11.727 21.0541C9.87702 21.3541 7.95302 21.3081 6.12502 20.9311C5.18234 20.7371 4.22246 20.6389 3.26002 20.6381H1.00002C0.80111 20.6381 0.610345 20.559 0.469692 20.4184C0.32904 20.2777 0.250023 20.087 0.250023 19.8881C0.250023 19.6892 0.32904 19.4984 0.469692 19.3577C0.610345 19.2171 0.80111 19.1381 1.00002 19.1381H3.26002C4.32202 19.1381 5.39502 19.2491 6.42802 19.4621C8.09419 19.804 9.80847 19.8416 11.488 19.5731C12.316 19.4391 13.09 19.2401 13.772 18.9111C14.455 18.5811 15.223 18.1471 15.71 17.6961C16.203 17.2391 16.754 16.4481 17.175 15.7741C17.302 15.5701 17.284 15.2771 16.973 15.0421C16.603 14.7621 16.026 14.7621 15.657 15.0421L13.85 16.4071C13.128 16.9521 12.24 17.5351 11.139 17.7111C11.0237 17.7293 10.908 17.7453 10.792 17.7591C10.0913 17.8399 9.3841 17.8466 8.68202 17.7791C8.58222 17.7722 8.48481 17.7454 8.39552 17.7003C8.30623 17.6552 8.22687 17.5926 8.16211 17.5164C8.09734 17.4401 8.04849 17.3517 8.01841 17.2563C7.98834 17.1609 7.97766 17.0604 7.987 16.9608C7.99634 16.8612 8.02551 16.7645 8.0728 16.6763C8.12008 16.5882 8.18453 16.5104 8.26234 16.4475C8.34015 16.3846 8.42975 16.338 8.52587 16.3102C8.62199 16.2825 8.72268 16.2743 8.82202 16.2861C9.37677 16.3399 9.93548 16.3389 10.49 16.2831L10.52 16.2801C10.6133 16.2222 10.6926 16.1443 10.7522 16.052C10.8117 15.9598 10.85 15.8554 10.8644 15.7466C10.8787 15.6377 10.8688 15.527 10.8351 15.4225C10.8015 15.3179 10.7451 15.2222 10.67 15.1421C10.5903 15.0543 10.4976 14.9795 10.395 14.9201C9.21402 14.2151 7.63602 14.0981 5.96902 14.4201C4.34077 14.7476 2.79719 15.4062 1.43402 16.3551C1.35365 16.4121 1.26285 16.4527 1.16678 16.4746C1.07072 16.4965 0.971288 16.4992 0.874158 16.4827C0.777028 16.4662 0.684104 16.4307 0.600693 16.3782C0.517282 16.3258 0.445016 16.2574 0.388023 16.1771C0.331029 16.0967 0.290423 16.0059 0.268524 15.9098C0.246624 15.8138 0.24386 15.7143 0.260389 15.6172C0.276918 15.5201 0.312416 15.4271 0.364857 15.3437C0.417297 15.2603 0.485654 15.1881 0.566023 15.1311C2.10367 14.059 3.84601 13.3159 5.68402 12.9481Z" fill="#2E2E2E"/>
</svg>
