<svg width="20" height="21" viewBox="0 0 20 21" fill="none" xmlns="http://www.w3.org/2000/svg">
<path d="M1.25006 19.1667H3.1608L4.4612 20.207H4.46137C4.69522 20.3952 5.01347 20.5007 5.34516 20.5H18.75C19.0815 20.5 19.3996 20.3947 19.634 20.2072C19.8683 20.0195 20 19.7652 20 19.5V2.83329C20 2.56808 19.8683 2.31375 19.634 2.12625C19.3996 1.93875 19.0815 1.83329 18.75 1.83329H18.3334V1.5C18.3334 1.2348 18.2017 0.980469 17.9674 0.792827C17.7328 0.605328 17.4149 0.5 17.0834 0.5H1.25C0.91849 0.5 0.600581 0.605328 0.366208 0.792827C0.131834 0.980466 0 1.23479 0 1.5V18.1667C0 18.4319 0.131834 18.6862 0.366208 18.8737C0.600581 19.0612 0.918481 19.1667 1.25 19.1667L1.25006 19.1667ZM3.08929 18.1667H4.16682C4.27721 18.1667 4.38324 18.2017 4.46136 18.2642C4.53949 18.3269 4.58343 18.4116 4.58343 18.5V19.362L3.08929 18.1667ZM19.1669 2.83322V19.4999C19.1669 19.5884 19.1229 19.6731 19.0448 19.7357C18.9667 19.7982 18.8607 19.8332 18.7501 19.8332H5.41713V18.4999C5.41713 18.2347 5.2853 17.9804 5.05092 17.7928C4.81655 17.6053 4.49865 17.4999 4.16713 17.4999H2.50036V2.83321C2.50036 2.6492 2.68695 2.49993 2.91714 2.49993H18.7501C18.8606 2.49993 18.9667 2.53509 19.0448 2.59759C19.1229 2.66009 19.1669 2.74491 19.1669 2.83322H19.1669ZM0.833494 1.49994C0.833494 1.31579 1.02009 1.16665 1.2501 1.16665H17.0835C17.1941 1.16665 17.2999 1.20167 17.3782 1.26417C17.4563 1.32681 17.5001 1.41149 17.5001 1.49994V1.83323H2.91715C2.58564 1.83323 2.26755 1.93869 2.03318 2.12619C1.79881 2.31369 1.66715 2.56801 1.66715 2.83323V17.5571C1.6661 17.8224 1.79811 18.077 2.03335 18.2641L2.32789 18.4998H1.25035C1.02034 18.4998 0.833749 18.3505 0.833749 18.1665L0.833494 1.49994Z" fill="#2E2E2E"/>
<path d="M14.583 17.167C15.5775 17.167 16.5314 16.8508 17.2347 16.2882C17.9378 15.7257 18.333 14.9626 18.333 14.167C18.333 13.3712 17.9378 12.6082 17.2347 12.0456C16.5314 11.483 15.5775 11.167 14.583 11.167C13.5885 11.167 12.6346 11.483 11.9313 12.0456C11.2282 12.6083 10.833 13.3712 10.833 14.167C10.8341 14.9623 11.2296 15.7249 11.9325 16.2872C12.6356 16.8497 13.5888 17.166 14.583 17.167ZM11.6997 14.5003H13.9418L13.031 16.1389C12.309 15.7747 11.8227 15.1759 11.6997 14.5003H11.6997ZM17.4997 14.167C17.5026 14.8984 17.0752 15.5883 16.3459 16.0295C15.6166 16.4708 14.6704 16.612 13.7913 16.4105L14.963 14.3022V14.3023C14.9869 14.2597 14.9995 14.2136 14.9997 14.167V11.8602C15.693 11.9407 16.3271 12.2181 16.7861 12.6416C17.245 13.065 17.4984 13.6064 17.4996 14.167L17.4997 14.167ZM14.1663 11.8603L14.1665 13.8336H11.6998C11.7901 13.3359 12.0792 12.875 12.5238 12.5194C12.9681 12.1638 13.5444 11.9326 14.1665 11.8602L14.1663 11.8603Z" fill="#2E2E2E"/>
<path d="M4.16678 12.4997H9.16675C9.39676 12.4997 9.58336 12.3504 9.58336 12.1664C9.58336 11.9823 9.39676 11.833 9.16675 11.833H4.16678C3.93659 11.833 3.75 11.9823 3.75 12.1664C3.75 12.3504 3.93659 12.4997 4.16678 12.4997Z" fill="#2E2E2E"/>
<path d="M4.16678 14.4997H9.16675C9.39676 14.4997 9.58336 14.3504 9.58336 14.1664C9.58336 13.9823 9.39676 13.833 9.16675 13.833H4.16678C3.93659 13.833 3.75 13.9823 3.75 14.1664C3.75 14.3504 3.93659 14.4997 4.16678 14.4997Z" fill="#2E2E2E"/>
<path d="M4.16678 16.4997H9.16675C9.39676 16.4997 9.58336 16.3504 9.58336 16.1664C9.58336 15.9823 9.39676 15.833 9.16675 15.833H4.16678C3.93659 15.833 3.75 15.9823 3.75 16.1664C3.75 16.3504 3.93659 16.4997 4.16678 16.4997Z" fill="#2E2E2E"/>
<path d="M12.4996 5.49972H17.4996C17.7298 5.49972 17.9164 5.35044 17.9164 5.16643C17.9164 4.98228 17.7298 4.83301 17.4996 4.83301H12.4996C12.2696 4.83301 12.083 4.98228 12.083 5.16643C12.083 5.35044 12.2696 5.49972 12.4996 5.49972Z" fill="#2E2E2E"/>
<path d="M12.4996 7.49972H17.4996C17.7298 7.49972 17.9164 7.35044 17.9164 7.16643C17.9164 6.98228 17.7298 6.83301 17.4996 6.83301H12.4996C12.2696 6.83301 12.083 6.98228 12.083 7.16643C12.083 7.35044 12.2696 7.49972 12.4996 7.49972Z" fill="#2E2E2E"/>
<path d="M12.4996 9.49972H17.4996C17.7298 9.49972 17.9164 9.35044 17.9164 9.16643C17.9164 8.98228 17.7298 8.83301 17.4996 8.83301H12.4996C12.2696 8.83301 12.083 8.98228 12.083 9.16643C12.083 9.35044 12.2696 9.49972 12.4996 9.49972Z" fill="#2E2E2E"/>
<path d="M4.16695 10.167H9.99995C10.2301 10.167 10.4167 10.0177 10.4167 9.83353C10.4167 9.64952 10.2301 9.50025 9.99995 9.50025V7.50026C9.99995 7.31611 9.81353 7.16698 9.58335 7.16698C9.35316 7.16698 9.16674 7.31611 9.16674 7.50026V9.50025H8.33335V8.50026C8.33335 8.31611 8.14676 8.16697 7.91675 8.16697C7.68656 8.16697 7.49997 8.31611 7.49997 8.50026V9.50025H6.66676V8.83354C6.66676 8.64953 6.48017 8.50026 6.24998 8.50026C6.01997 8.50026 5.83338 8.64953 5.83338 8.83354V9.50025H4.58338V9.24565L5.62793 7.57462L6.19172 7.72501V7.72487C6.38198 7.77509 6.58827 7.76895 6.77346 7.70785C6.95848 7.64661 7.1102 7.53444 7.20088 7.39158L7.71132 6.57559L8.30127 6.73253C8.48124 6.77982 8.67585 6.77704 8.85337 6.72458C9.03107 6.67212 9.18121 6.57307 9.27957 6.44361L10.3571 5.00626C10.4706 4.84875 10.4054 4.64773 10.2108 4.55398C10.016 4.46037 9.76348 4.50892 9.64299 4.66293L8.56496 6.10028L7.97501 5.94334V5.9432C7.78475 5.89298 7.57828 5.89897 7.39309 5.96008C7.2079 6.02132 7.05635 6.13363 6.96585 6.27662L6.4554 7.09262L5.89161 6.94223H5.89179C5.70153 6.89215 5.49506 6.89815 5.30987 6.95925C5.12468 7.02049 4.97313 7.13266 4.88263 7.27566L4.58338 7.75487V4.50028C4.58338 4.31613 4.39679 4.16699 4.16678 4.16699C3.93659 4.16699 3.75 4.31613 3.75 4.50028V9.83347C3.75 9.92192 3.79395 10.0067 3.87207 10.0692C3.9502 10.1317 4.05622 10.1669 4.16678 10.1669L4.16695 10.167Z" fill="#2E2E2E"/>
</svg>
