<svg width="20" height="20" viewBox="0 0 20 20" fill="none" xmlns="http://www.w3.org/2000/svg">
<path fill-rule="evenodd" clip-rule="evenodd" d="M11.5042 8.69879H10.3095V15.3312H11.1242C11.4246 15.3312 11.6974 15.4792 11.895 15.7173C12.0925 15.9554 12.2154 16.2842 12.2154 16.6461V18.6852C12.2154 19.0471 12.0927 19.3759 11.895 19.6139C11.6974 19.8519 11.4245 20 11.1242 20H4.81102C4.51066 20 4.23777 19.8521 4.04024 19.6139C3.8427 19.3759 3.71979 19.0471 3.71979 18.6852L3.71993 16.6461C3.71993 16.2841 3.8427 15.9554 4.04038 15.7173C4.23792 15.4793 4.51081 15.3312 4.81116 15.3312H9.6897V11.0087H8.49564V11.6545C8.49564 12.0164 8.37287 12.3452 8.17518 12.5832C7.97764 12.8213 7.70476 12.9694 7.4044 12.9694H1.09123C0.79087 12.9694 0.517986 12.8214 0.320451 12.5832C0.122767 12.3457 0 12.017 0 11.6551V9.61592C0 9.25402 0.122767 8.92522 0.320451 8.68722C0.517993 8.4492 0.790877 8.30111 1.09123 8.30111H7.4044C7.70477 8.30111 7.97765 8.44903 8.17518 8.68722C8.37273 8.92523 8.49564 9.25403 8.49564 9.61592V10.2617H9.6897V4.66893H4.81116C4.5108 4.66893 4.23791 4.52101 4.04038 4.28283C3.8427 4.04464 3.71993 3.71602 3.71993 3.35395V1.31481C3.71993 0.952911 3.8427 0.624116 4.04038 0.386109C4.23792 0.148093 4.51081 0 4.81116 0H11.1243C11.4247 0 11.6976 0.147921 11.8951 0.386109C12.0927 0.624125 12.2156 0.95292 12.2156 1.31481V3.35395C12.2156 3.71585 12.0928 4.04465 11.8951 4.28265C11.6976 4.52067 11.4247 4.66876 11.1243 4.66876H10.3096V7.95176H11.5044V7.30595C11.5044 6.94404 11.6271 6.61525 11.8248 6.37724C12.0224 6.13923 12.2952 5.99113 12.5956 5.99113H18.9088C19.2091 5.99113 19.482 6.13905 19.6795 6.37724C19.8771 6.61526 20 6.94405 20 7.30595V9.34508C20 9.70699 19.8772 10.0358 19.6795 10.2738C19.482 10.5118 19.2091 10.6599 18.9088 10.6599H12.5956C12.2952 10.6599 12.0224 10.512 11.8248 10.2738C11.6273 10.0358 11.5044 9.70698 11.5044 9.34508L11.5042 8.69879ZM14.2594 6.73819V9.91194H18.909C19.0382 9.91194 19.1558 9.84789 19.2414 9.74519C19.3271 9.64198 19.3798 9.50028 19.3798 9.34463V7.30549C19.3798 7.14984 19.3267 7.00814 19.2414 6.90493C19.1558 6.80172 19.0382 6.73818 18.909 6.73818L14.2594 6.73819ZM13.639 9.91176V6.73802H12.5953C12.4661 6.73802 12.3485 6.80206 12.2629 6.90477C12.1772 7.00797 12.1245 7.14967 12.1245 7.30533V9.34395C12.1245 9.4996 12.1776 9.6413 12.2629 9.74451C12.3485 9.84772 12.4661 9.91126 12.5953 9.91126H13.639V9.91176ZM7.87511 10.6362V9.61592C7.87511 9.46027 7.82195 9.31857 7.73672 9.21536C7.65106 9.11215 7.53345 9.04861 7.40427 9.04861H2.75466V12.2224H7.40427C7.53345 12.2224 7.65106 12.1583 7.73672 12.0556C7.82237 11.9524 7.87511 11.8107 7.87511 11.655V10.6362ZM6.47515 16.0789V19.2526H11.1248C11.2539 19.2526 11.3716 19.1886 11.4572 19.0859C11.5429 18.9827 11.5956 18.841 11.5956 18.6853V16.6462C11.5956 16.4905 11.5424 16.3488 11.4572 16.2456C11.3716 16.1424 11.2539 16.0789 11.1248 16.0789L6.47515 16.0789ZM5.85476 19.2526V16.0789H4.81109C4.68191 16.0789 4.5643 16.1429 4.47864 16.2456C4.39299 16.3488 4.34025 16.4905 4.34025 16.6462V18.6853C4.34025 18.841 4.39341 18.9827 4.47864 19.0859C4.5643 19.1891 4.68191 19.2526 4.81109 19.2526L5.85476 19.2526ZM2.13479 12.2221V9.04838H1.09126C0.962076 9.04838 0.844469 9.11242 0.758813 9.21513C0.673156 9.31833 0.620421 9.46004 0.620421 9.61569V11.6548C0.620421 11.8105 0.673574 11.9522 0.758813 12.0554C0.844469 12.1586 0.962076 12.2221 1.09126 12.2221L2.13479 12.2221ZM6.47512 0.747345V3.92109H11.1247C11.2539 3.92109 11.3715 3.85705 11.4572 3.75434C11.5428 3.65114 11.5956 3.50943 11.5956 3.35378L11.5954 1.31465C11.5954 1.15899 11.5423 1.01729 11.457 0.914084C11.3714 0.810877 11.2538 0.747337 11.1246 0.747337L6.47512 0.747345ZM5.85473 3.92109V0.747345H4.81106C4.68187 0.747345 4.56427 0.811389 4.47861 0.914092C4.39295 1.0173 4.34022 1.159 4.34022 1.31466V3.35379C4.34022 3.50944 4.39337 3.65114 4.47861 3.75435C4.56427 3.85756 4.68187 3.9211 4.81106 3.9211L5.85473 3.92109Z" fill="#2E2E2E"/>
</svg>
