<svg width="20" height="21" viewBox="0 0 20 21" fill="none" xmlns="http://www.w3.org/2000/svg">
<path d="M9.99984 5.91686C8.78416 5.91686 7.61841 6.39973 6.75882 7.25914C5.89941 8.11873 5.41654 9.28448 5.41654 10.5002C5.41654 11.7158 5.89941 12.8816 6.75882 13.7412C7.61841 14.6006 8.78416 15.0835 9.99984 15.0835C11.2155 15.0835 12.3813 14.6006 13.2409 13.7412C14.1003 12.8816 14.5831 11.7158 14.5831 10.5002C14.5817 9.28502 14.0985 8.11995 13.2392 7.26072C12.38 6.40149 11.2149 5.91826 9.9998 5.91681L9.99984 5.91686ZM9.99984 14.25V14.2498C9.00535 14.2498 8.05157 13.8548 7.34824 13.1516C6.64509 12.4483 6.25004 11.4945 6.25004 10.5C6.25004 9.50553 6.64509 8.55176 7.34824 7.84843C8.05157 7.14528 9.00535 6.75022 9.99984 6.75022C10.9943 6.75022 11.9481 7.14528 12.6514 7.84843C13.3546 8.55176 13.7497 9.50553 13.7497 10.5C13.7486 11.4942 13.3532 12.4474 12.6502 13.1504C11.9472 13.8534 10.9939 14.2488 9.9998 14.2499L9.99984 14.25ZM19.1732 8.7766L17.5306 8.56196H17.5307C17.4817 8.55262 17.4431 8.51505 17.4327 8.46637C17.2616 7.84363 17.0128 7.24469 16.692 6.68421C16.665 6.64241 16.6657 6.58844 16.6937 6.54753L17.705 5.2322C17.8452 5.04931 17.9143 4.82198 17.8995 4.59199C17.8847 4.36199 17.7868 4.14544 17.624 3.98229L16.5177 2.87596C16.3546 2.71335 16.1378 2.61547 15.908 2.60066C15.678 2.58567 15.4507 2.6548 15.2678 2.79501L13.9528 3.80662C13.9116 3.83501 13.8572 3.83554 13.8154 3.80785C13.255 3.48722 12.6564 3.23839 12.0336 3.06732C11.9848 3.05727 11.947 3.01847 11.938 2.96926L11.7234 1.3266L11.7236 1.32678C11.6932 1.09821 11.5811 0.888693 11.4081 0.73668C11.2349 0.584654 11.0125 0.500528 10.7822 0.5H9.21784C8.98751 0.500529 8.76513 0.584654 8.59194 0.73668C8.41893 0.888706 8.30676 1.0984 8.27643 1.32678L8.06197 2.96926C8.05297 3.01846 8.01523 3.05726 7.96638 3.06731C7.34364 3.23856 6.74487 3.48741 6.18421 3.80803C6.14259 3.83554 6.08845 3.83519 6.04753 3.80662L4.73257 2.79501C4.54968 2.6548 4.32217 2.58567 4.09217 2.60066C3.86219 2.61547 3.64562 2.71335 3.4823 2.87596L2.37597 3.98229C2.21336 4.14543 2.11548 4.36218 2.10066 4.59199C2.08567 4.82179 2.15481 5.0493 2.29502 5.2322L3.30663 6.54753C3.33484 6.58862 3.33555 6.64276 3.30839 6.68456C2.98741 7.24486 2.73856 7.84363 2.56785 8.46637C2.55727 8.51505 2.51865 8.55261 2.4698 8.56196L0.826778 8.77659V8.77642C0.598387 8.80675 0.388693 8.91892 0.23668 9.09211C0.0846545 9.26512 0.000528244 9.48752 0 9.71783V11.2822C0.000529101 11.5125 0.0846545 11.7349 0.23668 11.9081C0.388706 12.0811 0.598224 12.1932 0.826778 12.2236L2.4698 12.4382V12.438C2.51865 12.4474 2.55727 12.4849 2.56785 12.5336C2.73875 13.1565 2.98743 13.7553 3.30839 14.3158C3.33555 14.3576 3.33484 14.4116 3.30663 14.4525L2.29502 15.7678C2.15481 15.9507 2.08585 16.1782 2.10066 16.408C2.11548 16.6378 2.21336 16.8546 2.37597 17.0177L3.4823 18.124C3.64544 18.287 3.86219 18.3849 4.09217 18.3999C4.32215 18.4147 4.54985 18.3455 4.73257 18.205L6.04753 17.1937C6.0888 17.1659 6.14259 17.1652 6.18457 17.1921C6.74505 17.5128 7.34363 17.7616 7.96637 17.9327C8.01523 17.9427 8.05297 17.9815 8.06196 18.0307L8.2766 19.6734L8.27642 19.6732C8.30676 19.9016 8.41892 20.1113 8.59211 20.2633C8.76512 20.4153 8.98752 20.4993 9.21783 20.5H10.7822C11.0125 20.4995 11.2349 20.4153 11.4081 20.2633C11.5812 20.1113 11.6932 19.9016 11.7236 19.6732L11.9382 18.0306V18.0307C11.947 17.9815 11.9848 17.9427 12.0336 17.9327C12.6565 17.7616 13.2553 17.5128 13.8158 17.192C13.8578 17.1652 13.9117 17.1659 13.953 17.1937L15.268 18.205H15.2678C15.4505 18.3455 15.678 18.4147 15.908 18.3999C16.138 18.385 16.3547 18.287 16.5177 18.124L17.624 17.0177C17.7868 16.8546 17.8847 16.638 17.8995 16.408C17.9143 16.178 17.8454 15.9507 17.705 15.7678L16.6937 14.4525C16.6657 14.4114 16.665 14.3572 16.692 14.3154C17.0128 13.7549 17.2616 13.1564 17.4327 12.5336C17.4431 12.4849 17.4817 12.4474 17.5307 12.438L19.1734 12.2234L19.1732 12.2236C19.4016 12.1932 19.6113 12.0811 19.7633 11.9081C19.9153 11.7349 19.9995 11.5125 20 11.2822V9.71783C19.9993 9.4875 19.9153 9.26512 19.7633 9.09211C19.6113 8.91892 19.4016 8.80675 19.1732 8.77642V8.7766ZM19.1669 11.2822C19.1667 11.3404 19.1235 11.3896 19.0658 11.3974L17.4228 11.6115C17.2359 11.637 17.0606 11.7175 16.9193 11.8425C16.778 11.9675 16.6768 12.1316 16.6287 12.3139C16.4766 12.8689 16.2548 13.4024 15.9687 13.9017C15.8735 14.0648 15.8287 14.2527 15.8403 14.4412C15.852 14.6297 15.9193 14.8107 16.0338 14.9609L17.0454 16.2759C17.0803 16.3223 17.0761 16.3874 17.0352 16.4288L15.9288 17.5351C15.8874 17.5761 15.8221 17.5803 15.7759 17.545L14.4606 16.5338H14.4604C14.3103 16.4193 14.1296 16.3519 13.941 16.3403C13.7525 16.3288 13.5648 16.3735 13.4017 16.4687C12.9023 16.7548 12.3686 16.9764 11.8136 17.1286C11.6312 17.177 11.4674 17.2782 11.3425 17.4195C11.2176 17.5607 11.1374 17.7359 11.112 17.9228L10.8973 19.5658C10.8896 19.6235 10.8404 19.6667 10.7822 19.6669H9.21785C9.15964 19.6665 9.11062 19.6235 9.10268 19.5658L8.88857 17.9228C8.863 17.7358 8.78275 17.5605 8.65771 17.4193C8.53267 17.2778 8.36848 17.1768 8.18613 17.1286C7.63111 16.9763 7.09781 16.7546 6.59833 16.4687C6.45107 16.3837 6.28405 16.3389 6.11388 16.3389C5.90612 16.3385 5.70384 16.407 5.53913 16.5338L4.22417 17.545C4.17814 17.5805 4.11289 17.5762 4.07179 17.5351L2.96546 16.4288H2.96528C2.92419 16.3875 2.91996 16.3223 2.95505 16.2759L3.96684 14.9604C4.08131 14.8103 4.14867 14.6295 4.16014 14.441C4.17177 14.2525 4.12716 14.0648 4.03192 13.9017C3.7455 13.4024 3.52363 12.8687 3.3718 12.3135C3.32347 12.1312 3.22224 11.9672 3.0808 11.8423C2.93953 11.7172 2.76423 11.637 2.5773 11.6114L0.934278 11.3973C0.876609 11.3894 0.833749 11.3402 0.833573 11.2821V9.71781C0.83375 9.65979 0.876606 9.61058 0.934278 9.60264L2.5773 9.38854C2.76442 9.36297 2.93972 9.28272 3.08098 9.15768C3.22242 9.03264 3.32365 8.86862 3.3718 8.6861C3.52383 8.13108 3.74551 7.59742 4.03193 7.0983C4.12716 6.93516 4.17178 6.74733 4.16014 6.55881C4.1485 6.37028 4.08131 6.18933 3.96685 6.03905L2.95524 4.72409H2.95506C2.91997 4.67788 2.92438 4.6128 2.96547 4.57171L4.0718 3.46538V3.4652C4.11272 3.42376 4.17815 3.41935 4.22418 3.45497L5.5395 4.46622H5.53968C5.68976 4.58086 5.87054 4.64841 6.05908 4.65987C6.24761 4.67151 6.43543 4.62671 6.59838 4.5313C7.09782 4.24541 7.63153 4.02373 8.18654 3.87172C8.3689 3.82339 8.53292 3.72216 8.65794 3.58089C8.78281 3.43945 8.86306 3.26415 8.88863 3.07721L9.10273 1.43419C9.11067 1.37652 9.1597 1.33349 9.2179 1.33313H10.7822C10.8404 1.33331 10.8896 1.37652 10.8974 1.43419L11.112 3.07721C11.1374 3.26415 11.2177 3.43946 11.3427 3.58089C11.4676 3.72216 11.6316 3.82339 11.814 3.87172C12.369 4.02374 12.9025 4.24525 13.4018 4.5313C13.5649 4.62689 13.7527 4.67168 13.9413 4.66022C14.13 4.64858 14.3109 4.58104 14.461 4.46622L15.776 3.45497C15.8224 3.41988 15.8876 3.42428 15.9289 3.46538L17.0352 4.57171C17.0761 4.6128 17.0804 4.67788 17.0454 4.72409L16.0338 6.03942V6.03959C15.9194 6.18968 15.852 6.37045 15.8404 6.55899C15.8289 6.74752 15.8735 6.93517 15.9688 7.09829C16.255 7.59773 16.4767 8.13144 16.6287 8.68645C16.6769 8.86882 16.7781 9.03283 16.9193 9.15786C17.0608 9.28272 17.2359 9.36297 17.4229 9.38854L19.0659 9.60264C19.1235 9.61041 19.1668 9.65961 19.1669 9.71781L19.1669 11.2822Z" fill="#2E2E2E"/>
</svg>
