<svg width="20" height="21" viewBox="0 0 20 21" fill="none" xmlns="http://www.w3.org/2000/svg">
<path d="M0.000226654 19.0835H4.37269V18.3121C5.61366 18.9746 8.63123 20.5003 10.1098 20.5003C10.1442 20.5003 10.1785 20.4994 10.2114 20.4975C12.8133 20.362 18.9333 16.3635 19.3472 16.0909C20.1934 15.6332 20.2287 14.4936 19.3843 14.002C18.9992 13.7777 18.5233 13.7533 18.114 13.9376L14.366 15.6193C14.3292 14.9658 13.7503 14.4432 13.0376 14.4432L10.8775 14.4438C9.80305 13.5792 8.43186 13.05 7.18477 13.0223C5.98059 12.9957 4.89794 12.9879 4.37262 12.9858L4.37246 12.4102H0L0.000226654 19.0835ZM7.16918 13.6476C8.2982 13.6726 9.5527 14.1737 10.5253 14.9886L10.6215 15.0692L13.0379 15.0686C13.4033 15.0686 13.7003 15.3445 13.7003 15.6839C13.7003 16.0234 13.4033 16.2992 13.0379 16.2992L8.6191 16.299V16.9239H13.0379C13.4679 16.9239 13.8471 16.7308 14.0914 16.4368L18.4071 14.5005C18.6098 14.409 18.8359 14.4206 19.0271 14.5316C19.4473 14.7764 19.4164 15.3376 19.0012 15.5552C18.9906 15.5604 18.9807 15.5661 18.9713 15.5725C18.9082 15.6143 12.6175 19.7462 10.174 19.8737C8.93225 19.9305 5.71139 18.3218 4.37293 17.5882L4.37277 13.6108C4.89624 13.6131 5.97225 13.6207 7.16938 13.6475L7.16918 13.6476ZM0.672882 13.0354H3.69967V18.4582H0.672882V13.0354Z" fill="#2E2E2E"/>
<path d="M2.2207 14.8125H2.89356V15.3609H2.2207V14.8125Z" fill="#2E2E2E"/>
<path d="M2.2207 15.9062H2.89356V16.4547H2.2207V15.9062Z" fill="#2E2E2E"/>
<path d="M2.2207 17.001H2.89356V17.5494H2.2207V17.001Z" fill="#2E2E2E"/>
<path d="M5.09414 6.74056C6.08871 6.74056 6.89775 5.98927 6.89775 5.06537C6.89775 4.14191 6.08888 3.39062 5.09414 3.39062C4.09989 3.39062 3.29102 4.14191 3.29102 5.06537C3.29102 5.98913 4.09989 6.74056 5.09414 6.74056ZM5.09414 4.01557C5.71745 4.01557 6.22474 4.48644 6.22474 5.06537C6.22474 5.64429 5.71745 6.11546 5.09414 6.11546C4.47084 6.11546 3.96387 5.64429 3.96387 5.06537C3.96387 4.48644 4.47084 4.01557 5.09414 4.01557Z" fill="#2E2E2E"/>
<path d="M0.178467 4.022V6.10816L1.51677 5.99644C1.59603 6.26254 1.70924 6.51711 1.85548 6.75692L0.822867 7.55625L2.41357 9.03089L3.27417 8.07381C3.53347 8.20964 3.80674 8.31494 4.09106 8.3887L3.97077 9.63041H6.21859L6.0983 8.3887C6.38386 8.31509 6.65715 8.20994 6.91551 8.07411L7.77563 9.03088L9.36633 7.55624L8.33372 6.75691C8.47964 6.5168 8.59301 6.26252 8.67243 5.99643L10.0107 6.10816V4.02199L8.67243 4.13372C8.59286 3.86791 8.47948 3.61334 8.33372 3.37353L9.36633 2.57391L7.77563 1.09953L6.91551 2.0563C6.65731 1.92048 6.38386 1.81517 6.0983 1.74171L6.21828 0.5H3.97046L4.09075 1.74171C3.80661 1.81561 3.53314 1.92091 3.27386 2.05659L2.41326 1.09952L0.822875 2.5739L1.85549 3.37353C1.70925 3.61334 1.59588 3.86791 1.51678 4.13371L0.178467 4.022ZM1.82041 2.53244L2.36808 2.02433L3.1392 2.88221C3.29754 2.79765 3.73907 2.42786 4.51494 2.29113L4.81465 2.23826L4.70646 1.12495H5.48217L5.37414 2.23826C5.55482 2.28339 6.13504 2.30545 6.7969 2.72345L7.04897 2.88279L7.82073 2.02431L8.36839 2.53242L7.44346 3.24864C7.53687 3.39921 7.9303 3.7978 8.08061 4.52789L8.13785 4.80596L9.33748 4.70563V5.42461L8.13785 5.32456L8.08061 5.60264C7.93013 6.33403 7.53496 6.73439 7.44346 6.88189L8.36839 7.5978L7.82073 8.10621L7.04897 7.24774C6.88512 7.33551 6.45537 7.70137 5.67387 7.83952L5.37416 7.89239L5.48219 9.00571H4.70648L4.81451 7.89239C4.64704 7.85062 4.06054 7.82725 3.39114 7.40694L3.13908 7.24862L2.36796 8.1065L1.8203 7.59809L2.74523 6.88218C2.65843 6.74226 2.25795 6.33406 2.10808 5.60323L2.05115 5.32486L0.851203 5.4249V4.70592L2.05115 4.80626C2.09597 4.65116 2.12317 4.09864 2.57354 3.48334L2.74509 3.24893L1.82041 2.53244Z" fill="#2E2E2E"/>
<path d="M11.1572 7.48884V9.39652L12.3364 9.29793C12.4028 9.51131 12.4938 9.71579 12.6088 9.90942L11.6992 10.6138L13.1531 11.9624L13.9112 11.1189C14.1208 11.2259 14.3403 11.3105 14.5683 11.3721L14.4622 12.4662H16.5174L16.4112 11.3721C16.6402 11.3105 16.8597 11.2259 17.0687 11.1192L17.8264 11.9623L19.2803 10.6137L18.3708 9.9093C18.4857 9.7155 18.5768 9.51104 18.6431 9.29782L19.8223 9.3964V7.48872L18.6431 7.58731C18.5768 7.37393 18.4857 7.16945 18.3708 6.97582L19.2803 6.27142L17.8264 4.92282L17.0687 5.76596C16.86 5.6592 16.6402 5.57464 16.4112 5.51301L16.5174 4.41895H14.4622L14.5683 5.51331C14.3403 5.57494 14.1208 5.6595 13.9115 5.76626L13.1531 4.9227L11.6992 6.27131L12.6088 6.97571C12.4938 7.16951 12.4028 7.37397 12.3364 7.58719L11.1572 7.48884ZM12.6963 6.23005L13.108 5.84827L13.7757 6.59051C13.9411 6.50171 14.3166 6.1807 14.9927 6.06109L15.2921 6.00793L15.1984 5.04416H15.7816L15.6879 6.00793C15.8742 6.05393 16.3776 6.06927 16.9515 6.43206L17.2036 6.5914L17.8719 5.8483L18.2836 6.23008L17.4826 6.8502C17.5766 7.00063 17.9229 7.34268 18.0537 7.9815L18.111 8.25958L19.1499 8.17254V8.71306L18.111 8.62602L18.0537 8.9041C17.9235 9.53955 17.5803 9.87926 17.4826 10.0354L18.2836 10.6555L17.8719 11.0373L17.2036 10.2942C17.0437 10.3805 16.6726 10.7034 15.9876 10.8247L15.6879 10.8775L15.7816 11.8416H15.1984L15.2921 10.8775C15.113 10.8334 14.6127 10.8204 14.0277 10.4534L13.7757 10.2951L13.108 11.0376L12.6963 10.6558L13.4973 10.0357C13.4033 9.88526 13.057 9.5432 12.9262 8.90438L12.8689 8.62631L11.83 8.71335V8.17283L12.8689 8.25987C12.9152 8.09776 12.9356 7.61682 13.3256 7.0849L13.4971 6.85049L12.6963 6.23005Z" fill="#2E2E2E"/>
<path d="M15.4894 9.94445C16.3808 9.94445 17.106 9.27086 17.106 8.44293C17.106 7.615 16.3808 6.94141 15.4894 6.94141C14.5982 6.94141 13.873 7.615 13.873 8.44293C13.8732 9.2709 14.5983 9.94445 15.4894 9.94445ZM15.4894 7.56647C16.0098 7.56647 16.433 7.95949 16.433 8.44289C16.433 8.92629 16.0098 9.31931 15.4894 9.31931C14.9692 9.31931 14.546 8.92629 14.546 8.44289C14.546 7.95961 14.9692 7.56647 15.4894 7.56647Z" fill="#2E2E2E"/>
<path d="M9.66406 11.166H10.3369V12.6934H9.66406V11.166Z" fill="#2E2E2E"/>
<path d="M9.66406 9.99121H10.3369V10.7158H9.66406V9.99121Z" fill="#2E2E2E"/>
<path d="M11.0127 11.166H11.6856V12.6934H11.0127V11.166Z" fill="#2E2E2E"/>
<path d="M8.31445 11.166H8.98731V12.6934H8.31445V11.166Z" fill="#2E2E2E"/>
</svg>
