<svg width="20" height="21" viewBox="0 0 20 21" fill="none" xmlns="http://www.w3.org/2000/svg">
<path d="M19.7476 14.8433L19.1667 14.6977C19.0873 14.4303 18.9801 14.1719 18.8467 13.927L19.1557 13.4119V13.4121C19.2342 13.2808 19.2134 13.1131 19.1054 13.0051L18.1627 12.0624C18.0546 11.9542 17.8868 11.9335 17.7556 12.0121L17.2406 12.321C16.9957 12.1875 16.7373 12.0804 16.4699 12.0011L16.3242 11.4191H16.3244C16.287 11.2704 16.1533 11.1663 16 11.1667V8.16669C16 7.98991 15.9297 7.82026 15.8047 7.69526C15.6797 7.57026 15.5101 7.50002 15.3333 7.50002H14.6667V3.50001C14.6667 3.49272 14.6629 3.48632 14.6623 3.47903C14.6607 3.44986 14.6549 3.42099 14.6454 3.39331C14.6417 3.3826 14.639 3.37233 14.6344 3.36191V3.36206C14.6181 3.32575 14.5955 3.29272 14.5677 3.26429L11.901 0.597619C11.8726 0.569792 11.8394 0.547173 11.803 0.530952C11.793 0.526637 11.7833 0.523958 11.7729 0.520238L11.7731 0.520387C11.7445 0.510417 11.7147 0.504613 11.6847 0.502976C11.6793 0.503274 11.6733 0.5 11.6667 0.5H2.99998C2.81591 0.5 2.66665 0.649258 2.66665 0.833334V7.50002H0.999982C0.734804 7.50002 0.480324 7.60538 0.292857 7.79288C0.105391 7.98038 0 8.23486 0 8.50001V17.8334C0 18.0985 0.105356 18.353 0.292857 18.5405C0.480358 18.728 0.734839 18.8334 0.999982 18.8334H11.7333L12.5046 19.6043C12.6128 19.7125 12.7805 19.7332 12.9116 19.6546L13.4267 19.3457C13.6716 19.4792 13.9299 19.5863 14.1973 19.6656L14.343 20.2476C14.3802 20.3961 14.5137 20.5001 14.6667 20.5H16C16.1528 20.5 16.2862 20.396 16.3234 20.2476L16.469 19.6656C16.7365 19.5863 16.9948 19.4792 17.2397 19.3457L17.7548 19.6546H17.7546C17.8859 19.7332 18.0536 19.7125 18.1616 19.6043L19.1043 18.6616C19.2125 18.5536 19.2332 18.3859 19.1546 18.2546L18.8457 17.7396V17.7397C18.9792 17.4948 19.0863 17.2364 19.1656 16.969L19.7476 16.8234C19.896 16.7862 20 16.6528 20 16.5V15.1667C20 15.0138 19.896 14.8805 19.7476 14.8433L19.7476 14.8433ZM11.9998 1.63797L13.5285 3.1667H11.9998V1.63797ZM3.33313 7.83342V1.16673H11.3331V3.50007C11.3331 3.58846 11.3683 3.67329 11.4308 3.73579C11.4933 3.79828 11.5781 3.8334 11.6665 3.8334H13.9998V7.50008H8.9998C8.87346 7.50008 8.75798 7.57136 8.70144 7.68446L7.79386 9.50008H3.33328L3.33313 7.83342ZM0.666463 8.50009C0.666463 8.31601 0.815721 8.16675 0.999797 8.16675H2.66646V9.50009H0.999797C0.885957 9.50113 0.773161 9.52197 0.666463 9.5614V8.50009ZM0.666463 10.5001C0.666463 10.316 0.815721 10.1668 0.999797 10.1668H7.9998C8.12614 10.1668 8.24162 10.0955 8.29816 9.98238L9.20574 8.16676H15.333V9.5001H9.33298C9.14891 9.5001 8.99965 9.64936 8.99965 9.83343C8.99965 10.0175 9.14891 10.1668 9.33298 10.1668H15.333V11.1668H14.6663C14.5135 11.1668 14.3802 11.2708 14.343 11.4192L14.1973 12.0001C13.9299 12.0794 13.6715 12.1867 13.4266 12.32L12.9116 12.0111H12.9117C12.7805 11.9325 12.6127 11.9534 12.5047 12.0614L11.562 13.0041C11.4538 13.1122 11.4331 13.28 11.5117 13.4111L11.8206 13.9262C11.6871 14.1711 11.58 14.4295 11.5007 14.6968L10.9187 14.8425V14.8424C10.77 14.8797 10.6659 15.0135 10.6663 15.1668V16.5001C10.6663 16.653 10.7703 16.7863 10.9187 16.8235L10.9584 16.8335H0.666239L0.666463 10.5001ZM11.5644 18.1668H0.999797C0.815721 18.1668 0.666463 18.0175 0.666463 17.8335V17.5001H11.7061C11.7431 17.5805 11.7784 17.6617 11.8208 17.7399L11.5644 18.1668ZM19.3331 16.2398L18.8135 16.3699V16.3698C18.6929 16.3998 18.5992 16.4945 18.5702 16.6151C18.4889 16.9519 18.3554 17.2738 18.1745 17.5692C18.11 17.6753 18.11 17.8086 18.1745 17.9149L18.4501 18.3745L17.8754 18.9492L17.4157 18.6736L17.4159 18.6735C17.3096 18.609 17.1763 18.609 17.0702 18.6735C16.7748 18.8544 16.4529 18.9879 16.1162 19.0692C15.9955 19.0982 15.9008 19.1919 15.8708 19.3125L15.7395 19.8335H14.9267L14.7967 19.3138H14.7968C14.7668 19.1933 14.6721 19.0995 14.5514 19.0705C14.2147 18.9893 13.8928 18.8558 13.5974 18.6748C13.4913 18.6104 13.358 18.6104 13.2517 18.6748L12.7921 18.9504L12.2174 18.3757L12.493 17.916L12.4931 17.9162C12.5575 17.8099 12.5575 17.6766 12.4931 17.5705C12.3122 17.2751 12.1787 16.9532 12.0974 16.6165C12.0684 16.4958 11.9746 16.4012 11.8541 16.3711L11.3331 16.2398V15.427L11.8528 15.297V15.2971C11.9733 15.2671 12.0671 15.1724 12.0961 15.0517C12.1773 14.715 12.3108 14.3931 12.4918 14.0977C12.5562 13.9916 12.5562 13.8583 12.4918 13.752L12.2162 13.2924L12.7909 12.7177L13.2505 12.9933L13.2504 12.9934C13.3566 13.0578 13.49 13.0578 13.5961 12.9934C13.8915 12.8125 14.2133 12.679 14.5501 12.5977C14.6708 12.5687 14.7654 12.4749 14.7955 12.3544L14.9267 11.8334H15.7394L15.8694 12.3531C15.8995 12.4736 15.9941 12.5674 16.1148 12.5964C16.4516 12.6776 16.7735 12.8111 17.0688 12.9921C17.1749 13.0565 17.3083 13.0565 17.4145 12.9921L17.8742 12.7165L18.4489 13.2912L18.1733 13.7508L18.1731 13.7507C18.1087 13.8569 18.1087 13.9903 18.1731 14.0964C18.3541 14.3918 18.4876 14.7136 18.5688 15.0504C18.5979 15.1711 18.6916 15.2657 18.8121 15.2958L19.3318 15.4259L19.3331 16.2398Z" fill="black"/>
<path d="M10.3333 9.16667H10.6667C10.8507 9.16667 11 9.01741 11 8.83333C11 8.64926 10.8507 8.5 10.6667 8.5H10.3333C10.1493 8.5 10 8.64926 10 8.83333C10 9.01741 10.1493 9.16667 10.3333 9.16667Z" fill="black"/>
<path d="M11.9998 9.16667H12.3332C12.5172 9.16667 12.6665 9.01741 12.6665 8.83333C12.6665 8.64926 12.5172 8.5 12.3332 8.5H11.9998C11.8158 8.5 11.6665 8.64926 11.6665 8.83333C11.6665 9.01741 11.8158 9.16667 11.9998 9.16667Z" fill="black"/>
<path d="M13.6663 9.16667H13.9997C14.1838 9.16667 14.333 9.01741 14.333 8.83333C14.333 8.64926 14.1838 8.5 13.9997 8.5H13.6663C13.4823 8.5 13.333 8.64926 13.333 8.83333C13.333 9.01741 13.4823 9.16667 13.6663 9.16667Z" fill="black"/>
<path d="M4.33333 5.16667H6.33333C6.51741 5.16667 6.66667 5.01741 6.66667 4.83333C6.66667 4.64926 6.51741 4.5 6.33333 4.5H4.33333C4.14926 4.5 4 4.64926 4 4.83333C4 5.01741 4.14926 5.16667 4.33333 5.16667Z" fill="black"/>
<path d="M7.33333 7.5H4.33333C4.14926 7.5 4 7.64926 4 7.83333C4 8.01741 4.14926 8.16667 4.33333 8.16667H7.33333C7.51741 8.16667 7.66667 8.01741 7.66667 7.83333C7.66667 7.64926 7.51741 7.5 7.33333 7.5Z" fill="black"/>
<path d="M8 6.50033C8 6.41193 7.96488 6.32711 7.90238 6.26461C7.83988 6.20211 7.75506 6.16699 7.66667 6.16699H4.33333C4.14926 6.16699 4 6.31625 4 6.50033C4 6.6844 4.14926 6.83366 4.33333 6.83366H7.66667C7.75506 6.83366 7.83988 6.79854 7.90238 6.73604C7.96488 6.67354 8 6.58872 8 6.50033Z" fill="black"/>
<path d="M12.9998 6.16699H8.99984C8.81576 6.16699 8.6665 6.31625 8.6665 6.50033C8.6665 6.6844 8.81576 6.83366 8.99984 6.83366H12.9998C13.1839 6.83366 13.3332 6.6844 13.3332 6.50033C13.3332 6.31625 13.1839 6.16699 12.9998 6.16699Z" fill="black"/>
<path d="M7.66634 5.16667H12.9997C13.1838 5.16667 13.333 5.01741 13.333 4.83333C13.333 4.64926 13.1838 4.5 12.9997 4.5H7.66634C7.48227 4.5 7.33301 4.64926 7.33301 4.83333C7.33301 5.01741 7.48227 5.16667 7.66634 5.16667Z" fill="black"/>
<path d="M15.3332 13.167C14.6259 13.167 13.9476 13.4479 13.4476 13.9481C12.9475 14.4481 12.6665 15.1264 12.6665 15.8337C12.6665 16.5409 12.9475 17.2192 13.4476 17.7192C13.9476 18.2194 14.6259 18.5003 15.3332 18.5003C16.0404 18.5003 16.7187 18.2194 17.2187 17.7192C17.7189 17.2192 17.9998 16.5409 17.9998 15.8337C17.9991 15.1267 17.7178 14.4488 17.2179 13.949C16.718 13.449 16.0402 13.1677 15.3332 13.167ZM15.3332 17.8337C14.8027 17.8337 14.294 17.623 13.9189 17.248C13.5439 16.8728 13.3332 16.3642 13.3332 15.8337C13.3332 15.3032 13.5439 14.7945 13.9189 14.4194C14.294 14.0444 14.8027 13.8337 15.3332 13.8337C15.8637 13.8337 16.3723 14.0444 16.7475 14.4194C17.1225 14.7945 17.3332 15.3032 17.3332 15.8337C17.3326 16.3639 17.1217 16.8724 16.7468 17.2473C16.3718 17.6222 15.8634 17.8331 15.3332 17.8337Z" fill="black"/>
</svg>
