<svg width="20" height="21" viewBox="0 0 20 21" fill="none" xmlns="http://www.w3.org/2000/svg">
<path d="M9.99979 10.2383C8.50254 10.2383 7.28418 11.4566 7.28418 12.954C7.28418 14.4516 8.50249 15.6701 9.99979 15.6701C11.4974 15.6701 12.7159 14.4518 12.7159 12.954C12.7159 11.4567 11.4974 10.2383 9.99979 10.2383ZM9.99979 14.8701C8.94355 14.8701 8.08422 14.0107 8.08422 12.9539C8.08422 11.8976 8.94359 11.0383 9.99979 11.0383C11.0563 11.0383 11.9159 11.8977 11.9159 12.9539C11.9159 14.0107 11.0563 14.8701 9.99979 14.8701Z" fill="#2E2E2E"/>
<path d="M17.6624 16.6506H14.2003C14.1578 16.6506 14.1171 16.6571 14.0751 16.6593C13.5719 16.1896 12.8987 15.8994 12.1578 15.8994H7.84252C7.10156 15.8994 6.42835 16.1895 5.92523 16.6593C5.88324 16.6571 5.84245 16.6506 5.79995 16.6506H2.33786C1.0488 16.6506 0 17.6991 0 18.9881V20.0998C0 20.3209 0.178964 20.4999 0.400085 20.4999H19.5999C19.821 20.4999 20 20.3209 20 20.0998V18.9881C20 17.699 18.9515 16.6506 17.6625 16.6506H17.6624ZM5.02774 18.7142V19.6997L0.799887 19.6999V18.9882C0.799887 18.1405 1.48975 17.4506 2.33776 17.4506H5.33073C5.13851 17.8311 5.0277 18.2596 5.0277 18.7142L5.02774 18.7142ZM14.1726 19.6999H5.82773V18.7144C5.82773 17.6034 6.73169 16.6995 7.8426 16.6995H12.1578C13.2688 16.6995 14.1727 17.6034 14.1727 18.7144L14.1726 19.6999ZM19.1999 19.6999H14.9724V18.7144C14.9724 18.2598 14.8615 17.8312 14.6692 17.4506H17.6621C18.5098 17.4506 19.1996 18.1405 19.1996 18.9881L19.1999 19.6999Z" fill="#2E2E2E"/>
<path d="M15.932 16.625C17.1771 16.625 18.1899 15.6121 18.1899 14.3667C18.1899 13.1213 17.1771 12.1084 15.932 12.1084C14.6867 12.1084 13.6738 13.1213 13.6738 14.3667C13.6738 15.6121 14.6867 16.625 15.932 16.625ZM15.932 12.9085C16.736 12.9085 17.3899 13.5627 17.3899 14.3667C17.3899 15.1707 16.736 15.825 15.932 15.825C15.1281 15.825 14.4738 15.1707 14.4738 14.3667C14.4738 13.5627 15.1282 12.9085 15.932 12.9085Z" fill="#2E2E2E"/>
<path d="M4.06876 12.1084C2.8234 12.1084 1.81055 13.1213 1.81055 14.3667C1.81055 15.6121 2.8234 16.625 4.06876 16.625C5.31413 16.625 6.32698 15.6121 6.32698 14.3667C6.32698 13.1213 5.31413 12.1084 4.06876 12.1084ZM4.06876 15.8249C3.26481 15.8249 2.61054 15.1706 2.61054 14.3666C2.61054 13.5627 3.26481 12.9084 4.06876 12.9084C4.87272 12.9084 5.52699 13.5627 5.52699 14.3666C5.52699 15.1706 4.87272 15.8249 4.06876 15.8249Z" fill="#2E2E2E"/>
<path d="M13.6274 7.73645C13.7738 7.59 13.7845 7.35597 13.6517 7.19697L13.2696 6.74026C13.3822 6.52929 13.4739 6.30902 13.5434 6.08118L14.1352 6.02852C14.3415 6.01011 14.4997 5.83716 14.4997 5.63014V4.36964C14.4997 4.16262 14.3415 3.9895 14.1352 3.97109L13.5434 3.91843C13.4739 3.69076 13.382 3.47032 13.2696 3.25987L13.6517 2.80317C13.7845 2.64416 13.774 2.41013 13.6274 2.26369L12.736 1.37231C12.5891 1.22552 12.3552 1.21571 12.1966 1.34805L11.7399 1.73007C11.5293 1.61753 11.309 1.52581 11.0813 1.45629L11.0287 0.864473C11.0103 0.658144 10.8373 0.5 10.6301 0.5H9.36967C9.16266 0.5 8.98955 0.658144 8.97131 0.864473L8.91865 1.45629C8.69099 1.52581 8.47055 1.61771 8.25958 1.73007L7.80342 1.34839C7.64442 1.21554 7.4109 1.22569 7.26395 1.37214L6.37259 2.26352C6.22616 2.40996 6.21566 2.64399 6.34833 2.803L6.73001 3.2597C6.61747 3.47068 6.52575 3.69095 6.45657 3.91826L5.86446 3.97092C5.65814 3.98933 5.5 4.16228 5.5 4.36946V5.62997C5.5 5.83699 5.65814 6.0101 5.86446 6.02835L6.45626 6.081C6.52578 6.30833 6.61768 6.52876 6.73056 6.74009L6.34854 7.19679C6.2157 7.3558 6.2262 7.58984 6.37281 7.73627L7.26416 8.62765C7.4106 8.7741 7.64429 8.78425 7.80363 8.65157L8.26032 8.26989C8.47129 8.38243 8.69156 8.47415 8.91886 8.54367L8.97152 9.13549C8.98993 9.34182 9.16287 9.49996 9.36989 9.49996H10.6304C10.8374 9.49996 11.0105 9.34182 11.0289 9.13549L11.0816 8.54367C11.3089 8.47415 11.5291 8.38226 11.7401 8.26989L12.1968 8.65192C12.3558 8.78442 12.5898 8.77462 12.7363 8.62765L13.6274 7.73645ZM12.4289 7.80356L12.037 7.47539C11.9026 7.36337 11.7108 7.35235 11.5644 7.44562C11.273 7.63268 10.9557 7.76433 10.6222 7.83746C10.4515 7.87463 10.3249 8.01832 10.3094 8.19247L10.2641 8.69997H9.73565L9.6904 8.19247C9.67474 8.01832 9.54826 7.87445 9.37755 7.83746C9.04389 7.76432 8.72677 7.63268 8.43457 7.44562C8.28779 7.35064 8.09626 7.36285 7.96237 7.47574L7.57089 7.80304L7.19661 7.42928L7.52443 7.03744C7.63611 6.90339 7.64832 6.71203 7.5542 6.56505C7.36715 6.27285 7.2355 5.9557 7.16237 5.62204C7.1252 5.45133 6.98151 5.32485 6.80737 5.30919L6.29989 5.26393V4.73547L6.80737 4.69021C6.98151 4.67455 7.12538 4.54807 7.16237 4.37736C7.23551 4.04335 7.36749 3.72656 7.5542 3.43519C7.64832 3.28788 7.63662 3.09687 7.52443 2.96249L7.19661 2.57066L7.57089 2.19689L7.96237 2.52419C8.09676 2.63742 8.28863 2.64844 8.43505 2.55431C8.72604 2.36759 9.0432 2.23561 9.37769 2.16247C9.54839 2.1253 9.67487 1.98161 9.69053 1.80746L9.73579 1.29996H10.2642L10.3095 1.80746C10.3252 1.98161 10.4516 2.12548 10.6223 2.16247C10.957 2.23561 11.2738 2.36759 11.5641 2.55431C11.7111 2.64775 11.9024 2.63674 12.0372 2.52454L12.429 2.19637L12.8033 2.57066L12.4751 2.96249C12.3631 3.09689 12.3509 3.28825 12.4453 3.43554C12.6321 3.72584 12.7637 4.04264 12.8372 4.37736C12.8743 4.54807 13.018 4.67472 13.1922 4.69021L13.6997 4.73547V5.26393L13.1922 5.30919C13.018 5.32485 12.8742 5.45133 12.8372 5.62204C12.764 5.9564 12.6321 6.27355 12.4453 6.5647C12.3509 6.71201 12.3629 6.90336 12.4751 7.0374L12.8033 7.42923L12.4289 7.80356Z" fill="#2E2E2E"/>
<path d="M10.0001 3.2002C9.00759 3.2002 8.2002 4.00761 8.2002 5.00018C8.2002 5.99275 9.00759 6.80017 10.0001 6.80017C10.9927 6.80017 11.8001 5.99275 11.8001 5.00018C11.8001 4.00761 10.9927 3.2002 10.0001 3.2002ZM10.0001 6.0002C9.4486 6.0002 9.00019 5.55173 9.00019 5.00023C9.00019 4.44867 9.44864 4.00025 10.0001 4.00025C10.5516 4.00025 11.0001 4.44872 11.0001 5.00023C11.0001 5.55178 10.5516 6.0002 10.0001 6.0002Z" fill="#2E2E2E"/>
</svg>
