<svg width="20" height="21" viewBox="0 0 20 21" fill="none" xmlns="http://www.w3.org/2000/svg">
<path d="M18.0259 12.5446L17.4737 12.5172C17.4607 12.4843 17.4469 12.4515 17.4322 12.4194L17.8033 12.0183C17.9181 11.8937 17.9132 11.7033 17.7918 11.5852L17.2167 11.0245C17.0956 10.9062 16.9008 10.9017 16.7736 11.0135L16.3632 11.3759C16.3304 11.3617 16.2969 11.348 16.2634 11.3354L16.2355 10.7957C16.227 10.6285 16.0855 10.4971 15.914 10.4971H15.1009C14.9297 10.4971 14.7882 10.6281 14.7794 10.7952L14.7506 11.3354C14.7171 11.3481 14.6839 11.3616 14.6512 11.3759L14.2408 11.0135C14.1133 10.9016 13.9191 10.9061 13.7978 11.0245L13.2227 11.5852C13.1014 11.7035 13.0963 11.8936 13.2108 12.0178L13.5819 12.4204C13.5674 12.4523 13.5536 12.4846 13.5409 12.5167L12.988 12.5446C12.8169 12.5533 12.6826 12.6911 12.6826 12.8586V13.6526C12.6826 13.82 12.8169 13.9579 12.9881 13.9666L13.5407 13.994C13.5536 14.0268 13.5674 14.0592 13.5818 14.0911L13.2107 14.4928C13.096 14.6173 13.101 14.8075 13.2222 14.9257L13.7973 15.4868C13.9186 15.6048 14.1136 15.6101 14.2404 15.4978L14.6511 15.1357C14.6839 15.1499 14.7174 15.1637 14.7506 15.1762L14.7792 15.7156C14.7881 15.8827 14.9292 16.0138 15.1007 16.0138H15.9138C16.0852 16.0138 16.2267 15.8824 16.2354 15.7151L16.2632 15.1759C16.2967 15.1634 16.33 15.1499 16.3628 15.1357L16.7736 15.4978C16.9012 15.6101 17.0958 15.6051 17.2167 15.4868L17.7918 14.9257C17.9129 14.8073 17.918 14.6168 17.8032 14.4926L17.4321 14.0918C17.4466 14.0595 17.4607 14.0269 17.4736 13.9942L18.0254 13.9667C18.1967 13.9581 18.3309 13.8202 18.3309 13.6527V12.8587C18.3315 12.6911 18.1971 12.5531 18.0259 12.5446L18.0259 12.5446ZM17.6877 13.3537L17.2191 13.3769C17.0781 13.3838 16.9579 13.4798 16.9233 13.6137C16.8905 13.7407 16.8378 13.8641 16.7673 13.9804C16.6955 14.0987 16.7108 14.2491 16.8054 14.3516L17.1205 14.6921L16.9783 14.8309L16.6293 14.5233C16.5253 14.4314 16.3711 14.4162 16.2502 14.4857C16.1306 14.5544 16.0041 14.6058 15.8731 14.6385C15.7365 14.6727 15.6386 14.7898 15.6315 14.9273L15.6079 15.3848H15.4066L15.3825 14.9271C15.3751 14.7898 15.2775 14.6729 15.141 14.6387C15.0099 14.6059 14.8833 14.5546 14.7646 14.4859C14.6435 14.4158 14.4895 14.4307 14.385 14.5232L14.0361 14.8306L13.8936 14.6917L14.2082 14.3512C14.3022 14.2496 14.3179 14.1003 14.247 13.9819C14.1768 13.8641 14.1238 13.7399 14.0901 13.6121C14.0549 13.4791 13.9353 13.3837 13.7948 13.3768L13.3261 13.3536L13.3264 13.1571L13.7952 13.1336C13.9353 13.1267 14.0549 13.0315 14.0902 12.8987C14.1242 12.7712 14.1769 12.6468 14.2471 12.5293C14.3178 12.4114 14.3022 12.2621 14.2083 12.1602L13.8937 11.8189L14.0359 11.6802L14.3848 11.9881C14.4898 12.0803 14.6442 12.0953 14.765 12.0249C14.8822 11.9571 15.009 11.9052 15.1416 11.8716C15.2772 11.8369 15.3744 11.7204 15.3817 11.5839L15.406 11.1258H15.6073L15.6309 11.5833C15.638 11.7204 15.7353 11.8371 15.871 11.8717C16.0041 11.9056 16.1313 11.9574 16.249 12.0254C16.3698 12.0954 16.5238 12.0806 16.629 11.9882L16.978 11.6804L17.12 11.819L16.8049 12.1592C16.7108 12.2613 16.6951 12.4115 16.7668 12.5301C16.8367 12.6455 16.8893 12.7696 16.9232 12.8983C16.9582 13.0317 17.0779 13.1273 17.2186 13.1342L17.6873 13.1574L17.6874 13.3537L17.6877 13.3537ZM15.5075 12.0985C14.8538 12.0985 14.3222 12.6176 14.3222 13.2554C14.3222 13.8938 14.8539 14.4128 15.5075 14.4128C16.1608 14.4128 16.6922 13.8936 16.6922 13.2554C16.6925 12.6173 16.161 12.0985 15.5075 12.0985ZM15.5075 13.7843C15.2087 13.7843 14.966 13.5471 14.966 13.2556C14.966 12.9641 15.209 12.7274 15.5075 12.7274C15.8059 12.7274 16.0484 12.9643 16.0484 13.2556C16.0487 13.5471 15.8059 13.7843 15.5075 13.7843ZM17.7615 9.46613C18.1868 9.05351 18.4342 8.49339 18.4342 7.89408C18.4342 6.66947 17.4138 5.67307 16.1596 5.67307H2.27467C1.02048 5.67307 7.68887e-05 6.66951 7.68887e-05 7.89408C7.68887e-05 9.11881 1.02048 10.1152 2.27467 10.1152H12.376C12.1435 10.3362 11.9356 10.5811 11.7563 10.8464H2.27459C1.0204 10.8464 0 11.8428 0 13.0674C0 14.2921 1.0204 15.2885 2.27459 15.2885H8.89539V17.9481C8.42196 18.064 8.04969 18.4275 7.93097 18.8895H4.15473C3.97705 18.8895 3.83291 19.0303 3.83291 19.2038C3.83291 19.3773 3.97705 19.518 4.15473 19.518H7.93097C8.07542 20.0814 8.59646 20.5 9.2172 20.5C9.83778 20.5 10.3585 20.0814 10.503 19.518H14.2796C14.4572 19.518 14.6014 19.3773 14.6014 19.2038C14.6014 19.0303 14.4572 18.8895 14.2796 18.8895H10.5032C10.3845 18.4275 10.0122 18.064 9.53919 17.9481V15.2885H11.5295C12.2819 16.6862 13.7812 17.6427 15.5075 17.6427C17.9846 17.6427 20 15.6744 20 13.2553C19.9999 11.639 19.0975 10.2275 17.7613 9.46628L17.7615 9.46613ZM9.90073 19.2037C9.90073 19.5719 9.59433 19.8713 9.21743 19.8713C8.84037 19.8713 8.53381 19.5718 8.53381 19.2037C8.53381 18.8358 8.84051 18.5363 9.21743 18.5363C9.59433 18.5366 9.90073 18.8358 9.90073 19.2037ZM11.2552 14.6599H2.27475C1.37558 14.6599 0.643917 13.9456 0.643917 13.0674C0.643917 12.1896 1.37543 11.475 2.27475 11.475H11.4051C11.1561 12.0198 11.0147 12.6213 11.0147 13.2553C11.0147 13.7469 11.1016 14.2181 11.2551 14.6599L11.2552 14.6599ZM2.27475 9.48671C1.37558 9.48671 0.643917 8.77238 0.643917 7.8942C0.643917 7.01646 1.37543 6.30183 2.27475 6.30183H16.1597C17.0589 6.30183 17.7906 7.01616 17.7906 7.8942C17.7906 8.40081 17.5446 8.86855 17.1318 9.16921C16.6274 8.97729 16.081 8.86781 15.5079 8.86781C14.6572 8.86781 13.8642 9.10402 13.1854 9.50671C13.1507 9.49414 13.1137 9.48639 13.0746 9.48639L2.27472 9.48654L2.27475 9.48671ZM15.5075 17.0143C13.385 17.0143 11.6584 15.3281 11.6584 13.2556C11.6584 11.1829 13.3851 9.49682 15.5075 9.49682C17.6298 9.49682 19.3563 11.183 19.3563 13.2556C19.3563 15.3282 17.6298 17.0143 15.5075 17.0143ZM2.27475 4.94217H16.1597C17.4139 4.94217 18.4343 3.94573 18.4343 2.72116C18.4343 1.49643 17.4139 0.5 16.1597 0.5H2.27475C1.02056 0.5 0.000153485 1.49643 0.000153485 2.72116C0.000153485 3.94577 1.02056 4.94217 2.27475 4.94217ZM2.27475 1.12879H16.1597C17.0589 1.12879 17.7906 1.84312 17.7906 2.72131C17.7906 3.59905 17.059 4.31368 16.1597 4.31368H2.27475C1.37558 4.31368 0.643917 3.59935 0.643917 2.72131C0.643917 1.84342 1.37558 1.12879 2.27475 1.12879ZM2.28223 3.9225C2.97811 3.9225 3.54439 3.36956 3.54439 2.68999C3.54439 2.01046 2.97815 1.45763 2.28223 1.45763C1.58631 1.45763 1.02022 2.01042 1.02022 2.68999C1.02022 3.36952 1.58631 3.9225 2.28223 3.9225ZM2.28223 2.08649C2.62321 2.08649 2.90074 2.3572 2.90074 2.69018C2.90074 3.02315 2.62322 3.29416 2.28223 3.29416C1.94125 3.29416 1.66403 3.02316 1.66403 2.69018C1.66403 2.35721 1.94124 2.08649 2.28223 2.08649ZM2.28223 6.63104C1.58635 6.63104 1.02022 7.18383 1.02022 7.8634C1.02022 8.54297 1.58631 9.09576 2.28223 9.09576C2.97815 9.09576 3.54439 8.54297 3.54439 7.8634C3.54454 7.18372 2.97815 6.63104 2.28223 6.63104ZM2.28223 8.46704C1.94125 8.46704 1.66403 8.19634 1.66403 7.86336C1.66403 7.53038 1.94124 7.25968 2.28223 7.25968C2.62321 7.25968 2.90074 7.53038 2.90074 7.86336C2.90074 8.19634 2.62322 8.46704 2.28223 8.46704ZM2.28223 11.8042C1.58635 11.8042 1.02022 12.3572 1.02022 13.0367C1.02022 13.7161 1.58631 14.2689 2.28223 14.2689C2.97815 14.2689 3.54439 13.7162 3.54439 13.0367C3.54454 12.3571 2.97815 11.8042 2.28223 11.8042ZM2.28223 13.6401C1.94125 13.6401 1.66403 13.3694 1.66403 13.0365C1.66403 12.7036 1.94124 12.4326 2.28223 12.4326C2.62321 12.4326 2.90074 12.7036 2.90074 13.0365C2.90074 13.3694 2.62322 13.6401 2.28223 13.6401Z" fill="#2E2E2E"/>
</svg>
